<svg width="60" height="60" viewBox="0 0 60 60" fill="none" xmlns="http://www.w3.org/2000/svg">
<path d="M30 55.625C36.6523 55.625 42.045 44.1523 42.045 30C42.045 15.8477 36.6523 4.375 30 4.375C23.3477 4.375 17.955 15.8477 17.955 30C17.955 44.1523 23.3477 55.625 30 55.625Z" stroke="#13187E" stroke-width="1.25" stroke-linecap="round" stroke-linejoin="round"/>
<path d="M36.0225 19.5687C48.2787 26.6437 55.5188 37.0512 52.1925 42.8125C48.8663 48.5737 36.2337 47.5075 23.9775 40.4312C11.7212 33.3562 4.4825 22.95 7.80875 17.1875C9.13875 14.8837 11.9562 13.6725 15.6425 13.5C21.1762 13.24 28.6675 15.3212 36.0225 19.5687Z" stroke="#13187E" stroke-width="1.25" stroke-linecap="round" stroke-linejoin="round"/>
<path d="M25.5375 26.5638H34.4625M24.1425 30H35.8575M27.4262 33.4363H32.5737M36.0225 40.4313C23.7662 47.5075 11.135 48.5738 7.80875 42.8125C4.4825 37.0513 11.7212 26.645 23.9775 19.5688C31.055 15.4813 38.2575 13.4 43.7212 13.48C47.7187 13.5375 50.7863 14.7525 52.1925 17.1875C55.5175 22.9488 48.28 33.355 36.0225 40.4313Z" stroke="#13187E" stroke-width="1.25" stroke-linecap="round" stroke-linejoin="round"/>
</svg>
