<svg width="60" height="60" viewBox="0 0 60 60" fill="none" xmlns="http://www.w3.org/2000/svg">
<path d="M39.2125 11.6625V14.0225L35.8912 15.9325V11.9375C35.8925 10.4892 35.3187 9.09963 34.2957 8.07435C33.2728 7.04906 31.8845 6.47199 30.4362 6.47H29.575C28.857 6.47 28.1461 6.61143 27.4828 6.88621C26.8196 7.161 26.2169 7.56375 25.7093 8.07147C25.2017 8.57919 24.7991 9.18193 24.5245 9.84527C24.2498 10.5086 24.1086 11.2196 24.1087 11.9375V25.6312C24.1087 26.2687 23.7712 26.855 23.2087 27.1788L18.3175 30L14.9725 28.065L19.3912 25.5188C19.8155 25.2726 20.1679 24.9195 20.4131 24.4946C20.6583 24.0698 20.7878 23.588 20.7887 23.0975V11.675C20.79 9.40781 21.6913 7.23385 23.2944 5.6307C24.8976 4.02755 27.0715 3.12633 29.3387 3.125H30.6762C31.7975 3.12451 32.9079 3.345 33.944 3.77388C34.98 4.20275 35.9214 4.8316 36.7142 5.62448C37.5071 6.41736 38.136 7.35872 38.5648 8.39476C38.9937 9.4308 39.213 10.5412 39.2125 11.6625ZM35.8912 40.2738V44.0675L31.3975 41.4712C30.9705 41.2321 30.4893 41.1066 30 41.1066C29.5106 41.1066 29.0294 41.2321 28.6025 41.4712L24.1087 44.0675L20.7875 45.9775L18.7162 47.1763C16.7543 48.3088 14.4231 48.6162 12.2347 48.031C10.0462 47.4457 8.17965 46.0157 7.04497 44.055L6.70747 43.4675L6.36997 42.895C5.80838 41.9231 5.44394 40.8501 5.29751 39.7372C5.15108 38.6244 5.22553 37.4936 5.5166 36.4095C5.80767 35.3255 6.30964 34.3095 6.9938 33.4196C7.67796 32.5298 8.53087 31.7836 9.50372 31.2238L11.625 29.9988L14.9712 31.935L11.3512 34.02C10.7287 34.3777 10.1829 34.8546 9.74488 35.4234C9.30688 35.9923 8.98534 36.6419 8.79865 37.3351C8.61196 38.0283 8.56379 38.7516 8.65689 39.4635C8.74999 40.1753 8.98254 40.8618 9.34122 41.4838L9.76622 42.2213C10.1251 42.8442 10.6032 43.3903 11.1732 43.8284C11.7431 44.2665 12.3939 44.5881 13.0882 44.7746C13.7824 44.9612 14.5067 45.0091 15.2195 44.9156C15.9323 44.8222 16.6197 44.5892 17.2425 44.23L20.7875 42.1825L24.1087 40.26L29.1012 37.3775L29.1137 37.39C29.6637 37.065 30.3375 37.065 30.8862 37.39H30.8987L35.8912 40.2738Z" stroke="#13187E" stroke-width="1.25" stroke-linecap="round" stroke-linejoin="round"/>
<path d="M20.7875 36.9025V42.1825L17.2425 44.23C16.6197 44.5891 15.9322 44.822 15.2193 44.9154C14.5064 45.0087 13.7822 44.9607 13.0879 44.774C12.3936 44.5874 11.7429 44.2657 11.1729 43.8275C10.603 43.3893 10.125 42.843 9.76623 42.22L9.34123 41.4837C8.98254 40.8618 8.74999 40.1753 8.65689 39.4634C8.56379 38.7516 8.61197 38.0283 8.79865 37.3351C8.98534 36.6418 9.30688 35.9922 9.74488 35.4234C10.1829 34.8545 10.7287 34.3776 11.3512 34.02L14.9712 31.935L19.39 34.4937C19.8139 34.7372 20.1663 35.0879 20.4116 35.5108C20.6569 35.9336 20.7865 36.4136 20.7875 36.9025V36.9025ZM28.6025 18.5287L24.1087 15.9325V11.9375C24.1086 11.2195 24.2498 10.5086 24.5245 9.84524C24.7991 9.1819 25.2017 8.57916 25.7093 8.07144C26.2169 7.56372 26.8196 7.16097 27.4828 6.88618C28.1461 6.6114 28.857 6.46997 29.575 6.46997H30.4375C31.8856 6.47229 33.2735 7.04951 34.2962 8.07476C35.3188 9.10001 35.8926 10.4894 35.8912 11.9375V15.9325L31.3975 18.5287C30.5362 19.0287 29.4637 19.0287 28.6012 18.5287H28.6025ZM41.6837 30L36.79 32.8212C36.2287 33.1462 35.8912 33.7325 35.8912 34.3687V40.2737L30.8987 37.39H30.8862C30.3362 37.065 29.6625 37.065 29.1137 37.39L29.1012 37.3775L24.1087 40.2612V34.3687C24.1087 33.7312 23.7712 33.1462 23.2087 32.8212L18.3175 30L23.2112 27.1787C23.7737 26.8537 24.11 26.2675 24.11 25.6312V19.7375L29.1025 22.6212L29.115 22.6087C29.665 22.9337 30.3387 22.9337 30.8875 22.6087L30.9 22.6212L35.8925 19.7375V25.63C35.8925 26.2675 36.23 26.8537 36.7925 27.1775L41.6825 30H41.6837ZM50.6462 41.4962L50.2212 42.2462C49.4924 43.4967 48.2978 44.4075 46.899 44.7793C45.5002 45.151 44.011 44.9535 42.7575 44.23L39.2125 42.1825V36.9025C39.2125 35.9037 39.75 34.9925 40.61 34.4937L45.0287 31.935L48.6487 34.02C49.2711 34.3794 49.8165 34.858 50.2538 35.4284C50.6911 35.9987 51.0116 36.6497 51.1971 37.3441C51.3827 38.0384 51.4295 38.7625 51.335 39.475C51.2404 40.1874 51.0064 40.8743 50.6462 41.4962V41.4962Z" stroke="#13187E" stroke-width="1.25" stroke-linecap="round" stroke-linejoin="round"/>
<path d="M20.7875 36.9025V42.1825L17.2425 44.23C16.6197 44.5891 15.9322 44.822 15.2193 44.9154C14.5064 45.0087 13.7822 44.9607 13.0879 44.774C12.3936 44.5874 11.7429 44.2657 11.1729 43.8275C10.603 43.3893 10.125 42.843 9.76623 42.22L9.34123 41.4837C8.98254 40.8618 8.74999 40.1753 8.65689 39.4634C8.56379 38.7516 8.61197 38.0283 8.79865 37.3351C8.98534 36.6418 9.30688 35.9922 9.74488 35.4234C10.1829 34.8545 10.7287 34.3776 11.3512 34.02L14.9712 31.935L19.39 34.4937C19.8139 34.7372 20.1663 35.0879 20.4116 35.5108C20.6569 35.9336 20.7865 36.4136 20.7875 36.9025V36.9025ZM28.6025 18.5287L24.1087 15.9325V11.9375C24.1086 11.2195 24.2498 10.5086 24.5245 9.84524C24.7991 9.1819 25.2017 8.57916 25.7093 8.07144C26.2169 7.56372 26.8196 7.16097 27.4828 6.88618C28.1461 6.6114 28.857 6.46997 29.575 6.46997H30.4375C31.8856 6.47229 33.2735 7.04951 34.2962 8.07476C35.3188 9.10001 35.8926 10.4894 35.8912 11.9375V15.9325L31.3975 18.5287C30.5362 19.0287 29.4637 19.0287 28.6012 18.5287H28.6025ZM41.6837 30L36.79 32.8212C36.2287 33.1462 35.8912 33.7325 35.8912 34.3687V40.2737L30.8987 37.39H30.8862C30.3362 37.065 29.6625 37.065 29.1137 37.39L29.1012 37.3775L24.1087 40.2612V34.3687C24.1087 33.7312 23.7712 33.1462 23.2087 32.8212L18.3175 30L23.2112 27.1787C23.7737 26.8537 24.11 26.2675 24.11 25.6312V19.7375L29.1025 22.6212L29.115 22.6087C29.665 22.9337 30.3387 22.9337 30.8875 22.6087L30.9 22.6212L35.8925 19.7375V25.63C35.8925 26.2675 36.23 26.8537 36.7925 27.1775L41.6825 30H41.6837ZM50.6462 41.4962L50.2212 42.2462C49.4924 43.4967 48.2978 44.4075 46.899 44.7793C45.5002 45.151 44.011 44.9535 42.7575 44.23L39.2125 42.1825V36.9025C39.2125 35.9037 39.75 34.9925 40.61 34.4937L45.0287 31.935L48.6487 34.02C49.2711 34.3794 49.8165 34.858 50.2538 35.4284C50.6911 35.9987 51.0116 36.6497 51.1971 37.3441C51.3827 38.0384 51.4295 38.7625 51.335 39.475C51.2404 40.1874 51.0064 40.8743 50.6462 41.4962V41.4962Z" stroke="#13187E" stroke-width="1.25" stroke-linecap="round" stroke-linejoin="round"/>
<path d="M24.1087 34.3687V40.2612L20.7875 42.1824V36.9024C20.7875 35.9037 20.25 34.9924 19.39 34.4937L14.9712 31.9349L11.625 29.9999L9.50249 28.7762C8.5299 28.2162 7.67726 27.47 6.99333 26.5802C6.30941 25.6904 5.80762 24.6745 5.51668 23.5907C5.22574 22.5068 5.15135 21.3761 5.29777 20.2635C5.44419 19.1508 5.80854 18.0779 6.36999 17.1062L6.70749 16.5312L7.04374 15.9437C8.17863 13.9832 10.0453 12.5535 12.2337 11.9684C14.4221 11.3834 16.7532 11.691 18.715 12.8237L20.7862 14.0224V17.8174L17.2412 15.7699C16.6184 15.4108 15.9309 15.1779 15.2181 15.0845C14.5052 14.9912 13.7809 15.0392 13.0866 15.2259C12.3923 15.4125 11.7416 15.7342 11.1717 16.1724C10.6017 16.6106 10.1237 17.1569 9.76499 17.7799L9.33999 18.5162C8.9813 19.1381 8.74875 19.8246 8.65565 20.5365C8.56255 21.2484 8.61072 21.9716 8.79741 22.6648C8.9841 23.3581 9.30564 24.0077 9.74364 24.5765C10.1816 25.1454 10.7275 25.6223 11.35 25.9799L14.97 28.0649L18.3162 29.9999L23.21 32.8212C23.7725 33.1462 24.1087 33.7324 24.1087 34.3687Z" stroke="#13187E" stroke-width="1.25" stroke-linecap="round" stroke-linejoin="round"/>
<path d="M19.39 25.5186L14.9712 28.0649L11.3512 25.9799C10.7287 25.6222 10.1829 25.1453 9.74488 24.5765C9.30688 24.0076 8.98534 23.358 8.79865 22.6648C8.61197 21.9716 8.56379 21.2483 8.65689 20.5364C8.74999 19.8246 8.98254 19.138 9.34123 18.5161L9.76623 17.7786C10.1251 17.1557 10.6032 16.6096 11.1732 16.1715C11.7431 15.7333 12.3939 15.4118 13.0882 15.2253C13.7825 15.0387 14.5067 14.9908 15.2195 15.0843C15.9323 15.1777 16.6197 15.4107 17.2425 15.7699L20.7875 17.8174V23.0974C20.7875 24.0961 20.25 25.0186 19.39 25.5186ZM45.0287 31.9349L40.61 34.4936C40.186 34.7371 39.8337 35.0879 39.5884 35.5107C39.3431 35.9335 39.2134 36.4135 39.2125 36.9024V48.3361C39.2131 49.4575 38.9928 50.5681 38.564 51.6043C38.1352 52.6405 37.5063 53.582 36.7134 54.375C35.9205 55.168 34.9791 55.7969 33.943 56.2259C32.9069 56.6549 31.7964 56.8754 30.675 56.8749H29.3375C27.0703 56.8736 24.8963 55.9723 23.2932 54.3692C21.69 52.766 20.7888 50.5921 20.7875 48.3249V45.9774L24.1087 44.0674V48.0624C24.1086 48.7804 24.2499 49.4915 24.5246 50.1549C24.7993 50.8183 25.202 51.4211 25.7098 51.9289C26.2175 52.4366 26.8203 52.8393 27.4837 53.114C28.1471 53.3887 28.8582 53.5301 29.5762 53.5299H30.4375C31.8856 53.5276 33.2735 52.9504 34.2962 51.9251C35.3188 50.8999 35.8926 49.5105 35.8912 48.0624V34.3686C35.8912 33.7311 36.2287 33.1461 36.7912 32.8211L41.6825 29.9999L45.0287 31.9349Z" stroke="#13187E" stroke-width="1.25" stroke-linecap="round" stroke-linejoin="round"/>
<path d="M31.3975 41.4714L35.8913 44.0676V48.0626C35.8926 49.5109 35.3187 50.9005 34.2958 51.9258C33.2728 52.9511 31.8846 53.5281 30.4363 53.5301H29.575C28.8571 53.5301 28.1462 53.3887 27.4829 53.1139C26.8196 52.8391 26.217 52.4364 25.7093 51.9286C25.2017 51.4209 24.7991 50.8182 24.5245 50.1548C24.2499 49.4915 24.1086 48.7806 24.1088 48.0626V44.0676L28.6025 41.4714C29.0296 41.232 29.511 41.1063 30.0006 41.1063C30.4902 41.1063 30.9704 41.232 31.3975 41.4714ZM50.4963 28.7764L48.375 30.0001L45.0288 28.0651L48.6488 25.9801C49.2711 25.6207 49.8165 25.1421 50.2538 24.5717C50.6911 24.0013 51.0117 23.3504 51.1972 22.656C51.3827 21.9617 51.4295 21.2376 51.335 20.5251C51.2405 19.8127 51.0064 19.1258 50.6463 18.5039L50.2213 17.7664C49.4959 16.5123 48.3022 15.5975 46.9026 15.2232C45.5031 14.8488 44.0121 15.0456 42.7575 15.7701L39.2125 17.8176L35.8913 19.7401L30.8988 22.6226L30.8863 22.6101C30.3363 22.9351 29.6625 22.9351 29.1138 22.6101L29.1013 22.6226L24.1088 19.7401V15.9326L28.6025 18.5289C29.4638 19.0289 30.5375 19.0289 31.3988 18.5289L35.8925 15.9326L39.2125 14.0226L41.285 12.8239C43.2469 11.6913 45.5782 11.3839 47.7666 11.9692C49.955 12.5544 51.8216 13.9845 52.9563 15.9451L53.2938 16.5326L53.63 17.1064C54.1916 18.0782 54.556 19.1513 54.7025 20.2641C54.8489 21.377 54.7745 22.5078 54.4834 23.5918C54.1923 24.6759 53.6903 25.6919 53.0062 26.5817C52.322 27.4716 51.4691 28.2165 50.4963 28.7764Z" stroke="#13187E" stroke-width="1.25" stroke-linecap="round" stroke-linejoin="round"/>
<path d="M36.79 27.1788L41.6837 30.0001L36.79 32.8213C36.2287 33.1463 35.8912 33.7326 35.8912 34.3688V40.2738L30.8987 37.3901H30.8862C30.3362 37.0651 29.6625 37.0651 29.1137 37.3901L29.1012 37.3776L24.1087 40.2613V34.3688C24.1087 33.7313 23.7712 33.1463 23.2087 32.8213L18.3175 30.0001L23.2112 27.1788C23.7737 26.8538 24.11 26.2676 24.11 25.6313V19.7376L29.1025 22.6213L29.115 22.6088C29.665 22.9338 30.3387 22.9338 30.8875 22.6088L30.9 22.6213L35.8925 19.7376V25.6301C35.8925 26.2676 36.23 26.8538 36.7925 27.1776L36.79 27.1788ZM48.65 25.9813L45.0287 28.0651L40.61 25.5188C40.1857 25.2727 39.8333 24.9195 39.5881 24.4947C39.3429 24.0698 39.2134 23.5881 39.2125 23.0976V17.8176L42.7575 15.7701C44.0122 15.0456 45.5033 14.8491 46.9029 15.2236C48.3025 15.5982 49.4961 16.5132 50.2212 17.7676L50.6462 18.5038C51.0066 19.1258 51.2408 19.8127 51.3354 20.5253C51.43 21.2379 51.3833 21.9622 51.1977 22.6567C51.0122 23.3512 50.6916 24.0023 50.2542 24.5727C49.8168 25.1432 49.2725 25.6219 48.65 25.9813ZM20.7875 17.8176V23.0976C20.7875 24.0963 20.25 25.0188 19.39 25.5188L14.9712 28.0651L11.3512 25.9801C10.7287 25.6224 10.1829 25.1455 9.74488 24.5766C9.30688 24.0078 8.98534 23.3582 8.79865 22.6649C8.61197 21.9717 8.56379 21.2485 8.65689 20.5366C8.74999 19.8247 8.98254 19.1382 9.34123 18.5163L9.76623 17.7788C10.1251 17.1559 10.6032 16.6097 11.1732 16.1716C11.7431 15.7335 12.3939 15.412 13.0882 15.2254C13.7825 15.0389 14.5067 14.991 15.2195 15.0844C15.9323 15.1779 16.6197 15.4109 17.2425 15.7701L20.7875 17.8176ZM35.8912 44.0676V48.0626C35.8926 49.5109 35.3187 50.9004 34.2957 51.9257C33.2728 52.951 31.8845 53.5281 30.4362 53.5301H29.575C28.857 53.5301 28.1461 53.3886 27.4828 53.1138C26.8196 52.8391 26.2169 52.4363 25.7093 51.9286C25.2017 51.4209 24.7991 50.8181 24.5245 50.1548C24.2498 49.4914 24.1086 48.7805 24.1087 48.0626V44.0676L28.6025 41.4713C29.0296 41.232 29.511 41.1063 30.0006 41.1063C30.4902 41.1063 30.9716 41.232 31.3987 41.4713L35.8925 44.0676H35.8912Z" stroke="#13187E" stroke-width="1.25" stroke-linecap="round" stroke-linejoin="round"/>
<path d="M53.63 42.8949L53.2925 43.4687L52.955 44.0562C51.8201 46.0166 49.9534 47.4464 47.765 48.0314C45.5766 48.6164 43.2455 48.3088 41.2837 47.1762L39.2125 45.9774V42.1824L42.7575 44.2299C44.0112 44.9534 45.5004 45.1507 46.8993 44.7787C48.2981 44.4066 49.4926 43.4956 50.2212 42.2449L50.6462 41.4962C51.0064 40.8742 51.2404 40.1874 51.335 39.4749C51.4295 38.7625 51.3827 38.0383 51.1971 37.344C51.0116 36.6497 50.6911 35.9987 50.2538 35.4283C49.8165 34.8579 49.2711 34.3793 48.6487 34.0199L45.0287 31.9349L41.6837 29.9999L36.79 27.1787C36.5171 27.0228 36.2902 26.7976 36.1323 26.5259C35.9745 26.2541 35.8913 25.9454 35.8912 25.6312V19.7374L39.2125 17.8162V23.0962C39.2125 24.0949 39.75 25.0174 40.61 25.5174L45.0287 28.0637L48.375 29.9999L50.4975 31.2237C51.4702 31.7835 52.3229 32.5297 53.007 33.4194C53.691 34.3091 54.193 35.325 54.484 36.4089C54.7751 37.4928 54.8496 38.6235 54.7032 39.7362C54.5569 40.8489 54.1926 41.9219 53.6312 42.8937L53.63 42.8949Z" stroke="#13187E" stroke-width="1.25" stroke-linecap="round" stroke-linejoin="round"/>
<path d="M41.6838 30.0001L36.79 32.8213C36.2288 33.1463 35.8913 33.7326 35.8913 34.3688V40.2738L30.8988 37.3901H30.8863C30.3363 37.0651 29.6625 37.0651 29.1138 37.3901L29.1013 37.3776L24.1088 40.2613V34.3688C24.1088 33.7313 23.7713 33.1463 23.2088 32.8213L18.3175 30.0001L23.2113 27.1788C23.7738 26.8538 24.11 26.2676 24.11 25.6313V19.7376L29.1025 22.6213L29.115 22.6088C29.665 22.9338 30.3388 22.9338 30.8875 22.6088L30.9 22.6213L35.8925 19.7376V25.6301C35.8925 26.2676 36.23 26.8538 36.7925 27.1776L41.6838 30.0001ZM48.65 25.9813L45.0288 28.0651L40.61 25.5188C40.1857 25.2727 39.8333 24.9195 39.5881 24.4947C39.3429 24.0698 39.2134 23.5881 39.2125 23.0976V17.8176L42.7575 15.7701C44.0122 15.0456 45.5033 14.8491 46.9029 15.2236C48.3025 15.5982 49.4961 16.5132 50.2213 17.7676L50.6463 18.5038C51.0066 19.1258 51.2408 19.8127 51.3354 20.5253C51.4301 21.2379 51.3833 21.9622 51.1978 22.6567C51.0122 23.3512 50.6916 24.0023 50.2542 24.5727C49.8169 25.1432 49.2725 25.6219 48.65 25.9813Z" stroke="#13187E" stroke-width="1.25" stroke-linecap="round" stroke-linejoin="round"/>
<path d="M30 30.9375C30.5178 30.9375 30.9375 30.5178 30.9375 30C30.9375 29.4822 30.5178 29.0625 30 29.0625C29.4822 29.0625 29.0625 29.4822 29.0625 30C29.0625 30.5178 29.4822 30.9375 30 30.9375Z" fill="#13187E"/>
</svg>
