<svg width="60" height="60" viewBox="0 0 60 60" fill="none" xmlns="http://www.w3.org/2000/svg">
<path d="M30 56.875C44.8427 56.875 56.875 44.8427 56.875 30C56.875 15.1573 44.8427 3.125 30 3.125C15.1573 3.125 3.125 15.1573 3.125 30C3.125 44.8427 15.1573 56.875 30 56.875Z" stroke="#13187E" stroke-width="1.25" stroke-linecap="round" stroke-linejoin="round"/>
<path d="M34.0625 22.9638H25.9375M34.0625 22.9638L38.125 30M34.0625 22.9638H55.9425M25.9375 22.9638L21.875 30M25.9375 22.9638L36.875 4.02002M21.875 30L25.9375 37.0363M21.875 30L10.9375 11.0563M25.9375 37.0363H34.0625M25.9375 37.0363H4.0575M34.0625 37.0363L38.125 30M34.0625 37.0363L23.125 55.98M38.125 30L49.0625 48.9438" stroke="#13187E" stroke-width="1.25" stroke-linecap="round" stroke-linejoin="round"/>
</svg>
