<svg width="435" height="386" viewBox="0 0 435 386" fill="none" xmlns="http://www.w3.org/2000/svg">
<path d="M303.446 342.939L299.972 340.68C299.413 340.315 299.118 339.684 299.235 339.06C299.357 338.4 299.449 337.739 299.512 337.079C299.571 336.451 300.024 335.913 300.663 335.693L304.628 334.331C305.408 334.063 305.884 333.329 305.772 332.561L305.314 329.443C305.201 328.678 304.531 328.085 303.701 328.015L299.474 327.665C298.791 327.608 298.2 327.195 297.96 326.598C297.712 325.98 297.437 325.373 297.137 324.778C296.846 324.202 296.943 323.521 297.378 323.031L300.081 320.004C300.611 319.41 300.627 318.553 300.115 317.939L298.037 315.448C297.527 314.837 296.627 314.632 295.872 314.957L292.035 316.608C291.415 316.876 290.682 316.79 290.152 316.385C289.606 315.967 289.04 315.566 288.451 315.187C287.887 314.822 287.601 314.187 287.716 313.558L288.417 309.686C288.555 308.924 288.106 308.173 287.334 307.88L284.195 306.682C283.423 306.387 282.537 306.627 282.059 307.26L279.629 310.475C279.237 310.993 278.558 311.263 277.883 311.156C277.171 311.042 276.458 310.953 275.747 310.894C275.068 310.837 274.486 310.416 274.25 309.823L272.77 306.142C272.479 305.417 271.685 304.976 270.86 305.077L267.499 305.495C266.673 305.598 266.035 306.216 265.963 306.986L265.595 310.903C265.536 311.533 265.096 312.082 264.456 312.301C263.784 312.531 263.123 312.786 262.473 313.067C261.855 313.335 261.124 313.238 260.599 312.835L257.326 310.325C256.683 309.831 255.758 309.817 255.1 310.287L252.418 312.206C251.759 312.679 251.54 313.51 251.894 314.212L253.685 317.773C253.976 318.349 253.886 319.028 253.449 319.517C252.997 320.021 252.569 320.546 252.161 321.091C251.768 321.614 251.082 321.875 250.406 321.77L246.226 321.11C245.405 320.979 244.595 321.394 244.28 322.109L242.994 325.018C242.678 325.733 242.94 326.556 243.623 327.001L247.097 329.26C247.656 329.625 247.952 330.256 247.834 330.88C247.713 331.54 247.62 332.2 247.557 332.861C247.498 333.489 247.045 334.027 246.407 334.246L242.441 335.609C241.661 335.877 241.185 336.611 241.298 337.379L241.756 340.496C241.868 341.262 242.538 341.855 243.368 341.924L247.595 342.274C248.274 342.331 248.867 342.738 249.107 343.333C249.357 343.958 249.634 344.571 249.939 345.173C250.228 345.746 250.126 346.423 249.691 346.911L246.991 349.937C246.461 350.532 246.445 351.389 246.957 352.002L249.034 354.493C249.544 355.105 250.444 355.31 251.2 354.985L255.037 353.333C255.657 353.065 256.39 353.152 256.92 353.557C257.466 353.975 258.034 354.375 258.621 354.755C259.185 355.12 259.471 355.755 259.356 356.383L258.652 360.256C258.515 361.018 258.964 361.768 259.735 362.062L262.875 363.26C263.646 363.555 264.533 363.315 265.011 362.682L267.44 359.467C267.833 358.948 268.511 358.678 269.186 358.786C269.899 358.9 270.611 358.988 271.322 359.047C272.001 359.104 272.583 359.526 272.82 360.119L274.299 363.798C274.59 364.523 275.384 364.964 276.21 364.863L279.571 364.447C280.396 364.344 281.034 363.726 281.107 362.956L281.474 359.039C281.533 358.406 281.98 357.86 282.622 357.638C283.288 357.411 283.942 357.158 284.585 356.879C285.207 356.611 285.94 356.702 286.468 357.107L289.741 359.619C290.384 360.113 291.309 360.127 291.967 359.657L294.649 357.738C295.308 357.265 295.527 356.434 295.173 355.732L293.382 352.171C293.091 351.595 293.181 350.916 293.618 350.427C294.07 349.923 294.498 349.397 294.906 348.853C295.299 348.33 295.982 348.069 296.661 348.174L300.841 348.834C301.662 348.965 302.472 348.549 302.787 347.834L304.073 344.926C304.389 344.211 304.127 343.388 303.444 342.943L303.446 342.939ZM271.631 348.355C263.653 347.362 258.041 340.566 259.092 333.173C260.143 325.78 267.465 320.593 275.441 321.586C283.419 322.58 289.031 329.376 287.979 336.769C286.928 344.162 279.609 349.349 271.631 348.355Z" fill="#EBFF00"/>
<path d="M342.881 325.356L340.912 323.315C340.594 322.985 340.501 322.515 340.686 322.11C340.88 321.682 341.054 321.247 341.207 320.811C341.354 320.393 341.751 320.098 342.22 320.043L345.134 319.708C345.707 319.642 346.154 319.214 346.208 318.68L346.424 316.504C346.479 315.968 346.124 315.468 345.574 315.299L342.773 314.439C342.319 314.299 341.99 313.932 341.929 313.492C341.866 313.038 341.782 312.587 341.681 312.137C341.582 311.705 341.762 311.258 342.139 310.992L344.478 309.343C344.938 309.018 345.091 308.44 344.85 307.95L343.867 305.957C343.625 305.468 343.05 305.198 342.484 305.305L339.608 305.856C339.143 305.944 338.661 305.78 338.372 305.426C338.074 305.061 337.756 304.708 337.425 304.365C337.104 304.033 337.019 303.563 337.201 303.154L338.331 300.637C338.555 300.142 338.377 299.568 337.903 299.256L335.981 297.982C335.51 297.67 334.867 297.699 334.438 298.058L332.253 299.874C331.901 300.167 331.395 300.249 330.958 300.076C330.495 299.893 330.029 299.728 329.557 299.585C329.106 299.446 328.786 299.074 328.725 298.64L328.346 295.932C328.271 295.398 327.809 294.982 327.234 294.93L324.888 294.715C324.313 294.662 323.776 294.987 323.596 295.497L322.684 298.094C322.538 298.511 322.148 298.817 321.678 298.872C321.184 298.929 320.695 299.003 320.208 299.098C319.745 299.186 319.267 299.013 318.978 298.663L317.19 296.48C316.838 296.052 316.215 295.904 315.69 296.126L313.549 297.028C313.024 297.25 312.735 297.781 312.857 298.309L313.468 300.983C313.567 301.416 313.391 301.863 313.012 302.129C312.622 302.403 312.243 302.696 311.876 303.004C311.521 303.299 311.014 303.375 310.574 303.204L307.856 302.139C307.322 301.93 306.706 302.091 306.37 302.527L305.01 304.306C304.676 304.742 304.712 305.337 305.1 305.74L307.069 307.782C307.387 308.111 307.479 308.581 307.294 308.986C307.1 309.414 306.927 309.847 306.773 310.285C306.627 310.703 306.23 310.998 305.761 311.053L302.846 311.389C302.273 311.454 301.827 311.882 301.773 312.416L301.556 314.593C301.502 315.128 301.856 315.628 302.407 315.797L305.208 316.658C305.659 316.797 305.991 317.16 306.052 317.596C306.115 318.056 306.198 318.512 306.304 318.963C306.403 319.393 306.219 319.836 305.844 320.102L303.505 321.752C303.045 322.076 302.892 322.654 303.133 323.144L304.116 325.137C304.358 325.626 304.933 325.896 305.499 325.789L308.375 325.238C308.84 325.15 309.322 325.314 309.611 325.668C309.909 326.033 310.227 326.386 310.558 326.729C310.879 327.061 310.964 327.531 310.782 327.94L309.652 330.457C309.428 330.952 309.606 331.526 310.08 331.838L312.002 333.112C312.473 333.424 313.116 333.395 313.545 333.036L315.73 331.22C316.082 330.927 316.587 330.845 317.025 331.018C317.487 331.201 317.954 331.366 318.426 331.509C318.877 331.648 319.197 332.02 319.258 332.454L319.637 335.162C319.711 335.696 320.174 336.112 320.749 336.164L323.095 336.379C323.67 336.432 324.207 336.107 324.387 335.597L325.299 333C325.445 332.581 325.84 332.277 326.311 332.222C326.801 332.165 327.286 332.091 327.768 331.998C328.235 331.908 328.716 332.079 329.005 332.431L330.793 334.614C331.145 335.042 331.768 335.19 332.293 334.968L334.434 334.066C334.959 333.844 335.248 333.313 335.126 332.785L334.515 330.111C334.416 329.678 334.592 329.231 334.971 328.965C335.361 328.691 335.74 328.398 336.107 328.09C336.462 327.795 336.969 327.719 337.409 327.89L340.127 328.955C340.661 329.164 341.277 329.003 341.613 328.567L342.973 326.789C343.307 326.352 343.271 325.757 342.883 325.354L342.881 325.356ZM320.438 324.319C315.207 322.469 312.559 317.039 314.519 312.192C316.481 307.345 322.31 304.917 327.541 306.767C332.771 308.617 335.419 314.046 333.459 318.893C331.497 323.741 325.668 326.168 320.438 324.319Z" fill="#EBFF00"/>
<path d="M260.854 227.348L175.863 215.473C175.313 215.473 175.133 215.951 175.133 216.411V284.031C175.133 290.504 126.843 307.326 126.371 306.47L126.313 313.627C126.308 314.96 127.497 315.862 129.159 316.141L201.503 328.514C204.809 328.514 208.075 327.822 211.069 326.649L250.248 311.222C257.301 308.444 261.75 302.481 261.75 295.974V228.285C261.75 227.825 261.404 227.346 260.854 227.346V227.348Z" fill="black"/>
<path d="M166.521 211.533V279.168C166.521 285.835 161.933 291.91 154.724 294.787L128.293 305.336C126.568 306.026 126.976 307.888 129.069 308.188L201.688 320.561C204.954 320.561 208.179 319.958 211.132 318.795L240.416 307.266C247.679 304.406 252.315 298.308 252.315 291.606V223.904C252.315 223.628 252.046 223.402 251.715 223.402L167.125 211.029C166.794 211.029 166.525 211.253 166.525 211.531L166.521 211.533Z" fill="white"/>
<path d="M201.689 321.04C201.657 321.04 201.628 321.037 201.596 321.031L128.978 308.658C127.735 308.479 126.842 307.766 126.718 306.842C126.607 306.026 127.135 305.281 128.094 304.897L154.525 294.349C161.503 291.564 166.012 285.603 166.012 279.168V211.533C166.012 210.993 166.511 210.555 167.124 210.555C167.151 210.555 167.176 210.555 167.203 210.561L251.759 222.93C252.35 222.951 252.826 223.381 252.826 223.909V291.611C252.826 298.47 248.032 304.79 240.616 307.709L211.332 319.238C208.336 320.417 205 321.042 201.689 321.042V321.04ZM167.032 211.538V279.166C167.032 285.985 162.279 292.29 154.924 295.224L128.493 305.772C127.963 305.983 127.678 306.338 127.73 306.72C127.78 307.093 128.181 307.576 129.147 307.715L201.734 320.084C204.896 320.078 208.077 319.481 210.935 318.357L240.219 306.827C247.256 304.056 251.804 298.082 251.804 291.609V223.907C251.804 223.907 251.716 223.888 251.635 223.877L167.097 211.51C167.061 211.517 167.041 211.531 167.032 211.54V211.538Z" fill="black"/>
<path d="M392.97 281.546L383.488 289.822L40.1575 234.264C35.4162 233.496 31.981 229.615 32.0599 225.118L35.6892 20.1111L47.0664 14.4013C49.1551 13.3593 51.5573 13.007 53.885 13.4015L387.573 69.6986C392.58 70.5444 396.223 74.6195 396.223 79.3781L396.295 274.37C396.295 277.089 395.091 279.687 392.968 281.548L392.97 281.546Z" fill="black"/>
<path d="M375.85 290.902L39.3246 234.079C35.1405 233.373 32.0977 229.968 32.0977 225.992V28.1383C32.0977 23.0149 37.0554 19.1401 42.4463 20.0513L378.972 76.8736C383.156 77.5802 386.199 80.9846 386.199 84.9606V282.813C386.199 287.936 381.241 291.811 375.85 290.9V290.902Z" fill="white"/>
<path d="M377.418 291.509C376.865 291.509 376.31 291.463 375.758 291.37L39.2324 234.547C34.8024 233.799 31.5859 230.2 31.5859 225.99V28.1403C31.5859 25.5564 32.8017 23.1244 34.922 21.4686C37.0422 19.8128 39.8166 19.1252 42.5368 19.585L379.062 76.4073C383.492 77.1561 386.709 80.7546 386.709 84.9647V282.817C386.709 285.4 385.493 287.832 383.373 289.488C381.683 290.807 379.579 291.513 377.418 291.513V291.509ZM375.938 290.431C378.361 290.84 380.831 290.229 382.716 288.754C384.604 287.28 385.687 285.114 385.687 282.814V84.9626C385.687 81.2144 382.824 78.0104 378.879 77.3459L42.3541 20.5215C39.9339 20.1102 37.464 20.724 35.5761 22.1984C33.6881 23.6728 32.6055 25.8391 32.6055 28.1382V225.99C32.6055 229.738 35.4678 232.942 39.4128 233.607L375.938 290.429V290.431Z" fill="black"/>
<path d="M346.26 172.878C345.718 172.878 345.163 172.833 344.604 172.74L272.885 160.968C267.582 160.097 263.27 155.246 263.27 150.152V81.2203C263.27 78.6954 264.305 76.4933 266.186 75.0168C268.036 73.5656 270.478 72.9982 273.063 73.4222L344.782 85.1942C350.085 86.0653 354.398 90.9167 354.398 96.0106V164.942C354.398 167.467 353.362 169.669 351.483 171.146C350.035 172.283 348.222 172.878 346.262 172.878H346.26ZM344.78 171.8C347.06 172.175 349.21 171.684 350.825 170.416C352.469 169.123 353.376 167.18 353.376 164.942V96.0106C353.376 91.3596 349.44 86.928 344.604 86.1349L272.885 74.3629C270.602 73.9896 268.455 74.479 266.84 75.7466C265.196 77.0396 264.289 78.9823 264.289 81.2203V150.152C264.289 154.803 268.225 159.235 273.061 160.028L344.78 171.8Z" fill="black"/>
<path d="M323.792 155.277C322.658 155.277 321.498 155.182 320.325 154.99C309.077 153.142 299.926 142.954 299.926 132.275C299.926 123.222 306.936 117.164 313.685 115.917V93.5356C313.685 93.3943 313.753 93.2614 313.868 93.1707C313.983 93.08 314.136 93.0421 314.285 93.0653L326.219 95.0248C326.463 95.0649 326.641 95.2631 326.641 95.4952V117.976C334.978 121.825 340.772 130.349 340.772 138.814C340.772 144.03 338.625 148.592 334.723 151.655C331.691 154.037 327.895 155.279 323.792 155.279V155.277ZM314.707 94.1009V116.314C314.707 116.548 314.526 116.746 314.28 116.784C307.818 117.786 300.948 123.555 300.948 132.273C300.948 142.509 309.72 152.277 320.504 154.047C325.617 154.887 330.433 153.775 334.069 150.919C337.734 148.04 339.753 143.739 339.753 138.807C339.753 130.6 334.062 122.332 325.912 118.7C325.734 118.621 325.621 118.453 325.621 118.269V95.8896L314.707 94.0988V94.1009Z" fill="black"/>
<path d="M324.995 149.532C324.751 149.532 324.535 149.368 324.492 149.136C324.444 148.876 324.632 148.629 324.909 148.585C329.682 147.824 333.158 144.263 333.762 139.511C333.796 139.249 334.049 139.062 334.328 139.093C334.608 139.125 334.809 139.361 334.775 139.623C334.114 144.805 330.307 148.691 325.078 149.524C325.049 149.528 325.02 149.53 324.992 149.53L324.995 149.532Z" fill="black"/>
<path d="M300.111 124.787V106.595L291.042 105.105V123.298L273.195 147.604L318.754 155.081L300.111 124.787Z" fill="white"/>
<path d="M306.314 134.686L285.854 131.328L273.195 147.603L318.754 155.081L306.314 134.686Z" fill="#EBFF00"/>
<path d="M318.753 155.329C318.724 155.329 318.694 155.327 318.665 155.323L273.106 147.845C272.935 147.818 272.791 147.708 272.723 147.556C272.655 147.404 272.676 147.233 272.777 147.098L289.935 124.293C290.481 123.567 290.77 122.667 290.77 121.688V104.913C290.77 104.771 290.838 104.638 290.953 104.548C291.068 104.457 291.221 104.419 291.37 104.442L300.44 105.931C300.683 105.971 300.862 106.17 300.862 106.402V123.152C300.862 124.162 301.168 125.196 301.746 126.138L319.197 154.61C319.297 154.77 319.285 154.97 319.172 155.12C319.075 155.249 318.92 155.323 318.755 155.323L318.753 155.329ZM274.074 147.033L317.769 154.205L300.859 126.615C300.192 125.527 299.84 124.331 299.84 123.154V106.805L291.79 105.482V121.688C291.79 122.865 291.438 123.953 290.77 124.841L274.074 147.031V147.033Z" fill="black"/>
<path d="M294.524 97.8975C294.524 99.1293 293.487 99.9561 292.205 99.7473C290.924 99.5385 289.887 98.3678 289.887 97.136C289.887 95.9042 290.924 95.0773 292.205 95.2862C293.487 95.495 294.524 96.6656 294.524 97.8975Z" fill="black"/>
<path d="M244.642 156.417C244.101 156.417 243.546 156.37 242.987 156.28L171.268 144.508C165.965 143.636 161.652 138.785 161.652 133.691V64.7593C161.652 62.2345 162.688 60.0324 164.569 58.5559C166.418 57.1047 168.861 56.5373 171.446 56.9613L243.165 68.7332C248.468 69.6044 252.781 74.4558 252.781 79.5497V148.481C252.781 151.006 251.745 153.208 249.864 154.685C248.416 155.822 246.602 156.417 244.642 156.417ZM169.793 57.7797C168.07 57.7797 166.484 58.2965 165.223 59.2878C163.579 60.5808 162.672 62.5235 162.672 64.7615V133.693C162.672 138.344 166.608 142.776 171.444 143.569L243.163 155.341C245.448 155.716 247.593 155.225 249.208 153.957C250.852 152.666 251.759 150.722 251.759 148.484V79.5518C251.759 74.9008 247.823 70.4692 242.987 69.6761L171.268 57.9041C170.769 57.8219 170.275 57.7818 169.793 57.7818V57.7797Z" fill="black"/>
<path d="M221.582 97.4963C217.863 97.0238 211.791 97.2811 210.933 96.1948C210.076 95.1107 215.244 90.312 215.871 86.2284C216.496 82.1427 215.127 74.1506 202.243 73.4123C191.666 72.8049 169.311 80.3815 168.598 103.702C167.139 151.498 223.344 141.766 227.185 114.248C228.917 101.837 225.302 97.9709 221.58 97.4963H221.582ZM207.234 107.739C205.626 110.477 202.879 111.753 201.097 110.591C199.315 109.429 199.173 106.267 200.781 103.529C202.389 100.791 205.137 99.5149 206.918 100.677C208.7 101.839 208.843 105.001 207.234 107.739Z" fill="white"/>
<path d="M196.133 137.694C195.221 137.694 194.317 137.658 193.419 137.582C186.028 136.964 179.777 133.903 175.345 128.734C170.207 122.741 167.766 114.314 168.091 103.688C168.366 94.7043 171.953 87.0138 178.465 81.4474C185.949 75.052 195.812 72.5631 202.277 72.9343C207.623 73.2401 211.556 74.7989 213.968 77.5684C216.843 80.8695 216.611 84.7717 216.377 86.2967C216.025 88.6 214.34 91.0468 212.989 93.0148C212.247 94.0947 211.232 95.5734 211.353 95.9256C211.762 96.4403 214.91 96.5921 217.211 96.7039C218.255 96.7545 219.338 96.8073 220.328 96.8874C220.608 96.9106 220.818 97.1427 220.793 97.4042C220.768 97.6679 220.52 97.8661 220.24 97.8387C219.268 97.7586 218.197 97.708 217.159 97.6573C213.483 97.478 211.193 97.3262 210.526 96.4782C209.921 95.7126 210.753 94.5018 212.132 92.498C213.431 90.6081 215.048 88.2562 215.368 86.1596C215.583 84.759 215.799 81.1774 213.178 78.1696C210.954 75.6173 207.266 74.1767 202.216 73.8856C196.169 73.5375 186.379 75.978 179.155 82.1498C172.762 87.615 169.384 94.8688 169.113 103.713C168.524 122.998 177.646 135.302 193.512 136.631C207.596 137.808 224.258 129.248 226.617 114.627C226.66 114.367 226.917 114.192 227.199 114.226C227.479 114.266 227.67 114.508 227.627 114.77C226.52 121.621 222.142 127.784 215.296 132.123C209.619 135.722 202.769 137.694 196.135 137.694H196.133ZM202.586 111.496C201.936 111.496 201.332 111.323 200.806 110.98C198.785 109.661 198.578 106.286 200.335 103.298C201.393 101.496 202.978 100.214 204.578 99.8637C205.552 99.6506 206.463 99.7962 207.212 100.286C209.233 101.604 209.441 104.977 207.684 107.968C206.626 109.767 205.04 111.051 203.441 111.402C203.15 111.465 202.863 111.496 202.586 111.496ZM205.423 100.724C205.225 100.724 205.02 100.747 204.808 100.794C203.486 101.083 202.148 102.19 201.228 103.757C199.771 106.24 199.843 109.189 201.388 110.197C201.891 110.526 202.52 110.621 203.206 110.471C204.528 110.182 205.866 109.075 206.786 107.508C208.243 105.025 208.171 102.076 206.626 101.068C206.276 100.84 205.868 100.724 205.423 100.724Z" fill="black"/>
<path d="M209.233 89.5875C211.004 88.2402 211.049 85.5479 209.332 83.574C207.615 81.6002 204.788 81.0922 203.016 82.4395C201.245 83.7867 201.2 86.479 202.917 88.4529C204.633 90.4268 207.461 90.9347 209.233 89.5875Z" fill="#EBFF00"/>
<path d="M195.248 88.6675C197.02 87.3203 197.064 84.628 195.348 82.6541C193.631 80.6802 190.803 80.1723 189.032 81.5195C187.26 82.8668 187.216 85.5591 188.932 87.533C190.649 89.5069 193.477 90.0148 195.248 88.6675Z" fill="#EBFF00"/>
<path d="M184.279 96.5171C186.051 95.1699 186.096 92.4775 184.379 90.5037C182.662 88.5298 179.835 88.0219 178.063 89.3691C176.292 90.7164 176.247 93.4087 177.964 95.3826C179.68 97.3565 182.508 97.8644 184.279 96.5171Z" fill="#EBFF00"/>
<path d="M180.791 108.927C182.563 107.58 182.607 104.888 180.891 102.914C179.174 100.94 176.346 100.432 174.575 101.779C172.803 103.127 172.759 105.819 174.475 107.793C176.192 109.767 179.02 110.275 180.791 108.927Z" fill="#EBFF00"/>
<path d="M223.227 102.414L227.625 108.436L192.483 126.77L185.852 128.093C185.852 128.093 189.783 123.372 190.04 123.205L223.227 102.414Z" fill="white"/>
<path d="M223.227 102.416L227.625 108.44L219.843 112.501L215.812 107.063L223.227 102.416Z" fill="white"/>
<path d="M219.842 112.978C219.679 112.978 219.519 112.906 219.422 112.773L215.392 107.335C215.315 107.23 215.283 107.101 215.31 106.975C215.335 106.85 215.414 106.738 215.527 106.667L222.941 102.022C223.173 101.876 223.489 101.933 223.647 102.151L228.045 108.173C228.127 108.282 228.154 108.422 228.12 108.55C228.086 108.681 227.996 108.793 227.872 108.858L220.09 112.919C220.011 112.959 219.925 112.98 219.842 112.98V112.978ZM216.526 107.19L219.997 111.872L226.888 108.278L223.092 103.077L216.528 107.188L216.526 107.19Z" fill="black"/>
<path d="M228.223 94.969C224.282 97.3778 222.902 99.9722 223.159 102.423V102.425L227.623 108.481C227.623 108.481 227.632 108.485 227.636 108.487C230.061 109.658 233.262 109.491 237.243 107.057C243.155 103.446 246.944 92.3281 246.944 92.3281C246.944 92.3281 234.132 91.3557 228.22 94.9669L228.223 94.969Z" fill="#EBFF00"/>
<path d="M223.223 102.416L227.621 108.438L192.479 126.772L185.848 128.095C185.848 128.095 189.779 123.374 190.036 123.207L223.223 102.416Z" fill="white"/>
<path d="M185.846 128.574C185.673 128.574 185.508 128.491 185.413 128.35C185.3 128.181 185.312 127.962 185.443 127.804C188.084 124.634 189.53 122.957 189.744 122.817L222.94 102.022C223.172 101.876 223.488 101.933 223.646 102.151L228.044 108.173C228.125 108.282 228.152 108.422 228.118 108.55C228.085 108.681 227.994 108.793 227.87 108.858L192.728 127.192C192.683 127.215 192.636 127.232 192.586 127.243L185.955 128.563C185.918 128.57 185.882 128.574 185.849 128.574H185.846ZM190.348 123.587C190.076 123.845 188.467 125.741 187.112 127.357L192.295 126.323L226.882 108.278L223.086 103.077L190.348 123.585V123.587Z" fill="black"/>
<path d="M139.316 236.549C138.775 236.549 138.22 236.504 137.66 236.412L65.9437 224.64C60.6408 223.768 56.3281 218.917 56.3281 213.823V144.891C56.3281 142.366 57.3634 140.164 59.2446 138.688C61.0942 137.237 63.537 136.671 66.1219 137.093L137.838 148.865C143.141 149.736 147.454 154.588 147.454 159.682V228.613C147.454 231.138 146.419 233.34 144.54 234.817C143.092 235.954 141.278 236.549 139.318 236.549H139.316ZM137.836 235.471C140.119 235.846 142.266 235.355 143.881 234.085C145.526 232.794 146.432 230.849 146.432 228.611V159.68C146.432 155.029 142.496 150.597 137.66 149.804L65.9437 138.032C63.6611 137.656 61.5137 138.148 59.8987 139.416C58.2544 140.706 57.3477 142.651 57.3477 144.889V213.821C57.3477 218.472 61.2837 222.904 66.1197 223.697L137.836 235.469V235.471Z" fill="black"/>
<path d="M92.7497 162.783L92.1565 208.393C92.1362 209.924 93.4895 211.443 95.1068 211.708L108.031 213.83C109.509 214.073 110.673 213.174 110.691 211.776L111.284 166.167C111.304 164.635 109.951 163.117 108.334 162.851L95.4068 160.729C93.9294 160.486 92.7655 161.385 92.7474 162.783H92.7497Z" fill="white"/>
<path d="M74.9254 176.876L74.8126 188.837C74.7991 190.365 76.1479 191.879 77.7629 192.145L125.872 200.042C127.354 200.285 128.518 199.382 128.532 197.979L128.645 186.017C128.658 184.49 127.309 182.976 125.694 182.71L77.5847 174.813C76.1028 174.57 74.9389 175.473 74.9254 176.876Z" fill="black"/>
<path d="M108.081 224.873C105.938 224.873 103.75 224.694 101.533 224.329C80.3886 220.859 63.1875 201.504 63.1875 181.183C63.1875 171.219 67.2566 162.537 74.6436 156.734C81.9044 151.033 91.5177 148.814 101.711 150.487C122.855 153.959 140.056 173.311 140.056 193.632C140.056 203.597 135.987 212.281 128.6 218.081C122.918 222.544 115.795 224.873 108.081 224.873ZM95.1673 150.9C87.69 150.9 80.7947 153.153 75.3 157.468C68.1476 163.086 64.2093 171.508 64.2093 181.185C64.2093 201.063 81.0315 219.996 101.711 223.39C111.602 225.014 120.919 222.869 127.943 217.351C135.096 211.734 139.034 203.312 139.034 193.634C139.034 173.756 122.212 154.823 101.533 151.43C99.3785 151.075 97.2492 150.9 95.1673 150.9Z" fill="black"/>
<path d="M346.605 270.546C346.064 270.546 345.509 270.501 344.949 270.408L273.233 258.636C267.93 257.765 263.617 252.914 263.617 247.82V178.888C263.617 176.363 264.653 174.161 266.534 172.685C268.383 171.234 270.826 170.666 273.411 171.09L345.128 182.862C350.43 183.733 354.743 188.585 354.743 193.679V262.61C354.743 265.135 353.708 267.337 351.827 268.814C350.379 269.951 348.565 270.546 346.605 270.546ZM345.125 269.468C347.408 269.843 349.555 269.352 351.17 268.084C352.815 266.791 353.721 264.848 353.721 262.61V193.679C353.721 189.028 349.785 184.596 344.949 183.803L273.233 172.031C270.95 171.655 268.803 172.147 267.188 173.415C265.543 174.708 264.637 176.65 264.637 178.888V247.82C264.637 252.471 268.573 256.903 273.409 257.696L345.125 269.468Z" fill="black"/>
<path d="M344.817 208.445C344.702 208.445 344.585 208.409 344.488 208.333L329.534 196.53C329.317 196.359 329.29 196.059 329.473 195.857C329.655 195.657 329.976 195.629 330.192 195.8L345.147 207.604C345.363 207.774 345.39 208.074 345.208 208.277C345.106 208.388 344.962 208.445 344.817 208.445Z" fill="black"/>
<path d="M342.893 210.973C342.778 210.973 342.661 210.937 342.564 210.861L327.977 199.346C327.763 199.177 327.736 198.876 327.916 198.673C328.097 198.473 328.419 198.446 328.636 198.616L343.223 210.131C343.437 210.3 343.464 210.601 343.284 210.804C343.182 210.916 343.04 210.973 342.893 210.973Z" fill="black"/>
<path d="M340.967 213.502C340.852 213.502 340.734 213.466 340.637 213.39L326.188 201.983C325.974 201.814 325.947 201.513 326.127 201.31C326.308 201.11 326.63 201.082 326.847 201.253L341.296 212.66C341.51 212.829 341.537 213.131 341.357 213.333C341.255 213.445 341.113 213.502 340.967 213.502Z" fill="black"/>
<path d="M339.041 216.031C338.926 216.031 338.809 215.995 338.712 215.919L324.465 204.674C324.251 204.506 324.224 204.204 324.405 204.002C324.585 203.801 324.908 203.774 325.124 203.945L339.37 215.189C339.585 215.358 339.612 215.66 339.431 215.862C339.33 215.974 339.188 216.031 339.041 216.031Z" fill="black"/>
<path d="M337.117 218.558C337.002 218.558 336.885 218.522 336.788 218.446L322.118 206.866C321.904 206.697 321.876 206.395 322.057 206.193C322.237 205.993 322.558 205.965 322.776 206.136L337.447 217.716C337.661 217.885 337.688 218.186 337.508 218.389C337.406 218.501 337.264 218.558 337.117 218.558Z" fill="black"/>
<path d="M335.19 221.085C335.075 221.085 334.958 221.049 334.861 220.973L319.954 209.206C319.739 209.037 319.712 208.735 319.893 208.533C320.073 208.332 320.394 208.305 320.612 208.476L335.52 220.244C335.734 220.412 335.761 220.714 335.58 220.916C335.479 221.028 335.337 221.085 335.19 221.085Z" fill="black"/>
<path d="M333.268 223.614C333.153 223.614 333.035 223.578 332.938 223.502L318.473 212.085C318.259 211.916 318.232 211.614 318.412 211.412C318.593 211.211 318.913 211.184 319.132 211.355L333.597 222.772C333.811 222.941 333.838 223.243 333.658 223.445C333.556 223.557 333.414 223.614 333.268 223.614Z" fill="black"/>
<path d="M331.343 226.144C331.228 226.144 331.111 226.108 331.014 226.032L316.54 214.608C316.325 214.437 316.298 214.138 316.479 213.935C316.659 213.735 316.982 213.707 317.198 213.878L331.672 225.302C331.887 225.473 331.914 225.772 331.733 225.975C331.632 226.087 331.49 226.144 331.343 226.144Z" fill="black"/>
<path d="M347.539 204.392L348.385 203.281C348.825 202.703 348.633 201.8 347.956 201.266L333.392 189.77C331.874 188.572 329.844 188.653 328.858 189.95L285.616 246.745C284.68 247.972 285.089 249.89 286.525 251.024C287.962 252.159 289.886 252.083 290.822 250.856L312.571 222.292C313.024 221.697 313.956 221.661 314.653 222.209L325.495 230.769C326.172 231.303 327.079 231.267 327.518 230.689L328.364 229.577C328.804 228.999 328.612 228.096 327.936 227.563L317.535 219.353C316.595 218.611 316.328 217.358 316.94 216.552L332.255 196.436C332.891 195.598 334.204 195.548 335.183 196.32L345.514 204.474C346.19 205.008 347.097 204.972 347.537 204.394L347.539 204.392Z" fill="black"/>
<path d="M288.745 252.306C287.859 252.306 286.95 251.983 286.198 251.391C284.565 250.1 284.117 247.893 285.201 246.47L328.441 189.675C328.951 189.006 329.725 188.578 330.616 188.472C331.676 188.348 332.808 188.688 333.719 189.409L348.284 200.905C349.172 201.607 349.398 202.774 348.798 203.56L347.952 204.672C347.677 205.033 347.264 205.26 346.786 205.317C346.235 205.381 345.651 205.208 345.184 204.841L334.854 196.686C334.443 196.363 333.949 196.207 333.496 196.262C333.255 196.29 332.916 196.393 332.67 196.716L317.355 216.832C316.902 217.427 317.136 218.416 317.865 218.992L328.265 227.201C329.154 227.902 329.379 229.07 328.779 229.857L327.934 230.968C327.658 231.329 327.246 231.557 326.767 231.614C326.213 231.677 325.631 231.504 325.166 231.135L314.323 222.576C314.064 222.371 313.753 222.274 313.473 222.306C313.331 222.322 313.132 222.382 312.988 222.571L291.24 251.135C290.752 251.777 290.013 252.184 289.16 252.285C289.022 252.302 288.883 252.308 288.743 252.308L288.745 252.306ZM331.055 189.401C330.952 189.401 330.848 189.407 330.746 189.42C330.131 189.491 329.623 189.772 329.276 190.227L286.036 247.022C285.253 248.052 285.621 249.684 286.859 250.661C287.511 251.176 288.303 251.42 289.036 251.336C289.611 251.268 290.087 251.007 290.412 250.579L312.16 222.015C312.44 221.647 312.862 221.413 313.349 221.356C313.911 221.289 314.511 221.468 314.987 221.844L325.829 230.403C326.08 230.601 326.38 230.692 326.646 230.665C326.781 230.648 326.97 230.593 327.108 230.412L327.954 229.3C328.238 228.927 328.082 228.298 327.611 227.927L317.211 219.717C316.074 218.819 315.767 217.275 316.529 216.275L331.845 196.159C332.203 195.686 332.747 195.387 333.374 195.313C334.109 195.229 334.89 195.461 335.517 195.956L345.848 204.111C346.096 204.307 346.398 204.404 346.664 204.37C346.799 204.353 346.989 204.299 347.126 204.119L347.972 203.008C348.256 202.634 348.101 202.006 347.629 201.635L333.065 190.139C332.463 189.662 331.746 189.403 331.058 189.403L331.055 189.401Z" fill="black"/>
<path d="M324.043 258.826C323.648 258.826 323.244 258.792 322.836 258.727C318.99 258.096 315.859 254.576 315.859 250.88C315.859 249.039 316.615 247.432 317.991 246.352C319.342 245.291 321.126 244.877 323.014 245.185C326.862 245.816 329.991 249.336 329.991 253.032C329.991 254.873 329.235 256.481 327.859 257.56C326.799 258.392 325.475 258.826 324.043 258.826ZM321.81 246.042C320.616 246.042 319.518 246.398 318.645 247.084C317.506 247.978 316.879 249.326 316.879 250.88C316.879 254.133 319.631 257.231 323.012 257.786C324.595 258.048 326.084 257.706 327.2 256.829C328.34 255.934 328.967 254.586 328.967 253.032C328.967 249.779 326.215 246.681 322.834 246.126C322.486 246.069 322.143 246.042 321.81 246.042Z" fill="black"/>
<path d="M321.335 245.583C317.42 236.926 283.985 181.275 284.386 182.203C295.256 207.363 315.545 241.449 318.59 246.524C319.364 245.992 320.302 245.663 321.337 245.585L321.335 245.583Z" fill="white"/>
<path d="M318.588 246.998C318.552 246.998 318.516 246.993 318.48 246.987C318.338 246.958 318.214 246.873 318.144 246.755C314.314 240.37 294.661 207.254 283.913 182.379C283.807 182.137 283.929 181.848 284.188 181.749C284.425 181.656 284.536 181.616 284.847 182.027L284.861 182.023C284.867 182.04 284.874 182.055 284.881 182.071C285.147 182.434 285.558 183.107 286.291 184.311C287.211 185.824 288.524 187.996 290.107 190.633C293.761 196.712 298.058 203.924 301.895 210.416C308.398 221.416 319.628 240.585 321.805 245.397C321.868 245.538 321.857 245.698 321.771 245.829C321.685 245.96 321.539 246.044 321.376 246.057C320.458 246.126 319.599 246.42 318.891 246.905C318.803 246.966 318.697 246.998 318.588 246.998ZM288.273 189.583C299.044 212.555 314.815 239.237 318.767 245.84C319.326 245.532 319.946 245.314 320.598 245.194C316.705 237.105 297.086 204.234 288.273 189.583Z" fill="black"/>
<path d="M329.844 237.219L329.862 237.19C329.862 237.19 295.211 209.537 268.945 193.755C268.027 193.203 322.466 236.207 328.499 239.472C328.752 238.588 329.217 237.825 329.844 237.219Z" fill="white"/>
<path d="M328.5 239.949C328.412 239.949 328.324 239.928 328.245 239.886C325.049 238.156 309.025 225.848 296.146 215.827C287.669 209.231 280.555 203.629 277.068 200.874C271.237 196.27 269.338 194.768 268.72 194.188C268.702 194.177 268.686 194.169 268.668 194.158L268.675 194.148C268.418 193.901 268.42 193.838 268.422 193.745C268.425 193.572 268.528 193.414 268.693 193.331C268.858 193.249 269.065 193.264 269.221 193.355C295.214 208.972 329.844 236.551 330.192 236.827C330.372 236.971 330.424 237.213 330.311 237.411C330.289 237.452 330.244 237.519 330.21 237.553C329.637 238.105 329.217 238.812 328.992 239.597C328.951 239.74 328.841 239.858 328.694 239.913C328.631 239.936 328.565 239.949 328.498 239.949H328.5ZM275.848 198.624C289.821 209.67 321.848 234.809 328.218 238.742C328.446 238.194 328.757 237.688 329.141 237.243C325.62 234.452 298.995 213.475 275.848 198.624Z" fill="black"/>
<path d="M335.957 248.986C335.562 248.986 335.158 248.952 334.75 248.887C330.902 248.256 327.773 244.736 327.773 241.041C327.773 239.199 328.529 237.592 329.905 236.512C331.258 235.451 333.042 235.037 334.928 235.345C338.774 235.976 341.905 239.497 341.905 243.192C341.905 245.033 341.149 246.641 339.773 247.721C338.713 248.552 337.389 248.986 335.957 248.986ZM333.724 236.202C332.53 236.202 331.432 236.558 330.559 237.244C329.42 238.138 328.793 239.486 328.793 241.041C328.793 244.293 331.545 247.392 334.926 247.946C336.512 248.208 337.998 247.866 339.115 246.989C340.254 246.094 340.881 244.747 340.881 243.192C340.881 239.939 338.129 236.841 334.748 236.286C334.4 236.229 334.058 236.202 333.721 236.202H333.724Z" fill="black"/>
<path d="M335.957 248.986C335.562 248.986 335.158 248.952 334.75 248.887C330.902 248.256 327.773 244.736 327.773 241.041C327.773 239.199 328.529 237.592 329.905 236.512C331.258 235.451 333.042 235.037 334.928 235.345C338.774 235.976 341.905 239.497 341.905 243.192C341.905 245.033 341.149 246.641 339.773 247.721C338.713 248.552 337.389 248.986 335.957 248.986ZM333.724 236.202C332.53 236.202 331.432 236.558 330.559 237.244C329.42 238.138 328.793 239.486 328.793 241.041C328.793 244.293 331.545 247.392 334.926 247.946C336.512 248.208 337.998 247.866 339.115 246.989C340.254 246.094 340.881 244.747 340.881 243.192C340.881 239.939 338.129 236.841 334.748 236.286C334.4 236.229 334.058 236.202 333.721 236.202H333.724Z" fill="black"/>
<path d="M343.827 242.49C343.051 242.49 342.119 242.357 341.014 242.005C340.748 241.921 340.603 241.649 340.696 241.4C340.786 241.151 341.077 241.016 341.343 241.102C344.955 242.252 346.231 240.767 346.285 240.704C346.457 240.497 346.775 240.453 346.998 240.611C347.221 240.767 347.271 241.06 347.106 241.271C347.054 241.336 346.121 242.49 343.829 242.49H343.827Z" fill="black"/>
<path d="M243.142 253.204C242.601 253.204 242.046 253.157 241.487 253.067L169.768 241.295C164.465 240.424 160.152 235.572 160.152 230.478V161.546C160.152 159.022 161.188 156.82 163.067 155.343C164.916 153.892 167.359 153.324 169.944 153.748L241.663 165.52C246.966 166.391 251.278 171.243 251.278 176.337V245.269C251.278 247.793 250.243 249.995 248.362 251.472C246.914 252.609 245.1 253.204 243.14 253.204H243.142ZM168.293 154.567C166.569 154.567 164.984 155.084 163.723 156.075C162.079 157.368 161.172 159.311 161.172 161.549V230.48C161.172 235.131 165.108 239.563 169.944 240.356L241.663 252.128C243.948 252.503 246.093 252.012 247.708 250.744C249.352 249.453 250.259 247.509 250.259 245.271V176.339C250.259 171.688 246.323 167.256 241.487 166.463L169.768 154.691C169.269 154.609 168.775 154.569 168.293 154.569V154.567Z" fill="black"/>
<path d="M180.13 236.122L173.415 235.019C172.558 234.877 171.863 234.095 171.863 233.272V224.272C171.863 223.447 172.558 222.892 173.415 223.034L180.13 224.137C180.987 224.278 181.682 225.061 181.682 225.883V234.884C181.682 235.708 180.987 236.263 180.13 236.122Z" fill="black"/>
<path d="M194.657 238.507L187.942 237.403C187.085 237.262 186.391 236.479 186.391 235.657V217.662C186.391 216.838 187.085 216.283 187.942 216.424L194.657 217.527C195.515 217.669 196.209 218.451 196.209 219.274V237.268C196.209 238.093 195.515 238.648 194.657 238.507Z" fill="black"/>
<path d="M209.513 240.945L202.798 239.842C201.941 239.7 201.246 238.918 201.246 238.095V212.545C201.246 211.721 201.941 211.166 202.798 211.307L209.513 212.41C210.37 212.552 211.065 213.334 211.065 214.157V239.707C211.065 240.531 210.37 241.086 209.513 240.945Z" fill="black"/>
<path d="M224.368 243.383L217.653 242.28C216.796 242.139 216.102 241.356 216.102 240.534V207.373C216.102 206.549 216.796 205.994 217.653 206.135L224.368 207.238C225.225 207.38 225.92 208.162 225.92 208.985V242.145C225.92 242.97 225.225 243.525 224.368 243.383Z" fill="black"/>
<path d="M239.915 245.936L233.2 244.833C232.343 244.691 231.648 243.909 231.648 243.086V195.762C231.648 194.937 232.343 194.383 233.2 194.524L239.915 195.627C240.772 195.768 241.467 196.551 241.467 197.374V244.698C241.467 245.522 240.772 246.077 239.915 245.936Z" fill="black"/>
<path d="M172.987 209.617L172.98 213.81C190.466 214.015 221.435 198.82 232.054 180.281L236.351 184.105L235.616 168.359L223.776 173.278L227.915 176.807C215.275 193.011 201.85 204.249 172.987 209.619V209.617Z" fill="black"/>
<path d="M141.502 140.431C140.958 140.431 140.405 140.385 139.846 140.294L68.1273 128.522C62.8244 127.651 58.5117 122.8 58.5117 117.706V48.7741C58.5117 46.2493 59.547 44.0472 61.4259 42.5707C63.2755 41.1195 65.7183 40.5542 68.3032 40.9761L140.022 52.748C145.325 53.6192 149.638 58.4705 149.638 63.5645V132.496C149.638 135.021 148.602 137.223 146.721 138.7C145.273 139.837 143.46 140.431 141.502 140.431ZM66.6521 41.7945C64.9289 41.7945 63.3432 42.3112 62.0823 43.3026C60.438 44.5935 59.5312 46.5383 59.5312 48.7762V117.708C59.5312 122.359 63.4672 126.791 68.3032 127.584L140.022 139.356C142.305 139.731 144.452 139.24 146.067 137.972C147.711 136.681 148.618 134.736 148.618 132.498V63.5666C148.618 58.9156 144.682 54.484 139.846 53.6909L68.1273 41.9189C67.6288 41.8366 67.1348 41.7966 66.6521 41.7966V41.7945Z" fill="black"/>
<path d="M125.94 126.707C125.911 126.707 125.882 126.705 125.852 126.701L74.5038 118.274C74.2602 118.234 74.082 118.036 74.082 117.804V52.3188C74.082 52.1775 74.1497 52.0446 74.2647 51.9539C74.3798 51.8632 74.5331 51.8253 74.682 51.8485L126.031 60.2772C126.274 60.3173 126.452 60.5155 126.452 60.7476V126.231C126.452 126.372 126.385 126.505 126.27 126.596C126.177 126.667 126.06 126.707 125.943 126.707H125.94ZM75.1038 117.401L125.431 125.661V61.1462L75.1038 52.8862V117.401Z" fill="black"/>
<path d="M111.172 65.4117C111.142 65.4117 111.113 65.4096 111.084 65.4054L89.606 61.8807C89.3286 61.8343 89.1436 61.5875 89.191 61.3281C89.2406 61.0687 89.5023 60.8978 89.782 60.94L111.26 64.4646C111.537 64.511 111.722 64.7578 111.675 65.0173C111.632 65.2493 111.415 65.4117 111.172 65.4117Z" fill="black"/>
<path d="M120.404 73.864C120.375 73.864 120.343 73.8619 120.314 73.8556L80.5458 67.167C80.2684 67.1206 80.0834 66.8717 80.133 66.6123C80.1827 66.3528 80.4466 66.1799 80.7263 66.2263L120.495 72.9149C120.772 72.9613 120.957 73.2102 120.907 73.4696C120.862 73.7016 120.648 73.8619 120.407 73.8619L120.404 73.864Z" fill="black"/>
<path d="M120.404 80.6355C120.375 80.6355 120.343 80.6334 120.314 80.6271L80.5458 73.9385C80.2684 73.8921 80.0834 73.6432 80.133 73.3838C80.1827 73.1243 80.4466 72.9514 80.7263 72.9978L120.495 79.6863C120.772 79.7327 120.957 79.9816 120.907 80.2411C120.862 80.4731 120.648 80.6334 120.407 80.6334L120.404 80.6355Z" fill="black"/>
<path d="M120.404 87.0867C120.375 87.0867 120.343 87.0846 120.314 87.0783L80.5458 80.3897C80.2684 80.3433 80.0834 80.0944 80.133 79.8349C80.1827 79.5755 80.4466 79.4025 80.7263 79.4489L120.495 86.1375C120.772 86.1839 120.957 86.4328 120.907 86.6923C120.862 86.9243 120.648 87.0846 120.407 87.0846L120.404 87.0867Z" fill="black"/>
<path d="M121.075 114.294C121.045 114.294 121.014 114.292 120.984 114.285L81.2138 107.597C80.9364 107.55 80.7514 107.301 80.801 107.042C80.8506 106.783 81.1145 106.61 81.3942 106.656L121.165 113.345C121.442 113.391 121.627 113.64 121.578 113.899C121.533 114.131 121.318 114.292 121.077 114.292L121.075 114.294Z" fill="black"/>
<path d="M121.075 103.969C121.045 103.969 121.014 103.967 120.984 103.961L81.2138 97.2725C80.9364 97.2261 80.7514 96.9772 80.801 96.7177C80.8506 96.4583 81.1145 96.2853 81.3942 96.3317L121.165 103.02C121.442 103.067 121.627 103.316 121.578 103.575C121.533 103.807 121.318 103.967 121.077 103.967L121.075 103.969Z" fill="white"/>
<path d="M137.546 130.279L102 124.445V78.0469L137.546 83.8812V130.279Z" fill="white"/>
<path d="M137.546 130.754C137.517 130.754 137.488 130.752 137.458 130.748L101.91 124.914C101.666 124.874 101.488 124.675 101.488 124.443V78.0474C101.488 77.906 101.556 77.7731 101.671 77.6824C101.786 77.5917 101.939 77.5538 102.088 77.577L137.636 83.4113C137.88 83.4514 138.058 83.6496 138.058 83.8817V130.278C138.058 130.419 137.991 130.552 137.875 130.643C137.783 130.714 137.666 130.754 137.548 130.754H137.546ZM102.51 124.043L137.036 129.71V84.2824L102.51 78.6148V124.043Z" fill="black"/>
<path d="M131.921 96.3003C131.892 96.3003 131.862 96.2982 131.833 96.294L107.531 92.3053C107.288 92.2653 107.109 92.067 107.109 91.835V84.6528C107.109 84.5115 107.177 84.3786 107.292 84.2879C107.407 84.1972 107.561 84.1592 107.709 84.1824L132.011 88.1711C132.255 88.2112 132.433 88.4095 132.433 88.6415V95.8236C132.433 95.965 132.365 96.0979 132.25 96.1886C132.158 96.2603 132.04 96.3003 131.923 96.3003H131.921ZM108.129 91.4342L131.409 95.2562V89.0423L108.129 85.2202V91.4342Z" fill="black"/>
<path d="M116.007 107.393C115.978 107.393 115.949 107.391 115.919 107.387L107.957 106.079C107.713 106.039 107.535 105.84 107.535 105.608V98.4262C107.535 98.2849 107.603 98.152 107.718 98.0613C107.833 97.9706 107.986 97.9327 108.135 97.9559L116.097 99.2636C116.341 99.3037 116.519 99.502 116.519 99.734V106.916C116.519 107.057 116.452 107.19 116.336 107.281C116.244 107.353 116.127 107.393 116.009 107.393H116.007ZM108.557 105.208L115.497 106.347V100.133L108.557 98.9936V105.208Z" fill="black"/>
<path d="M130.849 109.828C130.819 109.828 130.79 109.826 130.761 109.822L122.801 108.514C122.557 108.474 122.379 108.276 122.379 108.044V100.862C122.379 100.72 122.447 100.588 122.562 100.497C122.677 100.406 122.83 100.368 122.979 100.391L130.939 101.699C131.182 101.739 131.361 101.938 131.361 102.17V109.352C131.361 109.493 131.293 109.626 131.178 109.717C131.085 109.788 130.968 109.828 130.851 109.828H130.849ZM123.398 107.643L130.339 108.782V102.568L123.398 101.429V107.643Z" fill="black"/>
<path d="M116.007 121.25C115.978 121.25 115.949 121.248 115.919 121.244L107.957 119.936C107.713 119.896 107.535 119.698 107.535 119.466V112.284C107.535 112.142 107.603 112.009 107.718 111.919C107.833 111.828 107.986 111.79 108.135 111.813L116.097 113.121C116.341 113.161 116.519 113.359 116.519 113.591V120.774C116.519 120.915 116.452 121.048 116.336 121.138C116.244 121.21 116.127 121.25 116.009 121.25H116.007ZM108.557 119.065L115.497 120.204V113.99L108.557 112.851V119.065Z" fill="black"/>
<path d="M130.849 123.686C130.819 123.686 130.79 123.684 130.761 123.679L122.801 122.372C122.557 122.332 122.379 122.133 122.379 121.901V114.719C122.379 114.578 122.447 114.445 122.562 114.354C122.677 114.264 122.83 114.226 122.979 114.249L130.939 115.555C131.182 115.595 131.361 115.793 131.361 116.025V123.207C131.361 123.348 131.293 123.481 131.178 123.572C131.085 123.644 130.968 123.684 130.851 123.684L130.849 123.686ZM123.398 121.501L130.339 122.64V116.426L123.398 115.287V121.501Z" fill="black"/>
<path d="M80.3677 351.973C80.3677 351.973 76.9347 366.635 80.7309 370.824L81.9083 372.619L78.2362 374.085C73.5716 375.947 68.165 375.116 64.3981 371.958L63.8906 371.532L64.7816 369.68C66.3695 366.383 69.0988 356.153 68.8349 352.669L80.3655 351.971L80.3677 351.973Z" fill="white"/>
<path d="M73.1184 375.54C69.8297 375.54 66.5817 374.431 64.0599 372.317L63.5524 371.891C63.3877 371.752 63.3359 371.53 63.4283 371.341L64.3193 369.489C65.8644 366.276 68.5824 356.069 68.3297 352.705C68.3207 352.578 68.3658 352.454 68.4538 352.357C68.544 352.262 68.6703 352.203 68.8057 352.194L80.3363 351.496C80.4964 351.492 80.652 351.547 80.7558 351.661C80.8596 351.775 80.9024 351.927 80.8686 352.074C80.8347 352.22 77.5326 366.555 81.1235 370.516C81.1415 370.535 81.155 370.554 81.1686 370.575L82.346 372.37C82.4227 372.488 82.443 372.631 82.3979 372.764C82.3528 372.897 82.249 373.005 82.1114 373.058L78.4393 374.524C76.7296 375.205 74.9183 375.538 73.1206 375.538L73.1184 375.54ZM64.511 371.414L64.7411 371.606C68.35 374.631 73.5695 375.433 78.0378 373.648L81.1663 372.399L80.3182 371.106C76.8514 367.211 79.1182 355.375 79.734 352.492L69.3673 353.118C69.3899 357.04 66.805 366.649 65.2509 369.879L64.511 371.414Z" fill="black"/>
<path d="M81.7045 365.8L83.7728 367.517C87.8961 370.941 92.8381 373.366 98.177 374.588L99.1943 374.82C99.5823 374.908 99.8981 375.172 100.038 375.524L100.11 375.704C100.904 377.697 99.0048 382.664 91.2727 385.179C89.2652 385.83 83.8946 385.343 75.9144 385.339C72.452 385.337 68.8837 385.328 66.8153 385.324C64.7853 385.32 62.7733 384.807 61.0906 383.736C59.2094 382.538 57.5065 380.528 58.2147 377.281C58.9094 374.096 61.6522 367.861 63.1342 365.514C63.4206 365.06 64.0454 364.957 64.4965 365.271L66.0326 368.794C67.0724 371.177 69.6799 372.71 72.3798 372.322C72.549 372.297 72.7204 372.268 72.8941 372.23C74.6287 371.858 76.1219 370.825 77.1685 369.468L79.8549 365.992C80.2925 365.427 81.1496 365.339 81.7045 365.8Z" fill="white"/>
<path d="M87.2994 385.997C86.1062 385.997 84.7055 385.963 83.0928 385.925C80.9928 385.875 78.6132 385.82 75.911 385.818C72.4486 385.816 68.8803 385.807 66.8119 385.803C64.5879 385.797 62.5082 385.219 60.8008 384.133C58.1549 382.449 57.088 380.047 57.7128 377.187C58.4053 374.012 61.1052 367.786 62.6932 365.273C62.903 364.942 63.2368 364.717 63.636 364.641C64.0375 364.567 64.4616 364.655 64.7977 364.889C64.8721 364.942 64.9307 365.012 64.9668 365.092L66.5029 368.615C67.4705 370.836 69.9088 372.196 72.302 371.852C72.4577 371.829 72.6178 371.802 72.7779 371.766C74.314 371.437 75.726 370.523 76.7546 369.19L79.441 365.714C79.7342 365.335 80.1853 365.088 80.6815 365.037C81.1778 364.987 81.6717 365.134 82.0462 365.444L84.1145 367.161C88.1588 370.519 93.0647 372.928 98.3 374.124L99.3172 374.356C99.8699 374.483 100.319 374.858 100.517 375.358L100.589 375.537C100.971 376.495 100.79 377.876 100.109 379.231C99.3037 380.829 97.1068 383.787 91.4407 385.628C90.5723 385.911 89.1987 385.995 87.3017 385.995L87.2994 385.997ZM63.9225 365.569C63.8954 365.569 63.8684 365.571 63.8413 365.577C63.7623 365.592 63.6518 365.636 63.5751 365.759C62.0594 368.159 59.3797 374.341 58.7166 377.379C58.173 379.865 59.0685 381.874 61.3782 383.344C62.9165 384.322 64.7977 384.843 66.8164 384.85C68.8848 384.854 72.4531 384.862 75.9132 384.865C78.629 384.865 81.0154 384.924 83.1198 384.972C87.0355 385.065 89.8663 385.132 91.1046 384.73C96.4188 383.002 98.4466 380.289 99.1842 378.828C99.8541 377.499 99.8541 376.429 99.633 375.873L99.5608 375.693C99.4796 375.489 99.2969 375.337 99.0736 375.284L98.0564 375.052C92.6587 373.818 87.6039 371.338 83.4356 367.876L81.3672 366.159C81.2071 366.026 81.0041 365.967 80.7921 365.986C80.58 366.007 80.3951 366.111 80.2688 366.273L77.5823 369.749C76.4072 371.268 74.7832 372.314 73.008 372.696C72.8231 372.736 72.6404 372.768 72.4599 372.795C69.5592 373.213 66.7239 371.641 65.56 368.975L64.0872 365.6C64.033 365.579 63.9789 365.569 63.9225 365.569Z" fill="black"/>
<path d="M70.6785 382.352C64.1959 382.352 60.9975 379.152 60.8599 379.009C60.6704 378.815 60.6839 378.511 60.8937 378.334C61.1012 378.157 61.4238 378.169 61.6133 378.363C61.6448 378.397 64.9154 381.639 71.4431 381.38C76.3197 381.184 83.506 381.266 87.3563 381.329C89.648 381.367 91.8044 380.791 93.593 379.663C94.1863 379.289 94.6351 378.916 94.9261 378.555C95.0953 378.344 95.4155 378.304 95.6411 378.463C95.8667 378.621 95.9095 378.92 95.7404 379.131C95.3795 379.576 94.8494 380.021 94.1637 380.454C92.1991 381.692 89.8375 382.32 87.3383 382.282C83.5015 382.217 76.3378 382.137 71.4882 382.331C71.2131 382.342 70.9446 382.348 70.6807 382.348L70.6785 382.352Z" fill="black"/>
<path d="M29.0375 351.121C29.0375 351.121 24.3143 360.083 25.7849 365.173L26.0533 367.195L10.7266 358.252L12.4183 357.229C15.7723 355.156 19.0768 351.8 20.1865 348.596L29.0397 351.121H29.0375Z" fill="white"/>
<path d="M26.0514 367.672C25.9566 367.672 25.8641 367.649 25.7807 367.601L10.4539 358.657C10.3051 358.571 10.2148 358.419 10.2148 358.256C10.2148 358.094 10.3006 357.94 10.4494 357.851L12.1411 356.828C15.7388 354.603 18.7094 351.313 19.6996 348.448C19.7853 348.199 20.0673 348.062 20.3334 348.138L29.1866 350.663C29.331 350.703 29.446 350.802 29.5069 350.929C29.5656 351.057 29.5633 351.203 29.4956 351.329C29.4483 351.418 24.8739 360.191 26.2769 365.046C26.2837 365.067 26.2882 365.09 26.2904 365.112L26.5589 367.132C26.5837 367.316 26.4935 367.495 26.3265 367.594C26.2431 367.645 26.1483 367.67 26.0514 367.67V367.672ZM11.6765 358.246L25.413 366.261L25.2799 365.266C23.9897 360.707 27.3348 353.411 28.3205 351.416L20.5003 349.186C19.3071 352.133 16.2982 355.4 12.696 357.628L11.6742 358.246H11.6765Z" fill="black"/>
<path d="M27.5249 362.197L27.8046 364.67C28.3572 369.565 30.1617 374.258 33.0646 378.348L35.2954 381.491C35.5074 381.791 35.5503 382.17 35.4059 382.504L35.3338 382.674C34.5263 384.562 29.7805 386.904 22.61 383.953C18.1732 382.126 13.6959 376.539 0.924703 365.279C0.263815 364.697 0.475837 363.634 1.04876 362.976C3.14195 360.575 8.37492 355.017 13.0508 353.676C13.5718 353.526 14.1154 353.819 14.2214 354.323L15.2274 359.164C15.6785 361.337 17.9161 362.75 20.2168 362.313L26.0926 361.202C26.7873 361.071 27.4527 361.531 27.5272 362.197H27.5249Z" fill="white"/>
<path d="M29.0461 385.831C27.2778 385.831 25.0538 385.479 22.4012 384.388C19.5027 383.194 16.7171 380.568 11.6646 375.801C8.80446 373.104 5.24514 369.748 0.571555 365.626C-0.310381 364.848 -0.0825717 363.515 0.650496 362.675C2.72564 360.294 8.07591 354.605 12.8984 353.219C13.2886 353.107 13.7126 353.156 14.0577 353.35C14.4006 353.542 14.6419 353.865 14.7186 354.234L15.7246 359.075C15.9186 360.005 16.4848 360.806 17.3238 361.332C18.1494 361.848 19.1396 362.032 20.1118 361.848L25.9876 360.737C26.4567 360.648 26.9485 360.749 27.3364 361.015C27.7266 361.283 27.9793 361.697 28.0311 362.15L28.3108 364.622C28.8522 369.421 30.6431 374.078 33.4897 378.088L35.7204 381.231C36.0249 381.661 36.0858 382.205 35.8806 382.684L35.8084 382.853C35.4182 383.766 34.34 384.633 32.9235 385.175C32.0957 385.492 30.7942 385.833 29.0507 385.833L29.0461 385.831ZM13.3247 354.114C13.2818 354.114 13.239 354.12 13.1984 354.133C8.64431 355.44 3.46097 360.965 1.44221 363.279C1.01365 363.77 0.842223 364.552 1.27304 364.932C5.95791 369.062 9.524 372.427 12.3909 375.131C17.3577 379.815 20.0914 382.395 22.8139 383.517C27.7334 385.542 31.0153 384.871 32.5333 384.291C33.9047 383.766 34.6333 383.021 34.8566 382.498L34.9287 382.33C35.0099 382.142 34.9874 381.927 34.8656 381.758L32.6348 378.615C29.698 374.477 27.8507 369.674 27.2913 364.721L27.0116 362.249C26.9913 362.061 26.8898 361.897 26.7274 361.785C26.5695 361.678 26.3755 361.635 26.1838 361.673L20.308 362.785C19.0674 363.019 17.8043 362.785 16.7487 362.125C15.684 361.458 14.9622 360.439 14.7164 359.256L13.7104 354.415C13.6878 354.31 13.6224 354.223 13.5277 354.168C13.4645 354.133 13.3923 354.114 13.3202 354.114H13.3247Z" fill="black"/>
<path d="M30.3606 381.793C30.3358 381.793 30.311 381.793 30.2862 381.788L29.084 381.622C25.0826 381.071 21.3022 379.281 18.4421 376.583L5.10478 363.999C4.90629 363.811 4.90854 363.509 5.10703 363.324C5.30778 363.138 5.63033 363.14 5.82882 363.326L19.1661 375.91C21.8728 378.462 25.4457 380.156 29.2328 380.677L30.4351 380.844C30.7148 380.881 30.9065 381.124 30.8659 381.386C30.8275 381.622 30.611 381.793 30.3629 381.793H30.3606Z" fill="black"/>
<path d="M89.2438 204.167C99.7346 206.89 106.233 208.554 106.233 208.554C106.233 208.554 85.3326 278.682 79.2831 296.252C73.7975 312.179 37.8524 346.873 31.4781 353.895C30.8195 354.621 28.9496 355.352 28.9496 355.352C25.2843 356.181 21.4498 354.829 19.2573 351.935C19.2573 351.935 18.1025 349.506 18.3731 348.269L20.3693 339.159C27.9481 310.254 42.4403 295.946 48.58 265.769C57.8482 220.223 64.7774 209.938 66.3248 206.478C71.1201 195.761 89.2438 204.165 89.2438 204.165V204.167Z" fill="#13187E"/>
<path d="M124.039 205.465C125.896 221.907 124.797 250.285 123.092 263.103C118.396 298.388 87.2034 348.028 81.4539 358.106C80.7186 359.397 79.3607 360.272 77.8179 360.437C73.3969 360.907 71.7571 359.88 69.4947 358.796C67.8707 358.018 66.9234 356.425 66.885 354.708C66.1091 320.143 73.9834 290.543 82.1509 271.688C85.3019 264.415 88.7485 223.039 88.3222 208.127L124.039 205.465Z" fill="#13187E"/>
<path d="M67.7813 320.111C67.7498 320.111 67.7182 320.109 67.6866 320.103C67.4092 320.054 67.2265 319.806 67.2783 319.546C70.9685 300.948 74.0677 289.421 77.6405 281.001C82.6344 269.231 85.2577 256.98 85.4404 244.586L85.5306 238.435C85.5351 238.172 85.7832 237.961 86.0471 237.965C86.3291 237.969 86.5546 238.186 86.5501 238.448L86.4599 244.599C86.2749 257.109 83.6269 269.474 78.5879 281.353C75.0398 289.712 71.9587 301.187 68.2798 319.721C68.2347 319.951 68.0204 320.111 67.7791 320.111H67.7813Z" fill="white"/>
<path d="M38.7601 219.064C38.4917 219.777 39.1661 221.18 39.0714 221.764C38.7218 223.893 35.3384 226.879 32.8482 228.822C30.8678 230.366 29.7017 232.663 29.6926 235.087C29.6926 235.658 29.722 236.28 29.7581 236.949C29.8415 238.485 29.316 239.299 28.6055 239.712C27.2092 240.524 25.3957 239.575 25.2176 238.037C24.8318 234.675 24.1935 227.708 25.1995 225.253C25.8604 223.637 27.9942 221.526 29.9926 219.794C31.9573 218.092 33.0445 215.677 33.0332 213.16C32.9926 204.458 38.1556 179.051 44.2164 161.215L59.3695 169.089C59.3695 169.089 48.7118 192.652 38.7601 219.062V219.064Z" fill="white"/>
<path d="M27.499 240.485C27.0975 240.485 26.6937 240.398 26.3126 240.225C25.4148 239.816 24.8148 239.017 24.7088 238.088C24.2735 234.304 23.6961 227.582 24.7224 225.083C25.3021 223.669 26.9577 221.773 29.6463 219.444C31.4846 217.852 32.5335 215.561 32.5222 213.163C32.4839 204.622 37.4732 179.482 43.728 161.072C43.7753 160.935 43.8836 160.825 44.0257 160.772C44.1678 160.719 44.328 160.728 44.461 160.8L59.6141 168.674C59.8419 168.792 59.9389 169.051 59.8352 169.277C59.7291 169.513 49.0692 193.131 39.2371 219.223C39.1311 219.503 39.28 220.105 39.4018 220.588C39.5236 221.077 39.6273 221.499 39.5709 221.836C39.2033 224.072 35.8875 227.069 33.1696 229.187C31.2884 230.655 30.2057 232.807 30.1989 235.087C30.1989 235.652 30.2283 236.279 30.2621 236.924C30.3456 238.455 29.8764 239.531 28.8681 240.115C28.4486 240.36 27.9749 240.482 27.4945 240.482L27.499 240.485ZM44.5129 161.918C38.3732 180.195 33.5034 204.772 33.5417 213.159C33.553 215.823 32.3869 218.371 30.3388 220.145C27.8035 222.343 26.1908 224.167 25.6742 225.424C24.6908 227.822 25.381 235.009 25.7238 237.987C25.7938 238.586 26.1795 239.101 26.7614 239.367C27.2847 239.605 27.8576 239.584 28.3358 239.305C29.0035 238.917 29.3125 238.133 29.2493 236.973C29.2132 236.314 29.1817 235.673 29.1839 235.085C29.1929 232.52 30.4087 230.105 32.5222 228.455C36.1717 225.608 38.3191 223.205 38.5672 221.691C38.592 221.535 38.4928 221.13 38.4116 220.803C38.2469 220.136 38.0755 219.446 38.2785 218.904C47.4226 194.633 57.2841 172.502 58.7209 169.298L44.5152 161.915L44.5129 161.918Z" fill="black"/>
<path d="M132.036 141.401L152.907 163.827C154.387 165.417 156.949 165.617 158.691 164.276C164.663 159.671 177.186 149.956 178.048 148.779C179.183 147.231 184.727 139.293 187.817 136.75C190.722 134.36 193.073 131.658 194.439 129.964C195.263 128.943 196.35 128.732 197.117 129.186C197.791 129.584 198.024 130.31 196.824 131.843C195.434 133.617 194.092 135.423 192.921 136.946C192.554 137.425 192.089 137.832 192.662 137.619C193.997 137.123 195.612 136.758 196.411 137.467C197.911 138.8 197.182 145.195 193.188 148.863C189.193 152.531 186.367 150.781 184.858 152.66C183.349 154.539 168.978 181.005 163.675 183.956C151.529 190.714 128.824 169.48 128.824 169.48L132.038 141.401H132.036Z" fill="white"/>
<path d="M158.134 185.767C145.686 185.767 129.267 170.568 128.462 169.817C128.354 169.716 128.299 169.572 128.315 169.429L131.529 141.35C131.552 141.162 131.69 141.002 131.884 140.945C132.078 140.888 132.287 140.945 132.423 141.086L153.294 163.512C154.602 164.917 156.83 165.092 158.366 163.907C169.847 155.056 177.047 149.3 177.627 148.509C177.756 148.334 177.94 148.076 178.171 147.756C179.952 145.275 184.689 138.688 187.479 136.393C190.274 134.094 192.584 131.472 194.03 129.679C194.954 128.532 196.337 128.163 197.388 128.783C197.812 129.034 198.072 129.369 198.155 129.778C198.281 130.405 197.981 131.173 197.235 132.126C196.362 133.24 195.518 134.353 194.702 135.431C194.343 135.904 193.996 136.361 193.662 136.8C195.081 136.444 196.123 136.549 196.766 137.121C197.478 137.754 197.639 138.983 197.645 139.901C197.668 142.637 196.412 146.575 193.549 149.203C191.136 151.42 189.074 151.757 187.567 152.006C186.496 152.183 185.788 152.299 185.269 152.945C184.91 153.39 183.658 155.518 182.073 158.214C175.277 169.764 167.711 182.266 163.94 184.363C162.178 185.344 160.212 185.765 158.139 185.765L158.134 185.767ZM129.357 169.3C131.471 171.224 152.294 189.731 163.414 183.544C167.263 181.403 176.314 166.018 181.175 157.754C182.905 154.814 184.046 152.873 184.448 152.373C185.208 151.426 186.266 151.251 187.387 151.067C188.837 150.829 190.642 150.532 192.83 148.524C195.464 146.104 196.642 142.362 196.621 139.909C196.612 138.903 196.403 138.119 196.06 137.813C195.584 137.391 194.415 137.482 192.85 138.062C192.703 138.116 192.254 138.283 191.988 137.948C191.718 137.608 191.982 137.298 192.259 136.969C192.336 136.876 192.424 136.775 192.505 136.667C192.938 136.104 193.394 135.503 193.865 134.879C194.684 133.799 195.53 132.681 196.409 131.561C197.147 130.618 197.19 130.15 197.151 129.956C197.131 129.859 197.079 129.728 196.842 129.591C196.249 129.24 195.446 129.506 194.844 130.253C193.369 132.082 191.012 134.756 188.152 137.108C185.461 139.321 180.778 145.834 179.016 148.287C178.784 148.612 178.597 148.872 178.468 149.049C177.636 150.184 167.432 158.157 159.016 164.643C157.049 166.159 154.198 165.938 152.524 164.139L132.423 142.54L129.357 169.3Z" fill="black"/>
<path d="M71.4978 126.036C87.4854 121.231 114.841 123.653 123.14 129.39C133.919 136.842 144.101 148.897 148.095 153.887C149.205 155.275 149.377 157.134 148.542 158.684C144.953 165.349 136.98 181.812 132.448 178.71C127.937 175.622 122.206 169.798 122.528 172.848C123.388 180.935 124.861 207.951 124.861 207.951C124.861 207.951 120.115 209.48 119.91 213.112L119.425 222.95C119.307 224.095 118.004 224.768 116.919 224.241C108.196 219.999 73.6677 215.935 60.7928 209.343C59.2499 208.554 58.4154 206.93 58.7154 205.297C60.2266 197.088 68.958 179.745 65.4257 169.306C65.0603 168.229 62.3085 172.686 58.9793 175.339C58.4447 175.765 57.671 175.79 57.1207 175.379L41.8841 164.021C40.5353 163.014 40.0481 161.293 40.6909 159.789C43.8555 152.388 54.2448 131.223 71.4978 126.036Z" fill="white"/>
<path d="M117.709 224.9C117.357 224.9 117.005 224.822 116.685 224.666C112.902 222.827 103.871 220.954 94.3092 218.973C81.8899 216.4 67.815 213.483 60.5497 209.764C58.8152 208.876 57.8769 207.05 58.2152 205.219C58.6663 202.763 59.7264 199.589 60.9557 195.912C63.7752 187.473 67.2714 177.003 65.0519 169.795C64.673 170.131 64.0482 170.843 63.482 171.491C62.3339 172.803 60.9039 174.438 59.3137 175.705C58.5941 176.281 57.5385 176.302 56.8077 175.756L41.5712 164.397C40.0577 163.269 39.5028 161.301 40.2223 159.616C43.8606 151.103 54.1754 130.746 71.3473 125.586C87.9642 120.594 115.225 123.325 123.447 129.01C134.312 136.521 144.591 148.711 148.507 153.604C149.74 155.146 149.93 157.175 149.001 158.901C148.637 159.576 148.229 160.35 147.785 161.196C144.156 168.089 138.67 178.504 134.357 179.494C133.55 179.677 132.808 179.546 132.151 179.097C130.762 178.146 129.291 176.965 127.868 175.824C126.115 174.417 123.738 172.508 123.043 172.468C123.032 172.52 123.023 172.624 123.041 172.803C123.891 180.81 125.36 207.659 125.375 207.929C125.387 208.142 125.247 208.334 125.033 208.404C124.987 208.418 120.609 209.876 120.424 213.139L119.939 222.973C119.865 223.698 119.43 224.314 118.773 224.647C118.444 224.816 118.079 224.898 117.715 224.898L117.709 224.9ZM65.2256 168.665C65.273 168.665 65.3181 168.669 65.3654 168.677C65.4872 168.698 65.785 168.791 65.9113 169.164C68.4488 176.665 64.8309 187.494 61.9257 196.195C60.7076 199.84 59.6565 202.987 59.2167 205.381C58.9528 206.809 59.6859 208.235 61.037 208.927C68.1759 212.58 82.1764 215.482 94.528 218.041C104.574 220.123 113.252 221.92 117.154 223.818C117.512 223.993 117.923 223.989 118.279 223.81C118.643 223.624 118.875 223.295 118.915 222.905L119.398 213.093C119.588 209.754 123.158 208.089 124.331 207.632C124.155 204.461 122.815 180.386 122.019 172.894C121.949 172.242 122.121 171.81 122.529 171.611C123.517 171.128 125.172 172.402 128.527 175.096C129.934 176.226 131.391 177.395 132.747 178.325C133.153 178.604 133.597 178.682 134.107 178.566C137.959 177.682 143.752 166.682 146.862 160.772C147.309 159.924 147.717 159.147 148.083 158.47C148.836 157.07 148.682 155.425 147.683 154.174C143.795 149.314 133.588 137.211 122.833 129.776C114.964 124.336 87.7071 121.669 71.6518 126.493C54.4236 131.672 43.9599 153.425 41.1629 159.968C40.6081 161.267 41.0344 162.78 42.2005 163.649L57.437 175.007C57.7934 175.273 58.2896 175.26 58.646 174.976C60.1663 173.763 61.5648 172.166 62.6881 170.884C64.082 169.289 64.6617 168.662 65.2256 168.662V168.665Z" fill="black"/>
<path d="M90.1135 124.798L90.2985 108.105L105.032 114.482L105.183 124.292C105.179 126.922 102.851 128.471 102.851 128.471C99.9727 130.605 95.8179 130.378 92.7278 128.521L92.0127 128.091C90.815 127.372 90.0977 126.129 90.1135 124.798Z" fill="white"/>
<path d="M97.9701 130.482C96.1138 130.482 94.1852 129.963 92.4507 128.923L91.7357 128.495C90.3823 127.68 89.5838 126.299 89.6019 124.795L89.7868 108.102C89.7868 107.94 89.877 107.79 90.0237 107.703C90.1703 107.617 90.353 107.604 90.5109 107.674L105.244 114.048C105.423 114.124 105.538 114.291 105.54 114.474L105.691 124.284C105.686 127.136 103.248 128.79 103.144 128.859C101.687 129.939 99.8671 130.482 97.9679 130.482H97.9701ZM90.6214 124.803C90.6079 125.976 91.2304 127.056 92.286 127.691L93.001 128.119C96.0912 129.975 100.011 129.965 102.531 128.096C102.572 128.066 104.667 126.634 104.669 124.291L104.523 114.788L90.7951 108.849L90.6191 124.803H90.6214Z" fill="black"/>
<path d="M110.138 83.8029C106.267 83.727 109.684 87.7578 95.7311 84.2353C90.0109 82.7904 93.101 88.9622 91.6101 88.6142C86.0997 87.3339 84.1734 89.0972 82.9441 90.0211C81.5231 91.0884 80.1697 93.5732 80.5893 95.8196C81.1419 98.7852 85.4117 99.5446 87.9966 105.763C89.8124 110.129 89.5147 112.831 91.4454 113.411C93.3965 113.997 94.7273 111.544 96.9107 112.036C99.737 112.671 99.3603 117.197 102.157 118.973C103.921 120.093 107.938 120.505 114.229 117.387C115.249 116.883 115.74 115.767 115.393 114.738C114.949 113.419 114.376 111.755 113.688 110.209C110.404 102.839 107.478 101.247 108.439 99.2767C109.912 96.2583 116.007 97.7538 116.911 95.2838C117.849 92.7189 115.438 83.9062 110.14 83.8008L110.138 83.8029Z" fill="black"/>
<path d="M98.1821 101.649C98.7393 102.537 99.2287 103.459 99.6483 104.41C100.435 106.19 101.811 109.238 102.723 110.89C103.85 112.938 110.315 110.753 112.318 110.016C112.64 109.898 112.787 109.548 112.64 109.255L111.865 107.477L113.45 107.042C113.637 106.964 113.811 106.848 113.931 106.692C114.233 106.302 114.215 105.8 113.931 105.439C112.458 103.566 109.848 100.487 108.468 96.6182C108.328 96.2238 107.953 95.9412 107.511 95.9011C105.989 95.764 102.393 95.7513 98.9851 98.0905C97.7851 98.9132 97.431 100.447 98.1844 101.649H98.1821Z" fill="white"/>
<path d="M104.994 112.218C103.724 112.218 102.712 111.916 102.267 111.11C101.34 109.427 99.9328 106.305 99.1749 104.595C98.7644 103.665 98.2817 102.756 97.7404 101.893C96.8562 100.482 97.2599 98.6825 98.6787 97.708C102.265 95.2485 106.084 95.295 107.557 95.4299C108.197 95.4869 108.743 95.8961 108.948 96.4719C110.182 99.927 112.433 102.76 113.922 104.635L114.337 105.16C114.761 105.7 114.761 106.43 114.339 106.976C114.175 107.187 113.938 107.362 113.654 107.482C113.633 107.491 113.611 107.499 113.588 107.506L112.544 107.79L113.105 109.077C113.225 109.313 113.236 109.615 113.124 109.881C113.011 110.146 112.783 110.357 112.499 110.463C110.385 111.241 107.273 112.22 104.99 112.22L104.994 112.218ZM98.6223 101.408C99.1862 102.308 99.6915 103.258 100.12 104.228C100.871 105.926 102.265 109.02 103.176 110.672C103.779 111.764 107.376 111.323 112.131 109.573C112.16 109.562 112.174 109.541 112.181 109.526C112.187 109.512 112.192 109.486 112.178 109.459L111.391 107.658C111.337 107.533 111.342 107.392 111.405 107.269C111.468 107.147 111.583 107.056 111.721 107.018L113.27 106.594C113.378 106.546 113.464 106.483 113.518 106.413C113.681 106.204 113.681 105.928 113.518 105.723L113.105 105.202C111.576 103.279 109.266 100.37 107.983 96.7715C107.906 96.5542 107.701 96.4002 107.46 96.377C106.102 96.2547 102.588 96.2104 99.2832 98.4758C98.2862 99.1592 98.002 100.421 98.6223 101.408Z" fill="black"/>
<path d="M97.6014 108.533C93.706 110.172 92.0121 106.78 92.7068 104.622C92.9978 103.715 94.2857 103.519 94.897 104.276L97.7932 107.858C97.9781 108.088 97.8834 108.417 97.6014 108.535V108.533Z" fill="white"/>
<path d="M349.165 38.0742L336.044 58.2454C330.717 66.5349 341.149 81.4624 359.347 91.587C377.545 101.712 396.616 103.199 401.944 94.9113L415.065 74.7401L349.163 38.0742H349.165Z" fill="#13187E"/>
<path d="M388.377 100.71C380.056 100.71 369.412 97.7425 359.086 91.9968C346.276 84.8695 336.911 75.211 334.647 66.7907C333.729 63.3779 334.051 60.4206 335.607 57.9992L348.73 37.8238C348.877 37.6002 349.186 37.5264 349.427 37.6613L415.329 74.3272C415.446 74.3926 415.53 74.4981 415.564 74.6225C415.598 74.747 415.575 74.8778 415.505 74.9853L402.384 95.1586C399.987 98.89 394.893 100.71 388.379 100.71H388.377ZM349.339 38.7244L336.48 58.4927C335.071 60.6843 334.786 63.399 335.637 66.5566C337.804 74.6162 347.215 84.2789 359.609 91.1763C377.537 101.151 396.333 102.716 401.509 94.665L414.364 74.9031L349.339 38.7265V38.7244Z" fill="white"/>
<path d="M420.856 69.6115L395.668 37.4026C395.167 36.8352 394.472 36.4492 393.699 36.3079L351.28 30.9039L337.825 23.418L333.923 29.4885C333.68 29.8682 333.664 30.3765 334.025 30.7857L370.601 72.246C371.102 72.8134 371.797 73.1994 372.57 73.3408L429.136 83.7016C429.693 83.8029 430.167 83.5519 430.411 83.1701L434.313 77.0995L420.858 69.6136L420.856 69.6115Z" fill="white"/>
<path d="M429.376 84.1997C429.263 84.1997 429.15 84.1892 429.035 84.1681L372.47 73.8072C371.583 73.6448 370.778 73.1976 370.205 72.548L333.628 31.0877C333.161 30.5582 333.105 29.8327 333.484 29.2421L337.386 23.1715C337.53 22.9458 337.842 22.872 338.085 23.007L351.452 30.4422L393.767 35.8336C394.683 36.0002 395.486 36.4474 396.061 37.0971L421.206 69.2512L434.573 76.6864C434.69 76.7518 434.773 76.8573 434.807 76.9796C434.841 77.102 434.821 77.2327 434.751 77.3424L430.849 83.413C430.528 83.9087 429.976 84.1976 429.378 84.1976L429.376 84.1997ZM338 24.0722L334.359 29.7356C334.298 29.8284 334.127 30.1554 334.415 30.4823L370.992 71.9405C371.416 72.4214 372.009 72.7505 372.666 72.8707L429.231 83.2316C429.68 83.3138 429.91 83.0164 429.971 82.9236L433.607 77.2644L420.593 70.0232C420.534 69.9915 420.482 69.9472 420.441 69.8945L395.253 37.6834C394.847 37.2257 394.254 36.8946 393.598 36.7743L351.208 31.3745C351.141 31.3661 351.075 31.345 351.017 31.3113L337.997 24.0679L338 24.0722Z" fill="black"/>
<path d="M434.209 75.802L397.632 34.3417C397.132 33.7743 396.437 33.3883 395.663 33.247L339.097 22.8861C337.983 22.6815 337.203 23.8965 337.922 24.7128L374.499 66.1731C375 66.7405 375.694 67.1265 376.468 67.2678L433.034 77.6287C434.148 77.8333 434.929 76.6183 434.209 75.802Z" fill="#13187E"/>
<path d="M433.278 78.128C433.165 78.128 433.052 78.1175 432.937 78.0964L376.372 67.7355C375.485 67.5731 374.68 67.1259 374.107 66.4742L337.53 25.016C337.066 24.4886 337.007 23.7652 337.384 23.1746C337.763 22.5818 338.475 22.2844 339.197 22.4152L395.763 32.7761C396.649 32.9385 397.455 33.3857 398.027 34.0353L434.604 75.4956C435.069 76.0229 435.127 76.7464 434.753 77.3349C434.435 77.8348 433.878 78.1259 433.28 78.1259L433.278 78.128ZM338.857 23.3391C338.575 23.3391 338.367 23.4973 338.261 23.6639C338.202 23.7567 338.033 24.0837 338.32 24.4085L374.896 65.8688C375.32 66.3497 375.914 66.6788 376.57 66.799L433.136 77.1599C433.494 77.2273 433.754 77.0417 433.876 76.8477C433.934 76.7549 434.103 76.4279 433.817 76.1031L397.24 34.6428C396.816 34.1619 396.223 33.8328 395.567 33.7126L339.001 23.3517C338.949 23.3433 338.902 23.3391 338.854 23.3391H338.857Z" fill="black"/>
<path d="M407.311 93.9466C407.029 93.9466 406.801 93.7336 406.801 93.4699V85.8322C406.801 85.5685 407.029 85.3555 407.311 85.3555C407.592 85.3555 407.82 85.5685 407.82 85.8322V93.4699C407.82 93.7336 407.592 93.9466 407.311 93.9466Z" fill="black"/>
<path d="M407.31 86.3082C407.028 86.3082 406.8 86.0952 406.8 85.8315V73.2137L386.394 49.4314C386.218 49.2268 386.252 48.9252 386.473 48.7607C386.694 48.5962 387.014 48.6299 387.19 48.8345L407.707 72.7476C407.779 72.832 407.82 72.9374 407.82 73.0471V85.8315C407.82 86.0952 407.592 86.3082 407.31 86.3082Z" fill="white"/>
<path d="M407.488 92.2912C406.415 92.2806 405.515 93.0505 405.429 94.0545L403.016 122.351L411.258 122.433L409.507 94.0946C409.444 93.0885 408.564 92.2996 407.491 92.2891L407.488 92.2912Z" fill="white"/>
<path d="M411.257 122.911H411.252L403.01 122.829C402.868 122.829 402.735 122.772 402.638 122.672C402.543 122.575 402.496 122.445 402.505 122.312L404.918 94.0156C405.027 92.7669 406.146 91.7776 407.492 91.8114C408.827 91.824 409.935 92.8133 410.014 94.0662L411.764 122.405C411.773 122.537 411.721 122.666 411.624 122.761C411.527 122.856 411.394 122.909 411.254 122.909L411.257 122.911ZM403.567 121.879L410.715 121.949L408.997 94.1211C408.949 93.368 408.286 92.7732 407.483 92.7669H407.465C406.671 92.7669 406.001 93.347 405.936 94.0915L403.565 121.879H403.567Z" fill="black"/>
<path d="M10.1583 102.664C7.77862 102.664 5.69897 101.014 5.37191 98.7489C5.01552 96.2789 6.87413 93.9988 9.51543 93.6655C12.1522 93.3343 14.595 95.0703 14.9514 97.5403C15.3078 100.01 13.4492 102.29 10.8079 102.624C10.5891 102.651 10.3726 102.664 10.1583 102.664ZM6.38241 98.6202C6.66436 100.567 8.58612 101.94 10.6703 101.677C12.7545 101.413 14.2206 99.6158 13.9386 97.6668C13.6567 95.7179 11.7349 94.3468 9.65077 94.6105C7.5666 94.8741 6.10272 96.6712 6.38241 98.6202Z" fill="black"/>
<path d="M13.6324 77.5835C13.5241 77.5835 13.4158 77.5518 13.3234 77.4864L11.3497 76.0795C11.1264 75.9192 11.0813 75.6197 11.2527 75.4109C11.4242 75.2021 11.7445 75.1599 11.9678 75.3202L13.9414 76.7271C14.1647 76.8874 14.2098 77.1869 14.0384 77.3957C13.9369 77.5181 13.7858 77.5835 13.6324 77.5835Z" fill="black"/>
<path d="M21.0884 82.8999C20.9802 82.8999 20.8719 82.8682 20.7794 82.8028L18.8058 81.3959C18.5825 81.2356 18.5396 80.9361 18.7088 80.7273C18.8802 80.5185 19.1983 80.4763 19.4238 80.6366L21.3975 82.0435C21.6208 82.2038 21.6636 82.5033 21.4945 82.7121C21.3929 82.8345 21.2418 82.8999 21.0884 82.8999Z" fill="black"/>
<path d="M12.7798 83.948C12.6716 83.948 12.5633 83.9163 12.4708 83.851C12.2475 83.6907 12.2024 83.3911 12.3738 83.1823L13.8783 81.3367C14.0497 81.1278 14.3678 81.0857 14.5933 81.246C14.8166 81.4063 14.8617 81.7058 14.6903 81.9146L13.1858 83.7602C13.0843 83.8826 12.9332 83.948 12.7798 83.948Z" fill="black"/>
<path d="M18.4634 76.9734C18.3552 76.9734 18.2469 76.9417 18.1544 76.8763C17.9311 76.716 17.886 76.4165 18.0574 76.2077L19.5619 74.3621C19.7333 74.1532 20.0536 74.1111 20.2769 74.2714C20.5002 74.4317 20.5453 74.7312 20.3739 74.94L18.8694 76.7856C18.7679 76.908 18.6168 76.9734 18.4634 76.9734Z" fill="black"/>
<path d="M194.416 360.408C168.803 360.408 142.185 354.249 123.854 348.883C123.586 348.805 123.434 348.537 123.52 348.286C123.604 348.035 123.89 347.893 124.158 347.974C143.667 353.686 172.595 360.296 199.624 359.368C199.906 359.349 200.143 359.564 200.152 359.828C200.163 360.092 199.942 360.313 199.66 360.321C197.919 360.381 196.166 360.41 194.411 360.41L194.416 360.408Z" fill="black"/>
<path d="M194.849 368.918C156.793 368.918 113.53 354.876 113.021 354.709C112.754 354.623 112.615 354.349 112.709 354.102C112.802 353.853 113.093 353.72 113.359 353.809C113.954 354.005 173.475 373.318 214.058 366.513C214.337 366.467 214.601 366.64 214.651 366.899C214.7 367.158 214.516 367.407 214.238 367.454C208.114 368.481 201.559 368.918 194.849 368.918Z" fill="black"/>
<path d="M222.589 370.795C222.526 370.795 222.465 370.784 222.404 370.763C222.233 370.702 222.111 370.559 222.084 370.388L220.334 359.415C220.309 359.259 220.368 359.103 220.492 358.995C220.613 358.888 220.787 358.844 220.949 358.879L233.608 361.535C233.8 361.575 233.948 361.712 233.994 361.891C234.039 362.069 233.971 362.256 233.82 362.37L222.912 370.687C222.819 370.757 222.704 370.795 222.589 370.795ZM221.455 359.961L222.961 369.417L232.361 362.25L221.452 359.961H221.455Z" fill="black"/>
<path d="M243.163 9.26742C242.712 9.26742 242.252 9.20625 241.798 9.07547C239.346 8.37097 237.968 5.93051 238.722 3.63982C239.475 1.34913 242.082 0.0582344 244.534 0.762739C246.986 1.46935 248.364 3.9077 247.611 6.1984C246.995 8.06512 245.15 9.26742 243.163 9.26742ZM242.098 8.16215C244.011 8.71268 246.048 7.70443 246.634 5.91786C247.223 4.12917 246.145 2.22448 244.234 1.67396C242.322 1.12343 240.285 2.13167 239.698 3.91824C239.11 5.70692 240.188 7.61162 242.098 8.16215Z" fill="black"/>
<path d="M174.694 4.25356C174.464 4.25356 174.254 4.1059 174.198 3.88654C174.132 3.6292 174.301 3.37187 174.577 3.31281C193.506 -0.888908 212.762 -1.09562 231.81 2.70322C232.085 2.75807 232.261 3.01118 232.202 3.26851C232.144 3.52585 231.873 3.69248 231.598 3.63553C212.698 -0.133781 193.593 0.0708201 174.813 4.2409C174.773 4.24933 174.734 4.25356 174.696 4.25356H174.694Z" fill="black"/>
<path d="M279.379 24.0079C279.313 24.0079 279.25 23.9974 279.185 23.9721C278.661 23.7717 226.239 4.08563 182.163 12.8624C181.885 12.9151 181.617 12.7527 181.558 12.4954C181.5 12.238 181.675 11.9849 181.951 11.9301C226.336 3.09425 279.043 22.89 279.57 23.0904C279.832 23.1895 279.956 23.4679 279.85 23.7126C279.769 23.8982 279.579 24.01 279.379 24.01V24.0079Z" fill="black"/>
</svg>
