<svg width="435" height="386" viewBox="0 0 435 386" fill="none" xmlns="http://www.w3.org/2000/svg">
<path d="M286.561 207.076L204.035 207.54C203.501 207.54 203.324 207.985 203.324 208.413V271.325C203.324 277.349 156.435 292.997 155.978 292.202L155.922 298.859C155.92 300.099 157.134 301.198 158.686 301.198H228.93C232.141 301.198 235.312 300.555 238.219 299.464L276.262 285.111C283.11 282.527 287.43 276.977 287.43 270.924V207.949C287.43 207.521 287.095 207.076 286.559 207.076H286.561Z" fill="black"/>
<path d="M194.966 203.874V266.798C194.966 273.002 190.509 278.652 183.51 281.331L157.846 291.146C156.17 291.787 156.742 293.799 158.599 293.799H229.112C232.283 293.799 235.414 293.238 238.281 292.156L266.717 281.43C273.769 278.77 278.268 273.094 278.268 266.861V203.874C278.268 203.617 278.007 203.408 277.684 203.408H195.549C195.227 203.408 194.966 203.617 194.966 203.874Z" fill="white"/>
<path d="M229.113 294.269H158.6C157.298 294.269 156.54 293.503 156.369 292.744C156.175 291.894 156.686 291.078 157.642 290.711L183.307 280.896C190.072 278.308 194.444 272.776 194.444 266.798V203.874C194.444 203.357 194.941 202.938 195.553 202.938H277.688C278.3 202.938 278.797 203.357 278.797 203.874V266.861C278.797 273.254 274.135 279.143 266.922 281.864L238.489 292.59C235.577 293.689 232.336 294.269 229.115 294.269H229.113ZM195.492 203.893V266.8C195.492 273.155 190.87 279.03 183.716 281.765L158.052 291.58C157.546 291.774 157.298 292.139 157.395 292.558C157.477 292.915 157.84 293.33 158.598 293.33H229.111C232.192 293.33 235.293 292.776 238.077 291.725L266.51 280.997C273.333 278.424 277.742 272.875 277.742 266.863V203.882C277.742 203.882 277.718 203.882 277.683 203.882H195.548C195.517 203.882 195.499 203.891 195.489 203.897L195.492 203.893Z" fill="black"/>
<path d="M40.7031 239.936L396.41 240.651C399.524 240.651 402.627 238.554 403.023 235.783L431.924 36.3553C432.614 31.523 428.438 26.716 423.073 26.8362L71.4926 28.5004L40.7055 239.934L40.7031 239.936Z" fill="black"/>
<path d="M409.105 27.9688C415.226 27.9688 420.751 33.5267 419.967 38.9792L391.906 235.296C391.508 238.067 388.196 240.413 385.083 240.413L35.674 239.904C31.9427 239.904 29.4497 237.128 29.9252 233.804L58.9868 33.8494C59.3846 31.0778 61.4304 27.9688 64.5425 27.9688H409.105Z" fill="white"/>
<path d="M385.084 240.885L35.6719 240.376C33.7887 240.376 32.1008 239.716 30.926 238.518C29.7019 237.271 29.1487 235.533 29.4053 233.747L58.4668 33.7898C58.9047 30.7398 61.1835 27.5 64.5428 27.5H409.105C412.194 27.5 415.271 28.831 417.549 31.1512C419.807 33.4503 420.878 36.3273 420.487 39.0398L392.426 235.356C392.002 238.301 388.573 240.885 385.084 240.885ZM64.5428 28.4386C61.7838 28.4386 59.8887 31.2566 59.5073 33.908L30.4458 233.865C30.2245 235.405 30.6742 236.837 31.7147 237.894C32.6893 238.887 34.0947 239.433 35.6743 239.433L385.086 239.942C388.029 239.942 391.033 237.697 391.386 235.234L419.447 38.9175C419.798 36.4707 418.821 33.8658 416.761 31.7692C414.682 29.6515 411.892 28.4365 409.105 28.4365H64.5428V28.4386Z" fill="black"/>
<path d="M376.866 231.948L46.7347 231.48C44.9903 231.48 43.4272 230.869 42.3372 229.757C41.2049 228.603 40.6917 226.992 40.9271 225.338L67.6628 41.382C68.0677 38.5619 70.1794 35.5625 73.2939 35.5625H398.967C401.82 35.5625 404.664 36.7922 406.768 38.9352C408.854 41.0593 409.843 43.7148 409.483 46.2228L383.665 226.829C383.272 229.557 380.096 231.948 376.869 231.948H376.866ZM73.2915 36.5053C70.7773 36.5053 69.0494 39.0808 68.701 41.5043L41.9653 225.46C41.7628 226.867 42.1748 228.173 43.1212 229.137C44.0087 230.042 45.2917 230.542 46.7324 230.542L376.864 231.01C379.552 231.01 382.295 228.962 382.617 226.711L408.435 46.1047C408.758 43.8646 407.861 41.479 405.975 39.5575C404.071 37.6169 401.514 36.5053 398.962 36.5053H73.2915Z" fill="black"/>
<path d="M364.253 61.43H230.056C229.906 61.43 229.762 61.3709 229.661 61.2697C229.562 61.1684 229.515 61.0313 229.536 60.8963L230.44 54.868C230.476 54.6339 230.697 54.4609 230.96 54.4609H365.157C365.307 54.4609 365.451 54.52 365.552 54.6212C365.651 54.7225 365.698 54.8596 365.677 54.9946L364.773 61.0229C364.738 61.257 364.516 61.43 364.253 61.43ZM230.657 60.4892H363.794L364.557 55.4017H231.42L230.657 60.4892Z" fill="black"/>
<path d="M393.211 70.8994H256.484L257.388 64.8711H394.115L393.211 70.8994Z" fill="black"/>
<path d="M375.231 81.3089H304.56C304.41 81.3089 304.266 81.2498 304.165 81.1486C304.066 81.0473 304.019 80.9102 304.04 80.7752L304.944 74.7469C304.979 74.5128 305.201 74.3398 305.464 74.3398H376.135C376.286 74.3398 376.429 74.3989 376.53 74.5002C376.629 74.6014 376.676 74.7385 376.655 74.8735L375.751 80.9018C375.716 81.1359 375.495 81.3089 375.231 81.3089ZM305.161 80.3681H374.772L375.535 75.2806H305.923L305.161 80.3681Z" fill="black"/>
<path d="M352.323 140.94H218.127C217.976 140.94 217.833 140.881 217.731 140.779C217.632 140.678 217.585 140.541 217.607 140.406L218.511 134.378C218.546 134.144 218.767 133.971 219.031 133.971H353.227C353.378 133.971 353.521 134.03 353.623 134.131C353.721 134.232 353.769 134.369 353.747 134.504L352.843 140.533C352.808 140.767 352.587 140.94 352.323 140.94ZM218.727 139.999H351.862L352.624 134.911H219.49L218.727 139.999Z" fill="black"/>
<path d="M279.713 150.875H244.557C244.406 150.875 244.262 150.816 244.161 150.715C244.062 150.614 244.015 150.477 244.036 150.342L244.94 144.313C244.976 144.079 245.197 143.906 245.46 143.906H277.262C277.552 143.906 277.787 144.117 277.787 144.377C277.787 144.636 277.552 144.847 277.262 144.847H245.92L245.157 149.935H279.713C280.002 149.935 280.238 150.145 280.238 150.405C280.238 150.664 280.002 150.875 279.713 150.875Z" fill="black"/>
<path d="M381.282 150.875H296.833C296.543 150.875 296.308 150.664 296.308 150.405C296.308 150.145 296.543 149.935 296.833 149.935H380.823L381.585 144.847H292.275C291.985 144.847 291.75 144.636 291.75 144.377C291.75 144.117 291.985 143.906 292.275 143.906H382.186C382.336 143.906 382.48 143.965 382.581 144.067C382.68 144.168 382.727 144.305 382.706 144.44L381.802 150.468C381.767 150.702 381.545 150.875 381.282 150.875Z" fill="black"/>
<path d="M379.788 160.815H306.749C306.459 160.815 306.224 160.604 306.224 160.344C306.224 160.085 306.459 159.874 306.749 159.874H379.329L380.091 154.786H302.728C302.439 154.786 302.203 154.576 302.203 154.316C302.203 154.057 302.439 153.846 302.728 153.846H380.692C380.842 153.846 380.986 153.905 381.087 154.006C381.186 154.107 381.233 154.244 381.212 154.379L380.308 160.408C380.273 160.642 380.051 160.815 379.788 160.815Z" fill="black"/>
<path d="M290.933 170.34H241.127C240.976 170.34 240.833 170.281 240.731 170.18C240.632 170.079 240.585 169.941 240.607 169.806L241.511 163.778C241.546 163.544 241.767 163.371 242.031 163.371H283.023C283.313 163.371 283.548 163.582 283.548 163.841C283.548 164.101 283.313 164.312 283.023 164.312H242.49L241.727 169.399H290.933C291.222 169.399 291.458 169.61 291.458 169.87C291.458 170.129 291.222 170.34 290.933 170.34Z" fill="black"/>
<path d="M359.78 90.7764H225.586L226.49 84.748H360.686L359.78 90.7764Z" fill="black"/>
<path d="M369.176 100.716H252.012L252.916 94.6875H369.353L369.176 100.716Z" fill="black"/>
<path d="M352.78 121.061H298.596C298.445 121.061 298.301 121.002 298.2 120.901C298.101 120.799 298.054 120.662 298.075 120.527L298.979 114.499C299.015 114.265 299.236 114.092 299.5 114.092H353.684C353.835 114.092 353.978 114.151 354.08 114.252C354.179 114.353 354.226 114.49 354.204 114.625L353.3 120.654C353.265 120.888 353.044 121.061 352.78 121.061ZM299.196 120.12H352.321L353.084 115.033H299.959L299.196 120.12Z" fill="black"/>
<path d="M367.489 130.522H313.305L314.209 124.496H368.393L367.489 130.522Z" fill="black"/>
<path d="M364.885 110.651H300.09L300.994 104.625H365.153L364.885 110.651Z" fill="black"/>
<path d="M346.354 180.224H212.16L213.064 174.195H347.26L346.354 180.224Z" fill="white"/>
<path d="M309.434 190.629H238.592C238.441 190.629 238.297 190.57 238.196 190.469C238.097 190.368 238.05 190.231 238.071 190.096L238.975 184.067C239.011 183.833 239.232 183.66 239.496 183.66H307.021C307.311 183.66 307.546 183.871 307.546 184.131C307.546 184.39 307.311 184.601 307.021 184.601H239.955L239.192 189.688H309.434C309.724 189.688 309.959 189.899 309.959 190.159C309.959 190.418 309.724 190.629 309.434 190.629Z" fill="black"/>
<path d="M346.696 200.569H286.666C286.515 200.569 286.372 200.51 286.27 200.408C286.172 200.307 286.124 200.17 286.146 200.035L287.05 194.007C287.085 193.773 287.306 193.6 287.57 193.6H344.551C344.841 193.6 345.076 193.811 345.076 194.07C345.076 194.329 344.841 194.54 344.551 194.54H288.029L287.266 199.628H346.696C346.985 199.628 347.221 199.839 347.221 200.098C347.221 200.358 346.985 200.569 346.696 200.569Z" fill="black"/>
<path d="M341.884 210.036H207.688L208.591 204.008H342.788L341.884 210.036Z" fill="white"/>
<path d="M346.162 220.446H234.115C233.964 220.446 233.821 220.387 233.72 220.285C233.621 220.184 233.574 220.047 233.595 219.912L234.499 213.884C234.534 213.65 234.755 213.477 235.019 213.477H346.698C346.988 213.477 347.223 213.687 347.223 213.947C347.223 214.206 346.988 214.417 346.698 214.417H235.48L234.718 219.505H346.164C346.453 219.505 346.689 219.716 346.689 219.975C346.689 220.235 346.453 220.446 346.164 220.446H346.162Z" fill="black"/>
<path d="M208.463 130.413H195.391L196.259 124.621H209.332L208.463 130.413Z" fill="black"/>
<path d="M219.376 60.9619H205.75L206.654 54.9336H220.28L219.376 60.9619Z" fill="black"/>
<path d="M220.743 51.8271H207.117L208.024 45.7988H221.647L220.743 51.8271Z" fill="black"/>
<path d="M217.778 70.9014H204.258L205.162 64.873H218.681L217.778 70.9014Z" fill="black"/>
<path d="M215.824 80.8408H202.992L203.896 74.8125H216.728L215.824 80.8408Z" fill="black"/>
<path d="M214.407 90.7762H201.344L202.248 84.75H215.311L214.407 90.7762Z" fill="black"/>
<path d="M212.848 100.716H199.785L200.691 94.6875H213.752L212.848 100.716Z" fill="black"/>
<path d="M210.25 120.194H197.305L198.211 114.168H211.154L210.25 120.194Z" fill="black"/>
<path d="M211.415 110.257H199.039L199.945 104.229H212.319L211.415 110.257Z" fill="black"/>
<path d="M203.932 160.601H190.859L191.728 154.811H204.8L203.932 160.601Z" fill="black"/>
<path d="M205.719 150.384H192.773L193.68 144.355H206.623L205.719 150.384Z" fill="black"/>
<path d="M206.883 140.444H194.508L195.412 134.416H207.787L206.883 140.444Z" fill="black"/>
<path d="M195.111 219.388H182.039L182.908 213.598H195.98L195.111 219.388Z" fill="black"/>
<path d="M202.477 169.815H189.645L190.551 163.787H203.383L202.477 169.815Z" fill="black"/>
<path d="M201.053 179.755H187.992L188.896 173.727H201.959L201.053 179.755Z" fill="black"/>
<path d="M199.493 189.694H186.43L187.334 183.666H200.397L199.493 189.694Z" fill="black"/>
<path d="M196.898 209.171H183.953L184.857 203.143H197.802L196.898 209.171Z" fill="black"/>
<path d="M198.063 199.231H185.688L186.591 193.205H198.967L198.063 199.231Z" fill="black"/>
<path d="M150.081 50.5069H85.4844L86.353 44.7148H150.95L150.081 50.5069Z" fill="black"/>
<path d="M161.434 61.0335H93.3417C93.191 61.0335 93.045 60.9744 92.9462 60.8732C92.8473 60.7719 92.8002 60.6348 92.8214 60.4998L93.7254 54.4715C93.7607 54.2374 93.982 54.0645 94.2456 54.0645H162.338C162.489 54.0645 162.635 54.1235 162.734 54.2248C162.833 54.326 162.88 54.4631 162.859 54.5981L161.955 60.6264C161.919 60.8605 161.698 61.0335 161.434 61.0335ZM93.942 60.0927H160.975L161.738 55.0052H94.7047L93.942 60.0927Z" fill="black"/>
<path d="M179.235 70.9729H99.9042C99.7535 70.9729 99.6075 70.9139 99.5087 70.8126C99.4098 70.7114 99.3627 70.5743 99.3839 70.4393L100.288 64.411C100.323 64.1769 100.544 64.0039 100.808 64.0039H180.139C180.29 64.0039 180.436 64.063 180.535 64.1642C180.634 64.2655 180.681 64.4026 180.66 64.5375L179.756 70.5659C179.72 70.8 179.499 70.9729 179.235 70.9729ZM100.504 70.0322H178.776L179.539 64.9446H101.267L100.504 70.0322Z" fill="black"/>
<path d="M189.403 80.9104H123.201C123.05 80.9104 122.904 80.8514 122.806 80.7501C122.707 80.6489 122.66 80.5118 122.681 80.3768L123.585 74.3485C123.62 74.1144 123.841 73.9414 124.105 73.9414H190.307C190.458 73.9414 190.604 74.0005 190.703 74.1017C190.802 74.203 190.849 74.3401 190.828 74.4751L189.924 80.5034C189.888 80.7375 189.667 80.9104 189.403 80.9104ZM123.801 79.9697H188.944L189.707 74.8821H124.564L123.801 79.9697Z" fill="black"/>
<path d="M125.877 130.015H73.5547L74.4234 124.225H126.746L125.877 130.015Z" fill="black"/>
<path d="M126.693 140.541H88.4315C88.2808 140.541 88.1349 140.482 88.036 140.381C87.9371 140.28 87.8901 140.143 87.9112 140.008L88.8152 133.979C88.8505 133.745 89.0718 133.572 89.3355 133.572H127.597C127.748 133.572 127.894 133.631 127.992 133.733C128.091 133.834 128.138 133.971 128.117 134.106L127.213 140.134C127.178 140.368 126.957 140.541 126.693 140.541ZM89.0318 139.601H126.234L126.997 134.513H89.7945L89.0318 139.601Z" fill="black"/>
<path d="M140.391 150.481H103.764C103.613 150.481 103.467 150.422 103.368 150.32C103.269 150.219 103.222 150.082 103.243 149.947L104.147 143.919C104.183 143.685 104.404 143.512 104.668 143.512H141.295C141.446 143.512 141.592 143.571 141.691 143.672C141.79 143.773 141.837 143.91 141.815 144.045L140.911 150.074C140.876 150.308 140.655 150.481 140.391 150.481ZM104.364 149.54H139.932L140.695 144.452H105.127L104.364 149.54Z" fill="black"/>
<path d="M164.645 160.416H118.295C118.144 160.416 117.998 160.357 117.899 160.256C117.8 160.155 117.753 160.018 117.775 159.883L118.679 153.854C118.714 153.62 118.935 153.447 119.199 153.447H165.549C165.7 153.447 165.846 153.506 165.944 153.608C166.043 153.709 166.09 153.846 166.069 153.981L165.165 160.009C165.13 160.243 164.909 160.416 164.645 160.416ZM118.895 159.476H164.186L164.949 154.388H119.658L118.895 159.476Z" fill="black"/>
<path d="M127.123 90.3779H80.3398L81.2462 84.3496H128.027L127.123 90.3779Z" fill="black"/>
<path d="M185.26 100.787H112.974C112.824 100.787 112.678 100.728 112.579 100.627C112.48 100.526 112.433 100.389 112.454 100.254L113.358 94.2254C113.394 93.9913 113.615 93.8184 113.878 93.8184H186.164C186.315 93.8184 186.461 93.8774 186.559 93.9787C186.658 94.0799 186.705 94.217 186.684 94.352L185.78 100.38C185.745 100.614 185.524 100.787 185.26 100.787ZM113.575 99.8467H184.801L185.564 94.7591H114.338L113.575 99.8467Z" fill="black"/>
<path d="M124.722 110.239H77.9414L78.8454 104.211H125.626L124.722 110.239Z" fill="black"/>
<path d="M182.869 120.649H110.584C110.433 120.649 110.287 120.59 110.188 120.488C110.089 120.387 110.042 120.25 110.064 120.115L110.968 114.087C111.003 113.853 111.224 113.68 111.488 113.68H183.773C183.924 113.68 184.07 113.739 184.169 113.84C184.268 113.941 184.315 114.078 184.294 114.213L183.39 120.242C183.354 120.476 183.133 120.649 182.869 120.649ZM111.184 119.708H182.41L183.173 114.62H111.947L111.184 119.708Z" fill="black"/>
<path d="M125.758 169.767H67.5898L68.4585 163.977H126.626L125.758 169.767Z" fill="black"/>
<path d="M163.414 180.295H68.4276C68.2769 180.295 68.131 180.236 68.0321 180.135C67.9332 180.034 67.8862 179.897 67.9073 179.762L68.8113 173.733C68.8466 173.499 69.0679 173.326 69.3316 173.326H164.318C164.468 173.326 164.614 173.385 164.713 173.486C164.812 173.588 164.859 173.725 164.838 173.86L163.934 179.888C163.899 180.122 163.677 180.295 163.414 180.295ZM69.0279 179.354H162.955L163.717 174.267H69.7906L69.0279 179.354Z" fill="black"/>
<path d="M163.09 190.235H108.556C108.406 190.235 108.26 190.176 108.161 190.074C108.062 189.973 108.015 189.836 108.036 189.701L108.94 183.673C108.976 183.439 109.197 183.266 109.46 183.266H163.994C164.144 183.266 164.29 183.325 164.389 183.426C164.488 183.527 164.535 183.664 164.514 183.799L163.61 189.828C163.575 190.062 163.353 190.235 163.09 190.235ZM109.157 189.294H162.631L163.393 184.206H109.92L109.157 189.294Z" fill="black"/>
<path d="M140.222 209.639H103.754L100.805 203.613H141.126L140.222 209.639Z" fill="black"/>
<path d="M173.997 199.387H121.693C121.543 199.387 121.397 199.328 121.298 199.227C121.199 199.125 121.152 198.988 121.173 198.853L122.077 192.825C122.112 192.591 122.334 192.418 122.597 192.418H174.901C175.052 192.418 175.198 192.477 175.296 192.578C175.395 192.68 175.442 192.817 175.421 192.952L174.517 198.98C174.482 199.214 174.261 199.387 173.997 199.387ZM122.294 198.446H173.538L174.301 193.359H123.056L122.294 198.446Z" fill="black"/>
<path d="M151 220.047H109.262C108.972 220.047 108.737 219.836 108.737 219.577C108.737 219.317 108.972 219.106 109.262 219.106H150.539L151.301 214.019H107.322C107.032 214.019 106.797 213.808 106.797 213.548C106.797 213.289 107.032 213.078 107.322 213.078H151.904C152.055 213.078 152.201 213.137 152.3 213.238C152.398 213.34 152.446 213.477 152.424 213.612L151.52 219.64C151.485 219.874 151.264 220.047 151 220.047Z" fill="black"/>
<path d="M413.716 352.198L412.407 363.458L403.965 364.35V350.998L413.716 352.198Z" fill="white"/>
<path d="M403.966 364.82C403.839 364.82 403.714 364.778 403.618 364.702C403.505 364.613 403.441 364.484 403.441 364.349V351C403.441 350.865 403.507 350.734 403.62 350.646C403.736 350.557 403.886 350.515 404.037 350.534L413.788 351.732C414.068 351.766 414.268 351.993 414.237 352.247L412.926 363.506C412.9 363.725 412.71 363.898 412.465 363.923L404.023 364.816C404.002 364.816 403.983 364.82 403.962 364.82H403.966ZM404.491 351.538V363.82L411.928 363.033L413.143 352.601L404.491 351.538Z" fill="black"/>
<path d="M402.636 383.951C406.156 384.398 411.925 384.79 418.701 383.944C420.916 383.668 422.385 381.726 421.85 379.768C420.36 374.303 417.79 363.932 413.38 359.125L412.286 361.732L410.772 359.279C410.565 358.943 410.193 358.715 409.769 358.667L406.454 358.287C405.762 358.207 405.12 358.621 404.976 359.236L404.449 361.498L402.429 358.534L401.532 369.606C401.339 371.979 400.941 374.332 400.343 376.648L399.439 380.141C399.169 381.987 400.593 383.693 402.636 383.953V383.951Z" fill="white"/>
<path d="M410.617 384.914C407.387 384.914 404.635 384.68 402.564 384.416C400.247 384.123 398.614 382.176 398.92 380.08L399.833 376.542C400.424 374.256 400.819 371.91 401.01 369.571L401.907 358.5C401.924 358.295 402.086 358.124 402.307 358.076C402.529 358.027 402.759 358.114 402.879 358.289L404.209 360.24L404.466 359.141C404.664 358.291 405.57 357.709 406.526 357.82L409.84 358.198C410.427 358.265 410.949 358.584 411.236 359.048L412.199 360.609L412.894 358.957C412.96 358.801 413.115 358.687 413.299 358.66C413.487 358.632 413.671 358.696 413.791 358.824C417.976 363.387 420.523 372.83 422.046 378.472L422.367 379.656C422.656 380.719 422.43 381.849 421.743 382.754C421.06 383.657 419.98 384.26 418.777 384.41C415.841 384.777 413.091 384.914 410.62 384.914H410.617ZM402.835 360.031L402.055 369.639C401.862 372.026 401.457 374.42 400.855 376.753L399.951 380.246C399.727 381.79 400.963 383.262 402.71 383.484C406.3 383.94 411.973 384.309 418.628 383.478C419.537 383.364 420.351 382.908 420.869 382.225C421.39 381.539 421.562 380.683 421.34 379.877L421.02 378.692C419.591 373.391 417.244 364.692 413.539 360.079L412.776 361.895C412.705 362.066 412.526 362.187 412.322 362.199C412.11 362.21 411.924 362.117 411.825 361.957L410.311 359.504C410.184 359.299 409.958 359.16 409.701 359.132L406.387 358.753C405.968 358.704 405.575 358.959 405.488 359.333L404.96 361.594C404.916 361.784 404.748 361.929 404.537 361.961C404.325 361.995 404.11 361.908 404 361.742L402.832 360.029L402.835 360.031Z" fill="black"/>
<path d="M410.354 381.569C406.062 381.569 403.451 380.746 403.291 380.693C403.018 380.605 402.879 380.335 402.976 380.092C403.075 379.848 403.374 379.721 403.647 379.81C403.703 379.829 409.276 381.571 417.498 379.881C417.781 379.822 418.063 379.98 418.127 380.233C418.191 380.487 418.016 380.74 417.734 380.797C414.935 381.373 412.444 381.567 410.354 381.567V381.569Z" fill="black"/>
<path d="M414.43 372.92C414.43 372.92 414.418 372.92 414.411 372.92L406.499 372.683C406.209 372.675 405.981 372.458 405.993 372.198C406.002 371.939 406.254 371.73 406.534 371.743L414.446 371.979C414.736 371.987 414.964 372.205 414.952 372.464C414.943 372.719 414.71 372.92 414.427 372.92H414.43Z" fill="black"/>
<path d="M374.184 346.199L372.918 362.63H362.762L362.289 346.199H374.184Z" fill="white"/>
<path d="M372.918 363.102H362.76C362.475 363.102 362.242 362.9 362.235 362.645L361.762 346.213C361.757 346.087 361.811 345.964 361.91 345.874C362.009 345.783 362.146 345.732 362.287 345.732H374.18C374.326 345.732 374.465 345.787 374.564 345.882C374.663 345.977 374.714 346.106 374.703 346.234L373.438 362.666C373.42 362.912 373.191 363.104 372.913 363.104L372.918 363.102ZM363.273 362.162H372.428L373.622 346.671H362.828L363.273 362.162Z" fill="black"/>
<path d="M375.577 371.909C375.603 373.464 374.426 374.828 372.747 375.181C366.909 376.406 353.754 379.136 350.002 379.64C345.131 380.293 339.147 378.948 336.574 376.379C334.001 373.81 342.337 367.676 346.292 365.444C352.168 362.128 357.813 355.577 360.181 355.282C362.549 354.986 366.968 361.181 366.968 361.181L374.19 358.446C374.19 358.446 375.45 364.029 375.579 371.911L375.577 371.909Z" fill="white"/>
<path d="M347.454 380.274C342.977 380.274 338.363 378.869 336.181 376.692C335.677 376.188 335.479 375.559 335.594 374.821C336.098 371.59 342.829 366.84 346.009 365.045C348.895 363.416 351.697 361.02 354.168 358.905C356.829 356.629 358.752 354.984 360.105 354.815C362.478 354.517 366.017 359.033 367.163 360.592L373.981 358.01C374.127 357.955 374.291 357.962 374.43 358.027C374.569 358.093 374.668 358.211 374.701 358.35C374.713 358.407 375.97 364.066 376.099 371.902C376.128 373.667 374.767 375.239 372.862 375.638C367.274 376.81 353.862 379.595 350.075 380.103C349.218 380.219 348.337 380.274 347.452 380.274H347.454ZM360.357 355.741C360.32 355.741 360.284 355.743 360.249 355.747C359.23 355.874 357.123 357.677 354.891 359.586C352.384 361.731 349.543 364.163 346.567 365.842C343.311 367.679 337.056 372.237 336.633 374.952C336.562 375.408 336.668 375.773 336.962 376.064C339.363 378.46 345.056 379.827 349.922 379.173C353.672 378.669 367.048 375.893 372.625 374.722C374.051 374.423 375.073 373.241 375.049 371.915C374.946 365.589 374.101 360.712 373.788 359.103L367.168 361.611C366.932 361.699 366.659 361.624 366.52 361.432C364.804 359.027 361.805 355.739 360.357 355.739V355.741Z" fill="black"/>
<path d="M347.525 376.244C344.349 376.244 341.51 375.776 339.46 374.574C339.218 374.43 339.149 374.139 339.309 373.922C339.467 373.705 339.794 373.643 340.037 373.787C347.57 378.21 367.646 371.665 371.594 370.309C371.864 370.216 372.168 370.336 372.272 370.579C372.375 370.821 372.241 371.093 371.97 371.186C367.804 372.618 356.367 376.244 347.528 376.244H347.525Z" fill="black"/>
<path d="M358.806 367.307C358.674 367.307 358.54 367.263 358.439 367.172L354.232 363.481C354.025 363.3 354.02 363.002 354.225 362.817C354.428 362.631 354.762 362.629 354.967 362.81L359.174 366.501C359.381 366.683 359.385 366.98 359.181 367.166C359.077 367.261 358.94 367.307 358.806 367.307Z" fill="black"/>
<path d="M416.596 239.087C416.596 239.087 419.743 290.452 421.391 308.182C423.039 325.913 417.54 354.415 417.54 354.415L401.862 353.673C401.862 353.673 400.788 319.018 399.623 309.395C399.623 309.395 393.001 296.349 391.037 284.714C389.074 273.08 382.388 254.7 382.388 254.7C382.388 254.7 376.96 346.432 376.435 353.637C376.435 353.637 364.142 354.131 359.732 351.629C359.732 351.629 351.921 318.18 353.044 299.983C354.165 281.785 352.934 236.57 352.934 236.57L416.596 239.087Z" fill="#13187E"/>
<path d="M417.542 354.885C417.542 354.885 417.523 354.885 417.513 354.885L401.835 354.143C401.562 354.13 401.345 353.932 401.338 353.687C401.329 353.341 400.258 319.118 399.111 309.521C398.586 308.469 392.397 295.912 390.521 284.786C389.012 275.832 384.638 262.716 382.762 257.312C381.875 272.284 377.43 347.224 376.961 353.67C376.945 353.909 376.728 354.099 376.46 354.109C375.949 354.13 363.95 354.579 359.454 352.029C359.334 351.962 359.249 351.852 359.221 351.728C359.143 351.392 351.41 318.011 352.521 299.96C353.628 281.989 352.422 237.036 352.41 236.585C352.406 236.454 352.465 236.329 352.568 236.237C352.672 236.146 352.813 236.1 352.959 236.102L416.621 238.618C416.892 238.629 417.109 238.82 417.123 239.063C417.156 239.576 420.289 290.624 421.916 308.146C423.549 325.733 418.114 354.212 418.057 354.499C418.013 354.725 417.794 354.89 417.539 354.89L417.542 354.885ZM402.374 353.225L417.101 353.923C417.763 350.355 422.384 324.535 420.87 308.222C419.321 291.542 416.407 244.522 416.101 239.538L353.474 237.061C353.604 242.079 354.616 283.031 353.571 300.008C352.512 317.21 359.562 348.528 360.205 351.333C364.08 353.352 373.703 353.236 375.945 353.181C376.611 343.48 381.813 255.577 381.867 254.674C381.882 254.448 382.072 254.262 382.324 254.233C382.571 254.203 382.814 254.338 382.892 254.554C382.957 254.737 389.613 273.102 391.559 284.642C393.487 296.077 400.039 309.07 400.102 309.198C400.126 309.245 400.14 309.293 400.147 309.342C401.23 318.292 402.247 349.188 402.377 353.225H402.374Z" fill="black"/>
<path d="M407.302 309.861H402.509C402.22 309.861 401.984 309.65 401.984 309.39C401.984 309.131 402.22 308.92 402.509 308.92H407.302C407.592 308.92 407.827 309.131 407.827 309.39C407.827 309.65 407.592 309.861 407.302 309.861Z" fill="black"/>
<path d="M368.372 336.541C368.087 336.541 367.852 336.336 367.847 336.079C367.68 327.847 357.171 312.367 357.065 312.211C356.914 311.989 356.992 311.7 357.239 311.563C357.486 311.428 357.809 311.498 357.96 311.719C358.4 312.362 368.725 327.572 368.897 336.06C368.902 336.32 368.671 336.535 368.381 336.539H368.372V336.541Z" fill="black"/>
<path d="M343.273 157.831C342.404 157.77 335.179 168.884 331.78 174.19C330.815 175.699 328.659 176.19 327.013 175.279L300.447 160.584C298.279 159.383 296.417 157.778 295.016 155.865C292.798 152.836 291.478 149.757 288.507 147.605C286.091 145.854 283.646 143.91 282.913 143.401C282.457 143.083 280.324 144.441 281.929 146.854C282.421 147.595 284.265 149.099 284.771 149.78C285.576 150.868 285.576 152.317 284.681 153.347C283.728 154.443 282.932 156.203 284.003 158.651C285.585 162.271 289.175 163.167 291.207 163.378C292.229 163.484 293.166 163.927 293.844 164.623L318.359 189.793C322.164 193.697 328.522 194.579 333.449 191.883C341.42 187.521 351.682 178.73 359.074 167.618L343.278 157.829L343.273 157.831Z" fill="white"/>
<path d="M327.282 193.915C323.812 193.915 320.392 192.601 317.96 190.106L293.444 164.936C292.851 164.326 292.034 163.94 291.144 163.849C289.019 163.63 285.2 162.685 283.512 158.827C282.335 156.134 283.272 154.206 284.266 153.063C285.007 152.208 285.035 150.995 284.332 150.044C284.122 149.762 283.599 149.266 283.091 148.787C282.441 148.173 281.77 147.54 281.476 147.098C280.313 145.351 280.878 143.959 281.711 143.297C282.244 142.875 282.856 142.769 283.232 143.031C283.548 143.25 284.164 143.723 284.946 144.32C285.996 145.125 287.437 146.226 288.835 147.239C291.01 148.814 292.31 150.837 293.687 152.98C294.24 153.841 294.812 154.731 295.452 155.606C296.792 157.435 298.614 159.017 300.721 160.183L327.287 174.879C327.96 175.252 328.754 175.362 329.519 175.187C330.286 175.012 330.929 174.575 331.324 173.957C342.007 157.273 342.787 157.33 343.314 157.363C343.406 157.37 343.495 157.399 343.571 157.446L359.367 167.235C359.595 167.376 359.661 167.65 359.52 167.863C351.572 179.81 340.979 188.315 333.716 192.289C331.713 193.386 329.486 193.917 327.28 193.917L327.282 193.915ZM282.684 143.841C282.54 143.889 282.255 144.069 282.06 144.408C281.817 144.832 281.674 145.558 282.378 146.617C282.613 146.969 283.27 147.591 283.851 148.139C284.414 148.671 284.946 149.173 285.205 149.523C286.156 150.812 286.111 152.466 285.092 153.638C283.891 155.02 283.687 156.65 284.487 158.481C285.975 161.879 289.369 162.717 291.262 162.913C292.413 163.031 293.468 163.531 294.233 164.316L318.749 189.485C322.388 193.223 328.455 194.065 333.168 191.483C340.247 187.608 350.543 179.357 358.364 167.756L343.262 158.397C342.33 159.253 339.025 163.82 332.235 174.425C331.696 175.267 330.823 175.862 329.778 176.1C328.735 176.338 327.654 176.189 326.736 175.68L300.17 160.985C297.934 159.747 295.999 158.066 294.574 156.123C293.915 155.225 293.336 154.322 292.776 153.449C291.45 151.386 290.198 149.437 288.174 147.971C286.763 146.95 285.318 145.843 284.263 145.035C283.567 144.501 283.004 144.071 282.681 143.839L282.684 143.841Z" fill="black"/>
<path d="M434.452 178.503C434.452 178.503 436.22 149.241 411.53 141.021C392.412 134.655 368 137.401 360.349 139.779C341.511 145.634 332.238 167.935 332.238 167.935L354.315 170.724C354.315 170.724 347.66 234.799 350.546 249.09C350.546 249.09 368.313 250.958 375.848 248.282C383.384 245.605 408.161 241.855 420.004 246.763L417.853 178.229L434.449 178.503H434.452Z" fill="black"/>
<path d="M363.087 250.201C356.75 250.201 350.907 249.6 350.49 249.556C350.259 249.533 350.076 249.377 350.033 249.172C347.262 235.447 353.115 177.305 353.75 171.125L332.168 168.4C332.01 168.381 331.871 168.296 331.789 168.174C331.707 168.051 331.692 167.902 331.749 167.769C331.843 167.543 341.325 145.193 360.18 139.334C368.532 136.739 392.998 134.347 411.716 140.578C421.973 143.993 429.249 151.648 432.757 162.713C435.394 171.036 434.982 178.45 434.979 178.526C434.963 178.775 434.732 178.971 434.454 178.971H434.445L418.397 178.705L420.534 246.748C420.539 246.911 420.45 247.065 420.299 247.156C420.148 247.244 419.955 247.259 419.788 247.189C407.963 242.289 383.457 246.086 376.044 248.719C372.812 249.866 367.809 250.201 363.085 250.201H363.087ZM351.001 248.659C353.637 248.91 368.944 250.229 375.66 247.843C383.036 245.223 407.111 241.484 419.463 246.033L417.333 178.239C417.328 178.111 417.385 177.986 417.483 177.895C417.585 177.805 417.735 177.758 417.867 177.756L433.946 178.022C434.026 174.303 433.72 148.908 411.351 141.46C392.881 135.309 368.756 137.663 360.526 140.222C343.769 145.43 334.553 164.105 332.978 167.552L354.393 170.256C354.671 170.292 354.869 170.515 354.843 170.766C354.777 171.401 348.331 233.935 351.003 248.659H351.001Z" fill="white"/>
<path d="M403.68 233.107C403.65 233.107 403.619 233.105 403.589 233.101C374.769 228.507 366.339 210.411 366.257 210.23C366.149 209.989 366.278 209.715 366.549 209.618C366.815 209.521 367.123 209.637 367.232 209.878C367.312 210.055 375.551 227.676 403.772 232.173C404.057 232.219 404.248 232.462 404.198 232.719C404.153 232.947 403.932 233.107 403.683 233.107H403.68Z" fill="white"/>
<path d="M351 202.072H387.171L375.84 165.635H339.672L351 202.072Z" fill="white"/>
<path d="M387.173 202.543H351.002C350.767 202.543 350.56 202.401 350.496 202.199L339.168 165.759C339.123 165.618 339.156 165.466 339.255 165.348C339.354 165.23 339.509 165.162 339.674 165.162H375.845C376.081 165.162 376.288 165.303 376.351 165.506L387.679 201.946C387.724 202.087 387.691 202.239 387.592 202.357C387.493 202.475 387.338 202.543 387.173 202.543ZM351.402 201.602H386.483L375.447 166.103H340.366L351.402 201.602Z" fill="black"/>
<path d="M430.165 178.528L414.258 177.881C414.258 177.881 414.138 189.961 412.704 190.178C407.591 190.946 396.882 190.986 389.914 190.226C387.487 189.963 385.566 188.288 385.109 186.122C384.765 184.487 383.781 182.566 381.291 181.182C378.882 179.845 381.258 184.051 379.005 186.759C377.795 188.214 373.965 187.569 368.743 186.478C363.52 185.388 362.194 190.42 368.046 193.462C374.393 196.761 378.423 196.39 380.448 196.776C384.478 197.546 420.117 202.583 425.619 199.887C429.868 197.803 430.162 178.531 430.162 178.531L430.165 178.528Z" fill="white"/>
<path d="M418.707 201.151C405.995 201.151 382.357 197.62 380.342 197.236C379.937 197.158 379.419 197.111 378.821 197.057C376.453 196.839 372.872 196.512 367.788 193.87C364.103 191.954 363.199 189.328 363.92 187.7C364.452 186.5 366.029 185.428 368.866 186.019C373.574 187.004 377.557 187.717 378.588 186.477C379.593 185.266 379.579 183.669 379.567 182.503C379.558 181.541 379.551 180.845 380.128 180.554C380.613 180.309 381.182 180.566 381.568 180.779C383.755 181.992 385.159 183.808 385.627 186.031C386.046 188.023 387.795 189.518 389.98 189.756C396.847 190.503 407.355 190.486 412.542 189.723C413.215 188.987 413.683 183.051 413.735 177.875C413.735 177.746 413.796 177.626 413.9 177.537C414.003 177.449 414.142 177.402 414.284 177.409L430.19 178.056C430.473 178.067 430.697 178.278 430.692 178.533C430.661 180.535 430.266 198.143 425.875 200.296C424.635 200.904 422.047 201.149 418.709 201.149L418.707 201.151ZM367.373 186.797C366.158 186.797 365.252 187.238 364.894 188.046C364.334 189.311 365.165 191.419 368.312 193.055C373.204 195.597 376.648 195.913 378.927 196.12C379.556 196.177 380.1 196.228 380.559 196.314C384.667 197.099 420.089 202.06 425.369 199.472C428.545 197.915 429.505 184.57 429.632 178.978L414.778 178.373C414.759 179.354 414.705 181.67 414.545 183.977C414.135 189.944 413.455 190.541 412.791 190.64C407.553 191.427 396.835 191.452 389.853 190.691C387.214 190.404 385.1 188.601 384.596 186.207C384.177 184.222 382.974 182.665 381.018 181.579C380.848 181.486 380.735 181.44 380.665 181.416C380.608 181.634 380.613 182.123 380.617 182.494C380.629 183.72 380.646 185.574 379.429 187.038C378.014 188.74 374.059 188.069 368.626 186.934C368.183 186.841 367.762 186.797 367.373 186.797Z" fill="black"/>
<path d="M375.386 140.301C375.386 140.301 379.506 138.031 379.464 136.702L380.638 129.887C380.65 129.263 380.222 128.704 379.572 128.499L374.701 127.002C374.08 126.806 373.679 126.257 373.722 125.66L374.101 120.244L372.192 118.729C372.041 118.611 372.025 118.407 372.152 118.267L375.167 114.975C376.154 113.73 377.142 110.754 377.95 110.959C377.95 110.959 395.133 109.181 395.968 116.943C396.088 118.067 395.712 119.189 394.984 120.107L393.463 122.028C391.936 123.958 391.131 126.325 391.401 128.689C391.458 129.181 392.171 132.345 392.649 134.437C392.92 135.625 393.656 136.681 394.723 137.417C396.065 138.343 397.698 139.523 397.432 139.601C397.432 139.601 395.53 140.853 392.527 141.963C387.192 143.933 381.126 143.444 376.196 140.748L375.379 140.301H375.386Z" fill="white"/>
<path d="M385.757 143.627C382.348 143.627 378.934 142.792 375.933 141.149L375.116 140.702C374.961 140.617 374.864 140.465 374.864 140.301C374.864 140.136 374.958 139.985 375.114 139.9C376.971 138.875 378.963 137.367 378.941 136.715C378.941 136.688 378.941 136.658 378.948 136.631L380.118 129.852C380.114 129.44 379.829 129.078 379.403 128.943L374.537 127.445C373.694 127.179 373.148 126.432 373.204 125.629L373.567 120.442L371.851 119.08C371.488 118.791 371.444 118.303 371.752 117.966L374.768 114.673C375.09 114.264 375.457 113.56 375.81 112.88C376.535 111.484 377.119 110.37 377.981 110.478C379.092 110.37 389.311 109.493 394.092 112.954C395.519 113.988 396.329 115.312 396.501 116.892C396.63 118.097 396.249 119.333 395.423 120.375L393.902 122.296C392.383 124.214 391.684 126.466 391.934 128.637C391.957 128.841 392.15 129.854 393.174 134.338C393.419 135.414 394.088 136.373 395.055 137.04C398.09 139.135 398.052 139.329 397.991 139.649C397.967 139.774 397.876 139.894 397.755 139.972C397.675 140.025 395.766 141.271 392.739 142.391C390.509 143.214 388.137 143.621 385.761 143.621L385.757 143.627ZM376.375 140.29L376.479 140.347C381.291 142.978 387.218 143.421 392.336 141.529C394.441 140.75 396.006 139.894 396.713 139.478C396.402 139.217 395.754 138.719 394.413 137.793C393.245 136.987 392.44 135.829 392.143 134.534C391.355 131.086 390.933 129.137 390.886 128.74C390.611 126.342 391.376 123.861 393.043 121.758L394.563 119.837C395.241 118.978 395.557 117.968 395.451 116.989C395.307 115.652 394.646 114.574 393.429 113.692C388.817 110.351 378.12 111.417 378.014 111.427C377.979 111.431 377.943 111.431 377.908 111.427C377.618 111.623 377.084 112.655 376.757 113.281C376.385 113.998 375.999 114.741 375.596 115.247L372.651 118.464L374.45 119.892C374.57 119.989 374.636 120.128 374.626 120.273L374.247 125.69C374.219 126.076 374.478 126.432 374.876 126.559L379.742 128.057C380.608 128.331 381.175 129.071 381.161 129.898C381.161 129.919 381.159 129.94 381.154 129.961L379.984 136.74C379.961 137.958 377.651 139.516 376.368 140.29H376.375Z" fill="black"/>
<path d="M377.386 99.1439C381.301 98.9646 376.35 102.578 390.854 98.8444C396.631 97.3574 393.663 103.428 395.162 103.046C400.699 101.635 400.511 101.677 403.201 102.335C404.984 102.772 406.121 105.759 405.765 107.984C405.297 110.92 401.62 115.581 398.328 120.511C396.624 123.063 393.606 123.293 389.955 119.496C389.566 119.091 391.553 116.712 390.515 115.685C387.822 113.017 386.624 117.047 384.449 115.803C382.36 114.609 381.499 113.835 379.291 112.029C376.621 109.844 372.137 113.247 370.59 108.326C369.782 105.761 372.024 99.3928 377.384 99.146L377.386 99.1439Z" fill="black"/>
<path d="M249.219 368.029C249.219 368.029 250.418 368.033 251.567 367.303C255.119 365.046 262.504 360.005 267.549 360.636C275.998 361.691 276.998 367.873 276.998 367.873C276.998 367.873 284.124 367.637 283.983 371.885C283.874 375.146 281.8 379.288 276.04 381.568C268.187 384.675 260.314 387.044 251.623 381.944C249.935 380.955 247.934 380.493 245.928 380.672C241.046 381.113 168.285 382.518 168.285 382.518C151.641 382.518 136.37 374.243 128.642 361.035L113.305 334.825L130.876 290.836L158.428 348.187C171.779 364.513 247.828 368.316 249.217 368.033L249.219 368.029Z" fill="white"/>
<path d="M262.233 385.368C258.713 385.368 255.083 384.537 251.336 382.337C249.737 381.398 247.835 380.974 245.982 381.141C241.135 381.577 171.27 382.929 168.297 382.988C151.392 382.988 136.022 374.661 128.178 361.252L112.841 335.043C112.772 334.927 112.763 334.789 112.812 334.665L130.384 290.676C130.456 290.495 130.645 290.37 130.861 290.364C131.076 290.353 131.276 290.472 131.36 290.649L158.889 347.949C171.828 363.615 246.187 367.894 249.127 367.568C249.165 367.559 249.179 367.559 249.219 367.559C249.25 367.559 250.286 367.54 251.263 366.92L252.087 366.393C256.067 363.836 262.729 359.559 267.621 360.17C275.082 361.1 277.01 365.958 277.422 367.401C278.563 367.42 281.621 367.616 283.326 369.135C284.147 369.867 284.545 370.795 284.51 371.898C284.456 373.522 283.7 379.053 276.254 381.999C271.779 383.771 267.111 385.37 262.233 385.37V385.368ZM246.776 380.162C248.574 380.162 250.368 380.643 251.912 381.548C260.42 386.543 268.08 384.203 275.828 381.136C282.711 378.413 283.408 373.353 283.457 371.868C283.486 371.025 283.201 370.35 282.586 369.801C280.83 368.238 277.057 368.34 277.017 368.342C277.01 368.342 277.005 368.342 276.998 368.342C276.739 368.342 276.515 368.171 276.478 367.939C276.438 367.703 275.411 362.092 267.475 361.101C263.003 360.544 256.298 364.844 252.696 367.156L251.868 367.686C250.594 368.493 249.255 368.487 249.215 368.498C247.392 368.588 228.392 367.656 208.225 364.798C189.203 362.102 165.05 357.078 158.004 348.46C157.981 348.43 157.962 348.401 157.945 348.367L130.92 292.115L113.876 334.785L129.105 360.814C136.768 373.91 151.78 382.046 168.282 382.046C168.998 382.031 241.067 380.637 245.874 380.204C246.173 380.177 246.474 380.164 246.773 380.164L246.776 380.162Z" fill="black"/>
<path d="M230.109 356.237L237.146 345.201L242.923 348.559C243.241 348.745 243.507 348.996 243.697 349.289L244.043 349.823C244.479 350.493 245.284 350.907 246.139 350.896C246.602 350.892 247.061 351.01 247.457 351.24L290.412 376.167C290.765 376.372 291.09 376.619 291.373 376.901L300.055 385.524L287.971 383.077C287.314 382.944 286.676 382.734 286.074 382.453L240.868 361.278C240.482 361.097 240.157 360.825 239.928 360.493L239.872 360.409C239.434 359.77 238.655 359.378 237.828 359.382H237.412C237.028 359.384 236.649 359.302 236.305 359.141L230.112 356.241L230.109 356.237Z" fill="white"/>
<path d="M300.053 385.992C300.015 385.992 299.975 385.988 299.937 385.981L287.854 383.535C287.152 383.393 286.472 383.168 285.829 382.868L240.623 361.693C240.152 361.474 239.757 361.143 239.479 360.738L239.422 360.655C239.081 360.158 238.474 359.852 237.833 359.852H237.41C237.41 359.852 237.403 359.852 237.398 359.852C236.936 359.852 236.473 359.748 236.058 359.557L229.865 356.656C229.738 356.597 229.643 356.494 229.603 356.371C229.563 356.249 229.58 356.116 229.65 356.007L236.687 344.971C236.76 344.859 236.878 344.777 237.019 344.747C237.16 344.718 237.308 344.739 237.428 344.811L243.205 348.169C243.592 348.392 243.919 348.7 244.149 349.057L244.496 349.59C244.832 350.111 245.449 350.432 246.108 350.432C246.127 350.432 246.146 350.432 246.167 350.432C246.723 350.432 247.266 350.577 247.74 350.852L290.695 375.779C291.088 376.007 291.446 376.281 291.759 376.591L300.441 385.214C300.594 385.366 300.62 385.589 300.505 385.766C300.408 385.912 300.234 385.998 300.05 385.998L300.053 385.992ZM237.833 358.909C238.836 358.909 239.787 359.388 240.317 360.162L240.373 360.244C240.552 360.506 240.807 360.719 241.11 360.86L286.316 382.035C286.877 382.297 287.472 382.493 288.087 382.617L298.555 384.737L290.982 377.215C290.73 376.964 290.443 376.745 290.125 376.561L247.17 351.634C246.861 351.455 246.511 351.351 246.143 351.366C246.132 351.366 246.12 351.366 246.108 351.366C245.075 351.366 244.109 350.866 243.587 350.056L243.241 349.525C243.092 349.295 242.883 349.097 242.633 348.953L237.323 345.865L230.832 356.045L236.543 358.719C236.809 358.844 237.099 358.905 237.403 358.909H237.822C237.822 358.909 237.829 358.909 237.833 358.909Z" fill="black"/>
<path d="M288.239 381.512C288.159 381.512 288.076 381.495 287.999 381.459C287.742 381.339 287.641 381.056 287.773 380.824L290.353 376.346C290.487 376.116 290.802 376.025 291.061 376.144C291.318 376.264 291.419 376.546 291.287 376.779L288.707 381.256C288.613 381.419 288.429 381.512 288.241 381.512H288.239Z" fill="black"/>
<path d="M227.138 339.737L237.373 345.28L230.151 356.299L219.915 350.756C218.039 349.739 217.396 347.579 218.479 345.928L221.782 340.889C222.865 339.237 225.261 338.722 227.138 339.737Z" fill="black"/>
<path d="M230.151 356.77C230.057 356.77 229.963 356.746 229.88 356.702L219.642 351.159C217.526 350.011 216.801 347.558 218.025 345.69L221.328 340.651C221.914 339.756 222.858 339.123 223.983 338.868C225.146 338.605 226.363 338.771 227.406 339.336L237.642 344.88C237.887 345.012 237.969 345.299 237.823 345.521L230.601 356.54C230.53 356.647 230.412 356.727 230.276 356.757C230.233 356.767 230.191 356.772 230.146 356.772L230.151 356.77ZM225.075 339.687C224.798 339.687 224.517 339.718 224.244 339.779C223.392 339.973 222.679 340.452 222.236 341.127L218.934 346.166C217.999 347.594 218.562 349.474 220.188 350.353L229.97 355.65L236.66 345.443L226.867 340.14C226.314 339.841 225.697 339.687 225.075 339.687Z" fill="black"/>
<path d="M240.233 358.276C240.141 358.276 240.047 358.255 239.962 358.209C239.712 358.076 239.632 357.785 239.783 357.563L243.267 352.381C243.415 352.157 243.74 352.086 243.988 352.221C244.237 352.353 244.317 352.644 244.166 352.866L240.682 358.048C240.583 358.196 240.409 358.276 240.233 358.276Z" fill="black"/>
<path d="M260.791 362.661C260.694 362.661 260.6 362.638 260.513 362.589L247.695 355.38C247.45 355.24 247.375 354.951 247.53 354.73C247.686 354.511 248.008 354.443 248.253 354.582L261.071 361.792C261.316 361.931 261.391 362.22 261.236 362.442C261.137 362.583 260.965 362.661 260.791 362.661Z" fill="black"/>
<path d="M287.51 377.513C287.415 377.513 287.319 377.489 287.232 377.441L282.225 374.648C281.977 374.511 281.902 374.22 282.057 374.001C282.21 373.779 282.535 373.714 282.78 373.851L287.787 376.644C288.035 376.781 288.11 377.072 287.955 377.291C287.856 377.435 287.684 377.513 287.51 377.513Z" fill="black"/>
<path d="M229.007 352.343C228.913 352.343 228.819 352.32 228.732 352.274L220.93 347.981C220.683 347.846 220.605 347.555 220.758 347.334C220.911 347.112 221.234 347.043 221.481 347.18L229.282 351.472C229.53 351.607 229.607 351.898 229.454 352.12C229.355 352.265 229.184 352.343 229.007 352.343Z" fill="white"/>
<path d="M249.218 368.03C249.218 368.03 259.704 366.86 266.38 367.691C271.58 368.336 286.971 365.027 283.756 373.947C283.064 375.868 282.699 377.146 280.792 378.96C279.749 379.952 276.896 381.994 275.281 382.635C267.418 385.746 260.295 387.05 251.596 381.93C249.92 380.945 247.924 380.494 245.93 380.673C244.769 380.779 248.849 368.106 249.218 368.032V368.03Z" fill="white"/>
<path d="M263.311 385.832C259.465 385.832 255.559 384.822 251.308 382.32C249.728 381.392 247.842 380.972 245.983 381.139C244.702 381.255 240.599 381.381 240.425 381.388C240.135 381.4 239.893 381.194 239.883 380.934C239.874 380.675 240.1 380.458 240.389 380.447C240.432 380.447 244.631 380.314 245.877 380.202C247.972 380.015 250.105 380.487 251.884 381.533C260.213 386.433 266.93 385.423 275.07 382.202C276.574 381.607 279.378 379.618 280.412 378.637C282.107 377.026 282.509 375.895 283.119 374.185L283.255 373.803C283.851 372.147 283.799 370.934 283.095 370.093C281.534 368.226 276.89 368.344 272.789 368.445C270.211 368.511 267.777 368.572 266.223 368.139C258.302 365.935 249.469 368.452 249.38 368.479C248.942 368.57 247.802 368.538 245.126 368.376C244.836 368.359 244.617 368.133 244.638 367.874C244.657 367.614 244.902 367.418 245.199 367.437C247.525 367.578 248.838 367.625 249.104 367.572C249.431 367.475 258.292 364.946 266.539 367.241C267.925 367.627 270.277 367.568 272.763 367.505C277.118 367.395 282.05 367.27 283.938 369.527C284.849 370.616 284.957 372.151 284.256 374.092L284.119 374.472C283.488 376.239 283.032 377.515 281.174 379.283C280.089 380.316 277.161 382.405 275.494 383.065C271.287 384.729 267.334 385.836 263.311 385.836V385.832Z" fill="black"/>
<path d="M87.9961 260.012C87.9961 260.012 120.285 263.844 131.01 275.553C144.591 290.381 150.446 312.412 152.348 321.936C152.906 324.732 152.84 327.599 152.15 330.373L151.359 333.553C148.57 344.779 137.143 352.562 124.325 351.963H124.967C122.896 351.868 119.873 351.254 118.995 349.569L115.603 344.024L115.283 346.023C112.733 360.778 126.043 380.991 126.043 380.991L87.8525 376.374C68.2309 374.608 49.5581 367.681 34.5789 356.19C26.4454 349.951 20.1575 344.112 17.4432 337.023C12.8362 324.983 13.2576 321.554 11.9652 306.947C11.0848 297.002 14.3429 287.067 21.304 279.28C31.535 267.837 51.2295 255.833 87.9937 260.012H87.9961Z" fill="#13187E"/>
<path d="M126.044 381.461C126.021 381.461 125.997 381.461 125.974 381.457L87.783 376.84C67.7119 375.034 49.1897 368.017 34.2387 356.546C26.9763 350.976 19.8551 344.772 16.9477 337.175C13.054 327 12.7339 322.96 11.957 313.201C11.8111 311.359 11.6486 309.313 11.4415 306.985C10.5375 296.759 13.8944 286.816 20.8956 278.986C30.9218 267.773 50.7104 255.299 88.0608 259.545C88.0608 259.545 88.0608 259.545 88.0632 259.545C89.3909 259.703 120.682 263.538 131.414 275.255C145.821 290.984 151.474 314.899 152.865 321.853C153.439 324.726 153.371 327.628 152.665 330.476L151.874 333.657C149.018 345.15 137.431 353.047 124.298 352.433C124.211 352.429 124.128 352.406 124.058 352.368C121.781 352.127 119.345 351.349 118.521 349.769L115.901 345.487L115.804 346.089C113.311 360.516 126.365 380.55 126.496 380.75C126.598 380.906 126.593 381.1 126.482 381.25C126.383 381.383 126.219 381.461 126.044 381.461ZM73.6843 259.636C45.8822 259.636 30.2179 270.064 21.7148 279.573C14.8832 287.215 11.6062 296.922 12.489 306.907C12.6962 309.24 12.8586 311.288 13.0046 313.131C13.772 322.804 14.0922 326.808 17.9412 336.867C20.7661 344.251 27.772 350.345 34.9214 355.829C49.7076 367.173 68.0297 374.115 87.9055 375.903L125.063 380.394C122.565 376.386 112.48 359.179 114.768 345.947L115.086 343.954C115.119 343.754 115.289 343.593 115.512 343.558C115.733 343.524 115.957 343.617 116.065 343.794L119.458 349.339C120.209 350.778 122.909 351.393 124.997 351.491C125.046 351.493 125.093 351.501 125.138 351.516C137.412 351.767 148.164 344.262 150.85 333.448L151.641 330.267C152.319 327.542 152.382 324.764 151.834 322.016C150.457 315.118 144.854 291.402 130.607 275.848C120.136 264.415 88.2515 260.513 87.929 260.473C82.8629 259.897 78.1194 259.632 73.6866 259.632L73.6843 259.636Z" fill="black"/>
<path d="M117.795 349.702C117.6 349.702 117.412 349.603 117.322 349.434L108.278 332.417C108.153 332.182 108.264 331.902 108.527 331.79C108.789 331.678 109.102 331.777 109.227 332.014L118.271 349.031C118.396 349.265 118.285 349.546 118.021 349.658C117.949 349.689 117.873 349.704 117.795 349.704V349.702Z" fill="black"/>
<path d="M93.0568 202.065L95.4274 200.65C97.3295 199.513 98.1322 197.355 97.3389 195.433C94.9565 189.667 86.2722 179.618 54.68 187.249C22.4663 195.033 28.1632 241.344 55.6051 251.241C83.0471 261.137 92.367 210.262 92.367 210.262L93.0568 202.065Z" fill="black"/>
<path d="M89.0984 203.125C89.4657 201.359 92.0905 200.969 93.084 202.53C95.4946 206.32 96.6434 208.959 97.0295 210.568C97.5474 212.732 95.3039 214.899 96.5116 217.219C97.7192 219.539 99.619 222.167 99.7908 226.344C99.9603 230.423 104.577 249.122 88.364 248.531C87.7284 248.508 87.194 248.957 87.2034 249.529C87.2434 252.374 87.4129 260.204 88.1191 264.441C88.5029 266.751 86.8974 268.947 84.3902 269.581C77.8999 271.225 65.8163 273.536 56.7717 270.902C54.42 270.216 53.1864 267.909 54.0245 265.825C55.0933 263.165 56.5881 255.69 55.6088 251.243C55.6088 251.243 61.0233 250.765 67.0545 248.286C76.3227 244.477 80.8826 235.2 78.3237 226.356C77.7728 224.454 76.5816 221.75 77.8222 218.885C81.0238 211.496 85.8145 218.923 85.8145 218.923L89.1032 203.129L89.0984 203.125Z" fill="white"/>
<path d="M66.3061 272.559C62.9515 272.559 59.6157 272.222 56.6048 271.345C55.343 270.978 54.3237 270.182 53.7375 269.109C53.1442 268.022 53.0689 266.797 53.5256 265.66C54.5591 263.087 56.0492 255.696 55.0888 251.33C55.0605 251.199 55.0935 251.064 55.1829 250.958C55.27 250.853 55.4066 250.783 55.5525 250.771C55.6067 250.766 60.9576 250.269 66.8311 247.856C75.7226 244.2 80.339 235.206 77.8107 226.47C77.7377 226.217 77.6529 225.949 77.5635 225.668C76.9844 223.84 76.191 221.336 77.3281 218.712C78.3097 216.449 79.5739 215.248 81.0876 215.145C82.9403 215.016 84.6117 216.613 85.5275 217.706L88.5807 203.038C88.7879 202.038 89.6448 201.285 90.763 201.116C91.8812 200.948 92.9735 201.412 93.5385 202.297C96.2504 206.562 97.2109 209.096 97.5405 210.471C97.7971 211.54 97.4628 212.576 97.138 213.578C96.7542 214.763 96.3917 215.883 96.9849 217.02C97.185 217.404 97.404 217.794 97.63 218.201C98.7599 220.226 100.165 222.745 100.314 226.326C100.335 226.822 100.427 227.577 100.535 228.455C101.102 233.061 102.157 241.638 97.4628 246.145C95.3394 248.183 92.2673 249.147 88.3406 249.001C88.1688 248.995 88.0158 249.047 87.8981 249.151C87.7851 249.25 87.7238 249.381 87.7262 249.522C87.7686 252.602 87.9428 260.212 88.6349 264.371C89.0563 266.9 87.2907 269.334 84.5293 270.033C80.1695 271.136 73.199 272.562 66.3061 272.562V272.559ZM56.2187 251.646C57.0262 256.272 55.5737 263.344 54.5144 265.981C54.1542 266.877 54.213 267.841 54.6791 268.697C55.1405 269.541 55.9386 270.163 56.9273 270.452C65.8565 273.053 77.8719 270.739 84.2398 269.128C86.495 268.556 87.9357 266.571 87.592 264.511C86.8905 260.294 86.7139 252.633 86.6716 249.535C86.6668 249.134 86.8411 248.756 87.1612 248.478C87.4814 248.2 87.9239 248.048 88.3783 248.062C91.9919 248.193 94.7838 247.333 96.6883 245.504C101.053 241.313 100.034 233.015 99.485 228.558C99.3696 227.628 99.2802 226.892 99.259 226.362C99.1201 222.985 97.8253 220.667 96.686 218.623C96.4552 218.21 96.2316 217.811 96.0292 217.421C95.2711 215.963 95.7255 214.559 96.1257 213.318C96.427 212.388 96.7095 211.511 96.5094 210.671C96.2528 209.6 95.4077 207.149 92.6228 202.768C92.2061 202.114 91.4787 201.966 90.9349 202.049C90.3958 202.131 89.7649 202.479 89.6095 203.215L86.3208 219.009C86.2808 219.203 86.1089 219.353 85.8947 219.387C85.6805 219.421 85.4615 219.33 85.3509 219.159C84.7718 218.265 82.905 215.97 81.1629 216.086C80.0871 216.16 79.1243 217.159 78.3027 219.056C77.2928 221.386 78.0014 223.62 78.5687 225.415C78.6605 225.702 78.7476 225.976 78.8206 226.238C81.4784 235.415 76.6171 244.869 67.2642 248.714C62.2782 250.764 57.763 251.458 56.214 251.65L56.2187 251.646Z" fill="black"/>
<path d="M41.7113 196.612C41.7113 196.612 25.861 189.832 14.3329 199.516C2.80482 209.2 -8.36311 230.503 8.93022 253.743C19.7968 268.348 23.9777 279.894 25.5832 286.458C26.12 288.656 29.3357 289.207 30.727 287.334C37.6857 277.973 50.3838 257.327 44.2349 237.926C35.9484 211.779 41.7136 196.61 41.7136 196.61L41.7113 196.612Z" fill="black"/>
<path d="M99.8323 224.518C99.6534 224.518 99.4792 224.436 99.3827 224.29C99.2343 224.067 99.3144 223.778 99.5616 223.645C104.764 220.848 101.393 212.945 100.458 210.991L85.7406 217.724C85.4816 217.842 85.1662 217.75 85.0343 217.52C84.9025 217.288 85.0037 217.005 85.2627 216.887L100.473 209.928C100.597 209.871 100.746 209.861 100.88 209.901C101.014 209.941 101.125 210.028 101.186 210.141C101.419 210.576 106.84 220.827 100.103 224.449C100.018 224.495 99.9264 224.516 99.8323 224.516V224.518Z" fill="black"/>
<path d="M100.255 229.924C100.121 229.924 99.9841 229.878 99.8829 229.785C99.6781 229.602 99.6805 229.302 99.8853 229.121L101.959 227.277C102.59 226.716 102.673 225.839 102.155 225.191L100.728 223.407C100.559 223.196 100.613 222.902 100.848 222.751C101.083 222.599 101.411 222.647 101.58 222.858L103.007 224.643C103.826 225.668 103.697 227.058 102.696 227.946L100.622 229.789C100.521 229.88 100.387 229.926 100.252 229.926L100.255 229.924Z" fill="black"/>
<path d="M83.5618 231.541C83.2228 231.541 82.865 231.507 82.4883 231.423C80.6921 231.024 79.1525 229.647 77.9072 227.335C77.7824 227.101 77.8907 226.82 78.152 226.707C78.4133 226.595 78.7264 226.692 78.8536 226.926C79.9529 228.968 81.2571 230.174 82.7284 230.507C84.3104 230.866 85.584 230.058 85.5957 230.05C85.8312 229.898 86.1584 229.944 86.3279 230.153C86.4974 230.362 86.4479 230.655 86.2149 230.809C86.1607 230.845 85.0825 231.541 83.5618 231.541Z" fill="black"/>
<path d="M37.7289 195.33C37.7289 195.33 52.4586 199.304 46.4274 211.962C46.4274 211.962 53.2308 207.564 53.0589 200.694C52.8871 193.826 47.2019 191.588 43.4117 191.664C39.6216 191.742 37.7266 195.33 37.7266 195.33H37.7289Z" fill="white"/>
<path d="M46.4271 212.432C46.3118 212.432 46.1941 212.398 46.0999 212.328C45.9163 212.196 45.8527 211.97 45.9446 211.776C47.6584 208.177 47.8067 204.967 46.3824 202.236C43.9436 197.553 37.6392 195.796 37.5757 195.779C37.4297 195.739 37.3097 195.644 37.2485 195.52C37.1873 195.395 37.1872 195.252 37.2532 195.127C37.3356 194.971 39.3342 191.276 43.3998 191.193C45.7421 191.147 48.1174 191.881 49.9254 193.21C51.5379 194.395 53.4824 196.654 53.5837 200.683C53.7602 207.718 47.0204 212.158 46.7332 212.343C46.6414 212.402 46.5331 212.432 46.4271 212.432ZM38.4938 195.07C40.2288 195.652 45.1277 197.614 47.3311 201.833C48.6471 204.355 48.7507 207.222 47.6442 210.377C49.577 208.662 52.6491 205.216 52.5361 200.704C52.4631 197.8 51.3308 195.458 49.2615 193.938C47.6678 192.767 45.4784 192.1 43.4257 192.134C40.7985 192.187 39.1317 194.153 38.4961 195.068L38.4938 195.07Z" fill="black"/>
<path d="M9.6385 303.525C21.7928 310.109 46.5157 319.493 86.3026 317.316C89.2288 317.156 91.9336 318.71 92.9647 321.167L95.446 330.069C99.8105 345.717 108.017 360.297 119.467 372.743L125.412 379.204C126.327 380.198 125.466 381.691 124.03 381.596L97.7977 379.868C52.7706 374.532 17.7861 354.296 6.56638 317.434L3.5743 307.603C2.60205 304.411 6.47692 301.813 9.63614 303.523L9.6385 303.525Z" fill="black"/>
<path d="M257.119 52.7793H343.498C348.388 52.7793 352.129 56.344 352.129 60.727V83.1254C352.129 87.5064 348.388 91.0478 343.498 91.0478H340.374V106.005L329.009 91.0478H257.119C252.229 91.0478 248.039 87.5085 248.039 83.1254V60.727C248.039 56.3461 252.227 52.7793 257.119 52.7793Z" fill="#EBFF00"/>
<path d="M340.372 106.475C340.203 106.475 340.038 106.401 339.939 106.27L328.729 91.5179H257.117C251.912 91.5179 247.512 87.6748 247.512 83.1251V60.7267C247.512 56.1643 251.909 52.3086 257.117 52.3086H343.496C348.63 52.3086 352.651 56.0061 352.651 60.7267V83.1251C352.651 87.8309 348.63 91.5179 343.496 91.5179H340.897V106.004C340.897 106.211 340.746 106.392 340.527 106.454C340.476 106.468 340.424 106.475 340.372 106.475ZM257.117 53.2514C252.479 53.2514 248.562 56.6748 248.562 60.7288V83.1272C248.562 87.1664 252.479 90.5771 257.117 90.5771H329.006C329.181 90.5771 329.343 90.6531 329.44 90.7817L339.847 104.477V91.0475C339.847 90.7881 340.083 90.5771 340.372 90.5771H343.496C348.042 90.5771 351.601 87.3035 351.601 83.1272V60.7288C351.601 56.5356 348.039 53.2514 343.496 53.2514H257.117Z" fill="black"/>
<path d="M289.555 77.4647C289.483 77.4647 289.41 77.452 289.339 77.4225L277.441 72.588C277.253 72.5121 277.133 72.3454 277.133 72.1598C277.133 71.9742 277.253 71.8076 277.439 71.7317L289.337 66.8677C289.6 66.758 289.911 66.8634 290.033 67.0997C290.153 67.3359 290.038 67.6144 289.774 67.7219L278.927 72.1577L289.772 76.5661C290.036 76.6737 290.153 76.9521 290.033 77.1883C289.946 77.3613 289.756 77.4647 289.555 77.4647Z" fill="black"/>
<path d="M306.6 77.4637C306.399 77.4637 306.209 77.3604 306.122 77.1874C306.002 76.9512 306.119 76.6728 306.383 76.5652L317.228 72.1568L306.381 67.721C306.117 67.6134 306.002 67.335 306.122 67.0988C306.242 66.8625 306.553 66.7592 306.819 66.8668L318.716 71.7307C318.902 71.8067 319.022 71.9754 319.022 72.1589C319.022 72.3424 318.902 72.5112 318.714 72.5871L306.816 77.4216C306.746 77.4511 306.673 77.4637 306.6 77.4637Z" fill="black"/>
<path d="M293.13 83.1403C293.067 83.1403 293.005 83.1297 292.942 83.1086C292.671 83.0158 292.537 82.7437 292.64 82.5012L301.902 60.7925C302.005 60.55 302.309 60.4297 302.58 60.5204C302.85 60.6132 302.984 60.8853 302.881 61.1279L293.62 82.8365C293.54 83.0243 293.34 83.1403 293.13 83.1403Z" fill="black"/>
<path d="M276.139 344.967C275.937 344.967 275.746 344.864 275.659 344.686C275.541 344.448 275.659 344.172 275.925 344.066C303.016 333.315 327.588 315.893 346.984 293.684C347.16 293.48 347.492 293.444 347.721 293.604C347.949 293.764 347.989 294.06 347.81 294.264C328.309 316.593 303.6 334.113 276.351 344.927C276.283 344.954 276.21 344.967 276.139 344.967Z" fill="black"/>
<path d="M273.541 357.364C273.331 357.364 273.131 357.25 273.051 357.064C272.947 356.822 273.079 356.55 273.35 356.455C299.412 347.395 322.763 333.031 342.754 313.763C342.952 313.573 343.284 313.563 343.495 313.738C343.707 313.915 343.719 314.212 343.524 314.402C323.424 333.776 299.944 348.22 273.731 357.33C273.67 357.351 273.604 357.362 273.541 357.362V357.364Z" fill="black"/>
<path d="M158.7 15.9318C158.46 15.9318 158.246 15.7842 158.19 15.5669C158.124 15.3138 158.3 15.0607 158.583 15.0038C185.709 9.39942 212.579 9.02398 238.448 13.8858C238.733 13.9386 238.915 14.1896 238.853 14.4427C238.794 14.6979 238.514 14.8582 238.232 14.8055C212.511 9.97104 185.792 10.3465 158.816 15.9192C158.776 15.9276 158.736 15.9318 158.698 15.9318H158.7Z" fill="black"/>
<path d="M248.532 6.11119C248.487 6.11119 248.445 6.10698 248.4 6.09643C226.234 0.947694 203.034 -0.355843 179.443 2.22802C179.156 2.25755 178.895 2.07615 178.859 1.81882C178.824 1.56149 179.029 1.32736 179.316 1.29572C203.039 -1.30079 226.368 0.00906368 248.664 5.18944C248.944 5.25483 249.113 5.51216 249.04 5.76316C248.979 5.97409 248.765 6.11541 248.532 6.11541V6.11119Z" fill="black"/>
<path d="M263.411 349.122C265.351 349.122 266.923 347.714 266.923 345.977C266.923 344.24 265.351 342.832 263.411 342.832C261.471 342.832 259.898 344.24 259.898 345.977C259.898 347.714 261.471 349.122 263.411 349.122Z" fill="black"/>
<path d="M19.0518 162.217C18.92 162.217 18.7905 162.172 18.6893 162.086C18.4798 161.907 18.4727 161.609 18.6728 161.422L20.6056 159.614C20.8057 159.426 21.1399 159.42 21.3471 159.599C21.5566 159.778 21.5637 160.076 21.3636 160.264L19.4309 162.071C19.3273 162.168 19.1907 162.217 19.0518 162.217Z" fill="black"/>
<path d="M12.2901 168.541C12.1583 168.541 12.0288 168.497 11.9276 168.41C11.7181 168.231 11.711 167.933 11.9111 167.746L13.8438 165.938C14.0439 165.75 14.3782 165.744 14.5854 165.923C14.7949 166.103 14.802 166.4 14.6019 166.588L12.6691 168.395C12.5656 168.492 12.429 168.541 12.2901 168.541Z" fill="black"/>
<path d="M14.1885 162.314C14.0543 162.314 13.9225 162.27 13.8213 162.179L11.8603 160.45C11.6531 160.268 11.6508 159.969 11.8532 159.785C12.0557 159.6 12.39 159.598 12.5948 159.779L14.5557 161.509C14.7629 161.69 14.7653 161.99 14.5605 162.173C14.4569 162.266 14.3227 162.314 14.1861 162.314H14.1885Z" fill="black"/>
<path d="M21.0554 168.365C20.9212 168.365 20.7894 168.321 20.6881 168.23L18.7272 166.501C18.52 166.319 18.5177 166.02 18.7225 165.836C18.9249 165.651 19.2592 165.648 19.464 165.83L21.425 167.559C21.6321 167.741 21.6345 168.04 21.4297 168.224C21.3261 168.317 21.1919 168.365 21.0554 168.365Z" fill="black"/>
<path d="M259.18 14.8135C258.552 14.8135 257.923 14.708 257.318 14.4971C256.002 14.0394 254.966 13.1387 254.401 11.9638C253.245 9.56349 254.444 6.75182 257.073 5.69297C258.34 5.18252 259.748 5.15088 261.04 5.60016C262.354 6.05787 263.392 6.95853 263.957 8.1334C265.113 10.5338 263.914 13.3454 261.285 14.4043C260.611 14.6764 259.896 14.8114 259.18 14.8114V14.8135ZM259.178 6.22873C258.608 6.22873 258.038 6.33629 257.504 6.55355C255.395 7.40148 254.437 9.66262 255.367 11.5926C255.821 12.5355 256.65 13.2547 257.699 13.6217C258.726 13.9803 259.849 13.9529 260.854 13.5479C262.963 12.7 263.921 10.4388 262.991 8.50885C262.537 7.566 261.708 6.84674 260.659 6.47973C260.178 6.3131 259.677 6.22873 259.178 6.22873Z" fill="black"/>
</svg>
