<svg width="435" height="386" viewBox="0 0 435 386" fill="none" xmlns="http://www.w3.org/2000/svg">
<path d="M149.783 16.1342L424.538 15.4824C430.685 15.4824 435.506 19.3382 434.963 23.8141L418.875 252.52C418.393 256.469 413.871 259.496 408.449 259.496H396.395L393.896 258.342L48.7862 259.453C42.6393 259.453 37.754 255.199 38.2994 250.721L54.3924 23.1075C54.8738 19.1589 59.2231 15.7018 64.642 15.7018L149.783 16.1321V16.1342Z" fill="black"/>
<path d="M138.26 16.2852H412.284C418.415 16.2852 423.226 20.1388 422.683 24.6147L406.73 252.45C406.251 256.396 401.738 259.423 396.331 259.423H37.5502C31.4199 259.423 26.6082 255.569 27.1512 251.093L43.1043 23.2585C43.5833 19.312 48.0963 16.2852 53.5033 16.2852H138.26Z" fill="white"/>
<path d="M396.364 259.212C396.074 259.212 395.84 259.003 395.84 258.746C395.84 258.489 396.074 258.28 396.364 258.28C401.375 258.28 405.499 255.456 405.954 251.712L421.905 24.6276C422.116 22.8853 421.456 21.1684 420.048 19.772C418.184 17.9243 415.186 16.8211 412.03 16.8211H53.2463C48.1547 16.8211 43.8149 19.6919 43.3691 23.3557L33.9163 164.775C33.8997 165.032 33.653 165.231 33.3613 165.212C33.072 165.197 32.8515 164.976 32.8681 164.718L42.3232 23.2756C42.8378 19.0528 47.531 15.8867 53.2463 15.8867H412.027C415.528 15.8867 418.736 17.0742 420.826 19.1477C422.436 20.7423 423.19 22.7166 422.948 24.7057L406.997 251.79C406.48 256.029 401.911 259.21 396.361 259.21L396.364 259.212Z" fill="black"/>
<path d="M310.987 259.178H239.567C239.278 259.178 239.043 258.97 239.043 258.712C239.043 258.455 239.278 258.246 239.567 258.246H310.987C311.276 258.246 311.511 258.455 311.511 258.712C311.511 258.97 311.276 259.178 310.987 259.178Z" fill="black"/>
<path d="M389.815 40.9971H360.532C360.243 40.9971 360.008 40.7882 360.008 40.5309C360.008 40.2736 360.243 40.0648 360.532 40.0648H389.815C392.438 40.0648 394.608 38.2402 394.757 35.9116C394.836 34.6903 394.357 33.5281 393.413 32.638C392.469 31.7478 391.191 31.2585 389.815 31.2585H356.114C355.825 31.2585 355.59 31.0497 355.59 30.7923C355.59 30.535 355.825 30.3262 356.114 30.3262H389.815C391.482 30.3262 393.031 30.9189 394.176 31.9967C395.322 33.0746 395.901 34.4836 395.806 35.9643C395.625 38.7865 392.995 40.9971 389.818 40.9971H389.815Z" fill="black"/>
<path d="M322.968 98.2998H290.957C289.29 98.2998 287.742 97.7071 286.596 96.6292C285.451 95.5514 284.872 94.1424 284.967 92.6617C285.147 89.8394 287.777 87.6289 290.955 87.6289H322.966C324.633 87.6289 326.181 88.2216 327.327 89.2995C328.472 90.3773 329.051 91.7863 328.956 93.267C328.776 96.0893 326.146 98.2998 322.968 98.2998ZM290.957 88.5612C288.335 88.5612 286.165 90.3857 286.015 92.7144C285.937 93.9357 286.414 95.0979 287.36 95.988C288.306 96.8781 289.582 97.3675 290.957 97.3675H322.968C325.591 97.3675 327.761 95.543 327.91 93.2143C327.988 91.993 327.509 90.8287 326.565 89.9407C325.622 89.0527 324.343 88.5612 322.968 88.5612H290.957Z" fill="black"/>
<path d="M311.624 60.7607H291.094C289.427 60.7607 287.878 60.168 286.733 59.0902C285.588 58.0123 285.009 56.6033 285.104 55.1226C285.284 52.3004 287.914 50.0898 291.092 50.0898H310.291C310.581 50.0898 310.816 50.2987 310.816 50.556C310.816 50.8133 310.581 51.0222 310.291 51.0222H291.092C288.469 51.0222 286.299 52.8467 286.15 55.1754C286.071 56.3966 286.548 57.5588 287.494 58.449C288.44 59.3391 289.716 59.8284 291.092 59.8284H311.622C311.911 59.8284 312.146 60.0373 312.146 60.2946C312.146 60.5519 311.911 60.7607 311.622 60.7607H311.624Z" fill="black"/>
<path d="M295.558 80.5576H289.641C287.974 80.5576 286.425 79.9649 285.28 78.8871C284.134 77.8092 283.556 76.4002 283.651 74.9195C283.831 72.0973 286.461 69.8867 289.641 69.8867H308.677C308.966 69.8867 309.201 70.0955 309.201 70.3529C309.201 70.6102 308.966 70.819 308.677 70.819H289.641C287.018 70.819 284.848 72.6436 284.699 74.9722C284.621 76.1935 285.097 77.3557 286.044 78.2458C286.987 79.1359 288.266 79.6253 289.641 79.6253H295.558C295.847 79.6253 296.082 79.8341 296.082 80.0914C296.082 80.3488 295.847 80.5576 295.558 80.5576Z" fill="black"/>
<path d="M133.679 145.343H86.8014C86.5121 145.343 86.2773 145.134 86.2773 144.877C86.2773 144.619 86.5121 144.41 86.8014 144.41H133.679C135.673 144.41 137.324 143.025 137.435 141.253C137.495 140.325 137.132 139.441 136.413 138.764C135.695 138.087 134.722 137.716 133.679 137.716H90.3705C90.0812 137.716 89.8464 137.507 89.8464 137.249C89.8464 136.992 90.0812 136.783 90.3705 136.783H133.679C135.016 136.783 136.259 137.26 137.177 138.125C138.095 138.99 138.559 140.12 138.483 141.308C138.339 143.571 136.228 145.345 133.679 145.345V145.343Z" fill="black"/>
<path d="M132.464 160.821H88.9424C88.653 160.821 88.4183 160.612 88.4183 160.355C88.4183 160.098 88.653 159.889 88.9424 159.889H132.464C134.458 159.889 136.109 158.503 136.22 156.731C136.28 155.803 135.917 154.919 135.198 154.242C134.48 153.565 133.507 153.194 132.464 153.194H80.903C80.6137 153.194 80.3789 152.985 80.3789 152.728C80.3789 152.471 80.6137 152.262 80.903 152.262H132.464C133.802 152.262 135.044 152.738 135.962 153.603C136.88 154.468 137.345 155.599 137.269 156.786C137.124 159.049 135.013 160.823 132.464 160.823V160.821Z" fill="black"/>
<path d="M131.326 176.327H55.2228C53.8853 176.327 52.6426 175.851 51.7249 174.986C50.8071 174.121 50.3423 172.99 50.4182 171.803C50.5628 169.54 52.6735 167.766 55.2228 167.766H131.326C132.664 167.766 133.907 168.242 134.824 169.107C135.742 169.972 136.207 171.103 136.131 172.29C135.986 174.553 133.876 176.327 131.326 176.327ZM55.2228 168.7C53.2284 168.7 51.5778 170.086 51.4664 171.858C51.4071 172.786 51.7699 173.67 52.4885 174.347C53.2071 175.024 54.1794 175.395 55.2228 175.395H131.326C133.321 175.395 134.971 174.009 135.083 172.237C135.142 171.309 134.779 170.425 134.061 169.748C133.342 169.071 132.372 168.7 131.326 168.7H55.2228Z" fill="black"/>
<path d="M131.324 129.61H90.3684C90.0791 129.61 89.8443 129.401 89.8443 129.144C89.8443 128.887 90.0791 128.678 90.3684 128.678H131.324C133.319 128.678 134.969 127.292 135.081 125.52C135.14 124.592 134.777 123.708 134.058 123.031C133.34 122.354 132.37 121.983 131.324 121.983H55.2205C53.226 121.983 51.5755 123.369 51.464 125.141C51.4047 126.069 51.7676 126.953 52.4861 127.63C52.6853 127.817 52.6758 128.113 52.4648 128.29C52.2537 128.467 51.9217 128.459 51.7249 128.271C50.8071 127.406 50.3423 126.275 50.4182 125.088C50.5628 122.825 52.6735 121.051 55.2228 121.051H131.326C132.664 121.051 133.907 121.527 134.824 122.392C135.742 123.257 136.207 124.388 136.131 125.575C135.986 127.838 133.876 129.612 131.326 129.612L131.324 129.61Z" fill="black"/>
<path d="M325.928 212.685H271.708C270.449 212.685 269.277 212.236 268.414 211.421C267.548 210.607 267.112 209.542 267.183 208.424C267.318 206.292 269.308 204.621 271.708 204.621H325.928C327.187 204.621 328.358 205.07 329.222 205.885C330.087 206.699 330.524 207.764 330.452 208.882C330.317 211.014 328.328 212.685 325.928 212.685ZM271.708 205.553C269.863 205.553 268.333 206.838 268.229 208.477C268.175 209.337 268.511 210.156 269.175 210.78C269.839 211.407 270.741 211.751 271.708 211.751H325.928C327.773 211.751 329.302 210.466 329.407 208.827C329.461 207.966 329.124 207.148 328.46 206.524C327.796 205.897 326.895 205.553 325.928 205.553H271.708Z" fill="black"/>
<path d="M324.798 227.156H253.646C252.386 227.156 251.215 226.706 250.352 225.892C249.486 225.078 249.05 224.013 249.121 222.895C249.256 220.762 251.243 219.092 253.646 219.092H324.798C326.057 219.092 327.228 219.541 328.092 220.355C328.957 221.169 329.394 222.235 329.322 223.353C329.187 225.485 327.198 227.156 324.798 227.156ZM253.646 220.024C251.801 220.024 250.271 221.309 250.167 222.948C250.112 223.808 250.449 224.627 251.113 225.251C251.777 225.877 252.678 226.221 253.646 226.221H324.798C326.643 226.221 328.172 224.937 328.277 223.298C328.331 222.437 327.994 221.619 327.33 220.994C326.666 220.37 325.765 220.024 324.798 220.024H253.646Z" fill="black"/>
<path d="M323.731 241.654H252.579C251.32 241.654 250.148 241.204 249.285 240.39C248.42 239.576 247.983 238.511 248.054 237.393C248.19 235.26 250.179 233.59 252.579 233.59H323.731C324.99 233.59 326.162 234.039 327.025 234.853C327.891 235.667 328.327 236.733 328.256 237.851C328.121 239.983 326.131 241.654 323.731 241.654ZM252.579 234.522C250.734 234.522 249.205 235.807 249.1 237.446C249.046 238.306 249.382 239.125 250.046 239.749C250.71 240.375 251.612 240.719 252.579 240.719H323.731C325.576 240.719 327.106 239.435 327.21 237.796C327.265 236.935 326.928 236.117 326.264 235.492C325.6 234.866 324.699 234.522 323.731 234.522H252.579Z" fill="black"/>
<path d="M323.731 197.976H252.579C251.32 197.976 250.148 197.527 249.285 196.712C248.42 195.898 247.983 194.833 248.054 193.715C248.19 191.583 250.179 189.912 252.579 189.912H323.731C324.99 189.912 326.162 190.361 327.025 191.176C327.891 191.99 328.327 193.055 328.256 194.173C328.121 196.305 326.131 197.976 323.731 197.976ZM252.579 190.844C250.734 190.844 249.205 192.129 249.1 193.768C249.046 194.628 249.382 195.447 250.046 196.071C250.71 196.698 251.612 197.042 252.579 197.042H323.731C325.576 197.042 327.106 195.757 327.21 194.118C327.265 193.257 326.928 192.439 326.264 191.815C325.6 191.188 324.699 190.844 323.731 190.844H252.579Z" fill="black"/>
<path d="M253.106 256.816H168.173C165.719 256.816 163.727 258.586 163.727 260.771C163.727 262.957 165.716 264.726 168.173 264.726H241.706C244.267 264.726 246.297 266.644 246.143 268.917L238.701 381.347L247.943 381.037L257.543 261.052C257.725 258.763 255.688 256.816 253.108 256.816H253.106Z" fill="black"/>
<path d="M175.127 363.684L174.207 372.967L184.134 373.009L185.887 363.747L175.127 363.684Z" fill="white"/>
<path d="M184.134 373.474H184.132L174.205 373.432C174.058 373.432 173.918 373.377 173.821 373.28C173.721 373.183 173.674 373.055 173.685 372.926L174.606 363.643C174.629 363.4 174.869 363.236 175.132 363.217L185.894 363.282C186.048 363.282 186.193 363.343 186.292 363.449C186.392 363.554 186.435 363.691 186.408 363.826L184.654 373.088C184.611 373.312 184.393 373.476 184.137 373.476L184.134 373.474ZM174.781 372.502L183.691 372.54L185.268 364.208L175.606 364.151L174.781 372.502Z" fill="black"/>
<path d="M203.263 363.684L202.281 374.538L212.125 374.582L214.689 363.747L203.263 363.684Z" fill="white"/>
<path d="M212.124 375.048H212.121L202.277 375.006C202.13 375.006 201.993 374.951 201.893 374.854C201.794 374.759 201.744 374.63 201.756 374.501L202.737 363.645C202.759 363.402 202.986 363.217 203.259 363.217H203.262L214.687 363.282C214.846 363.282 214.993 363.348 215.093 363.455C215.193 363.565 215.23 363.706 215.197 363.843L212.634 374.679C212.581 374.894 212.368 375.05 212.121 375.05L212.124 375.048ZM202.847 374.075L211.697 374.113L214.04 364.21L203.743 364.151L202.844 374.075H202.847Z" fill="black"/>
<path d="M213.101 371.848H202.612C201.868 371.848 201.199 372.192 200.914 372.723C199.985 374.467 198.09 378.547 198.343 382.417C198.412 383.474 199.553 384.303 200.924 384.303H231.703C233.119 384.303 234.193 383.305 233.911 382.236C233.572 380.953 232.401 379.268 229.026 377.754C223.562 375.301 216.694 372.847 214.529 372.088C214.081 371.93 213.595 371.85 213.101 371.85V371.848Z" fill="white"/>
<path d="M231.701 384.767H200.921C199.266 384.767 197.902 383.746 197.817 382.442C197.551 378.42 199.56 374.163 200.437 372.52C200.805 371.826 201.659 371.379 202.607 371.379H213.097C213.659 371.379 214.204 371.47 214.716 371.651C216.734 372.358 223.745 374.859 229.258 377.336C232.908 378.974 234.077 380.845 234.419 382.128C234.577 382.729 234.419 383.334 233.975 383.834C233.453 384.419 232.604 384.769 231.701 384.769V384.767ZM202.607 372.311C202.069 372.311 201.578 372.556 201.384 372.919C200.542 374.496 198.611 378.58 198.863 382.387C198.917 383.197 199.821 383.834 200.921 383.834H231.701C232.287 383.834 232.83 383.617 233.152 383.254C233.394 382.982 233.482 382.657 233.399 382.339C232.986 380.778 231.39 379.333 228.789 378.165C223.315 375.707 216.341 373.22 214.334 372.516C213.943 372.379 213.528 372.309 213.099 372.309H202.61L202.607 372.311Z" fill="black"/>
<path d="M184.32 371.824H173.831C173.086 371.824 172.418 372.168 172.133 372.7C171.203 374.444 169.308 378.523 169.562 382.394C169.631 383.451 170.772 384.28 172.142 384.28H202.922C204.338 384.28 205.412 383.282 205.13 382.212C204.791 380.93 203.619 379.245 200.245 377.73C194.781 375.277 187.913 372.824 185.748 372.065C185.299 371.906 184.813 371.826 184.32 371.826V371.824Z" fill="white"/>
<path d="M202.92 384.745H172.14C170.485 384.745 169.121 383.724 169.036 382.421C168.77 378.4 170.779 374.142 171.656 372.499C172.026 371.805 172.878 371.357 173.826 371.357H184.315C184.877 371.357 185.423 371.448 185.935 371.63C187.951 372.336 194.959 374.836 200.475 377.312C204.122 378.949 205.293 380.822 205.635 382.104C205.794 382.705 205.635 383.311 205.189 383.813C204.67 384.397 203.818 384.745 202.917 384.745H202.92ZM173.826 372.29C173.288 372.29 172.797 372.534 172.602 372.899C171.761 374.477 169.833 378.561 170.082 382.366C170.136 383.176 171.04 383.813 172.138 383.813H202.917C203.503 383.813 204.044 383.595 204.369 383.233C204.611 382.961 204.698 382.636 204.615 382.317C204.2 380.756 202.607 379.312 200.005 378.145C194.527 375.686 187.557 373.201 185.551 372.496C185.16 372.359 184.745 372.29 184.315 372.29H173.826Z" fill="black"/>
<path d="M199.503 306.987C202.498 319.756 190.62 354.684 188.13 363.197C187.802 364.313 186.707 365.087 185.457 365.087H174.389C172.85 365.087 171.605 363.929 171.619 362.507C171.721 352.408 173.694 315.586 166.926 304.985C163.008 298.847 152.351 296.08 147.551 293.16C136.035 286.151 140.37 270.629 140.37 270.629L184.449 291.418C192.875 295.166 198.213 301.486 199.503 306.987Z" fill="black"/>
<path d="M179.52 274.643C179.52 274.643 217.492 274.959 229.466 288.233C240.228 300.163 222.077 352.687 218.737 363.199C218.391 364.29 217.31 365.035 216.081 365.035H201.815C201.513 365.035 201.271 364.809 201.271 364.533L203.467 308.881C203.467 305.375 201.575 302.079 198.383 300.178C193.913 297.514 186.364 293.958 175.187 294.036C139.698 294.281 146.009 274.188 146.009 274.188L179.518 274.643H179.52Z" fill="black"/>
<path d="M176.89 242.148C175.766 242.148 174.722 241.696 174.027 240.91C173.333 240.121 173.088 239.11 173.356 238.138L183.442 201.352C183.843 199.903 185.294 198.893 186.969 198.888L219.266 198.812H219.271C220.397 198.812 221.438 199.264 222.133 200.051C222.828 200.84 223.072 201.85 222.804 202.822L212.716 239.608C212.315 241.057 210.864 242.068 209.19 242.072L176.892 242.148H176.885H176.89ZM219.273 199.745H219.268L186.971 199.821C185.778 199.821 184.747 200.542 184.46 201.574L174.374 238.36C174.182 239.054 174.355 239.773 174.85 240.334C175.344 240.893 176.086 241.216 176.887 241.216H176.89L209.187 241.14C210.38 241.14 211.412 240.418 211.699 239.387L221.787 202.601C221.979 201.907 221.806 201.188 221.31 200.626C220.815 200.065 220.075 199.745 219.273 199.745Z" fill="black"/>
<path d="M212.466 214.244C213.675 213.476 215.359 213.734 216.21 214.818C216.91 215.828 218.134 215.946 218.596 214.208L221.131 205.111C221.449 203.896 227.814 207.323 224.105 218.52C223.808 219.412 220.595 226.008 220.467 226.153C219.08 227.739 217.111 227.408 215.361 226.377C215.29 226.334 215.878 224.314 216.307 222.867C216.583 221.939 216.431 220.954 215.888 220.127L212.062 214.499L212.466 214.244Z" fill="white"/>
<path d="M218.103 227.712C217.171 227.712 216.142 227.398 215.072 226.767C214.808 226.611 215.051 225.272 215.8 222.749C216.042 221.937 215.912 221.089 215.435 220.364L211.615 214.74C211.472 214.531 211.536 214.261 211.759 214.12L212.16 213.865C212.86 213.42 213.711 213.247 214.56 213.376C215.409 213.506 216.147 213.922 216.64 214.55C216.889 214.909 217.19 215.116 217.415 215.082C217.622 215.052 217.906 214.78 218.087 214.101L220.624 205C220.695 204.73 220.913 204.525 221.222 204.447C221.781 204.308 222.559 204.616 223.297 205.28C224.335 206.214 227.497 209.937 224.611 218.653C224.364 219.395 221.124 226.164 220.885 226.44C220.145 227.286 219.192 227.712 218.106 227.712H218.103ZM215.924 226.143C217.183 226.82 218.826 227.242 220.031 225.892C220.347 225.348 223.33 219.208 223.603 218.389C226.197 210.553 223.636 207.054 222.792 206.168C222.27 205.622 221.819 205.409 221.603 205.358L219.106 214.32C218.753 215.645 217.999 215.943 217.581 216.002C216.917 216.097 216.237 215.744 215.765 215.061C215.449 214.662 214.954 214.382 214.385 214.295C213.813 214.207 213.242 214.325 212.772 214.624L212.765 214.628L216.339 219.887C216.962 220.834 217.131 221.933 216.818 222.988C216.225 224.979 216.007 225.801 215.928 226.143H215.924ZM221.641 205.217V205.221C221.641 205.221 221.641 205.219 221.641 205.217Z" fill="black"/>
<path d="M214.565 222.677C214.565 222.677 207.958 234.39 203.518 238.843C202.634 239.731 201.007 239.455 200.559 238.339C198.365 232.855 193.214 221.359 186.932 216.55C177.626 209.427 167.524 210.669 167.524 210.669L152.273 211.435C152.258 211.435 152.249 211.443 152.237 211.443C136.815 213.004 137.584 232.96 137.584 232.96L136.711 279.335C136.711 279.335 145.042 281.183 156.328 281.752C164.593 282.17 175.705 281.813 179.912 281.647C190.262 281.237 191.682 275.264 191.682 275.264C189.451 274.304 187.342 272.71 185.476 270.929C181.029 266.688 179.92 260.568 182.241 255.162C183.391 252.484 183.572 250.077 183.541 248.624C186.062 250.973 188.345 253.059 190.2 254.757C191.26 255.728 194.768 257.248 197.943 258.478C201.047 259.68 204.642 259.265 207.31 257.409C220.154 247.529 224.696 222.673 224.696 222.673H214.565V222.677Z" fill="#13187E"/>
<path d="M165.464 282.415C162.344 282.415 159.161 282.362 156.296 282.216C145.091 281.651 136.667 279.803 136.582 279.784C136.345 279.732 136.181 279.542 136.184 279.325L137.056 232.95C137.049 232.771 136.454 212.608 152.13 210.982C152.167 210.973 152.205 210.967 152.239 210.965L167.49 210.199C167.869 210.151 177.893 209.014 187.27 216.191C193.514 220.973 198.582 232.018 201.049 238.177C201.196 238.542 201.537 238.805 201.964 238.879C202.396 238.955 202.827 238.822 203.121 238.529C207.466 234.171 214.026 222.581 214.092 222.465C214.18 222.306 214.362 222.207 214.562 222.207H224.693C224.847 222.207 224.991 222.266 225.091 222.372C225.191 222.475 225.233 222.614 225.21 222.749C225.022 223.77 220.49 247.884 207.651 257.761C204.805 259.744 201.011 260.177 197.731 258.905C194.779 257.759 191.008 256.167 189.822 255.08L189.331 254.631C187.83 253.258 186.011 251.592 184.043 249.765C183.96 251.265 183.637 253.212 182.729 255.325C180.417 260.706 181.617 266.563 185.857 270.607C187.925 272.579 189.962 274.005 191.907 274.84C192.125 274.933 192.241 275.146 192.191 275.357C192.13 275.614 190.564 281.689 179.933 282.109C177.09 282.221 171.391 282.413 165.464 282.413V282.415ZM137.241 278.966C139.039 279.335 146.637 280.795 156.356 281.286C164.613 281.704 175.562 281.352 179.886 281.181C188.295 280.848 190.562 276.724 191.048 275.505C189.108 274.602 187.107 273.172 185.089 271.246C180.573 266.939 179.293 260.712 181.747 254.996C182.85 252.427 183.044 250.117 183.014 248.632C183.009 248.44 183.139 248.265 183.338 248.192C183.538 248.118 183.768 248.162 183.917 248.301C186.22 250.446 188.361 252.408 190.083 253.984L190.574 254.433C191.394 255.184 194.155 256.502 198.148 258.052C201.075 259.185 204.459 258.799 206.982 257.044C218.472 248.204 223.308 226.822 224.064 223.144H214.882C213.862 224.93 208.028 235.019 203.904 239.153C203.363 239.695 202.564 239.938 201.763 239.801C200.968 239.664 200.33 239.176 200.057 238.495C198.101 233.608 192.872 221.718 186.583 216.904C177.561 209.999 167.687 211.121 167.587 211.133L152.352 211.901C152.341 211.903 152.326 211.905 152.317 211.908C137.519 213.405 138.095 232.752 138.102 232.948L137.237 278.97L137.241 278.966Z" fill="black"/>
<path d="M184.221 250.716C184.081 250.716 183.941 250.665 183.837 250.566C179.623 246.533 176.36 241.884 174.133 236.748C174.029 236.507 174.164 236.237 174.434 236.145C174.702 236.052 175.008 236.172 175.112 236.413C177.292 241.437 180.484 245.987 184.605 249.933C184.802 250.121 184.79 250.416 184.579 250.591C184.477 250.676 184.349 250.716 184.224 250.716H184.221Z" fill="black"/>
<path d="M175.037 186.27C175.037 186.27 175.677 191.353 178.542 194.178C178.76 194.393 178.81 194.705 178.644 194.956L177.463 196.711C177.361 196.863 177.275 197.025 177.211 197.192L175.25 202.32C175.07 202.788 174.596 203.123 174.038 203.163C172.812 203.254 169.651 202.817 169.45 203.558C168.242 207.992 169.63 209.251 169.715 213.109C169.779 215.903 166.639 216.492 166.639 216.492C161.448 217.568 157.191 216.397 157.191 216.397C155.133 215.779 154.063 213.725 154.635 212.086C156.115 207.84 157.388 206.496 157.13 199.506L153.195 192.168C153.269 188.651 156.57 185.859 160.552 185.947L175.039 186.268L175.037 186.27Z" fill="white"/>
<path d="M162.108 217.417C159.177 217.417 157.161 216.875 157.038 216.844C154.771 216.165 153.447 213.924 154.135 211.95C154.432 211.096 154.716 210.372 154.991 209.672C156.042 206.995 156.801 205.055 156.611 199.621L152.724 192.372C152.688 192.306 152.672 192.235 152.672 192.163C152.71 190.345 153.547 188.651 155.029 187.39C156.526 186.116 158.499 185.436 160.567 185.487L175.054 185.808C175.315 185.814 175.533 185.991 175.562 186.221C175.569 186.27 176.218 191.191 178.934 193.869C179.313 194.245 179.38 194.778 179.095 195.2L177.914 196.955C177.831 197.08 177.762 197.21 177.71 197.348L175.749 202.475C175.502 203.123 174.848 203.578 174.084 203.633C173.686 203.663 173.124 203.642 172.533 203.621C171.798 203.593 170.29 203.538 169.948 203.724C169.218 206.441 169.498 207.913 169.82 209.617C170.003 210.585 170.211 211.684 170.245 213.104C170.302 215.62 167.985 216.721 166.754 216.951C165.072 217.299 163.491 217.42 162.11 217.42L162.108 217.417ZM153.722 192.07L157.605 199.307C157.635 199.366 157.654 199.429 157.654 199.493C157.863 205.175 157.073 207.189 155.98 209.98C155.71 210.672 155.428 211.387 155.136 212.226C154.621 213.703 155.66 215.447 157.36 215.958C157.389 215.966 161.544 217.074 166.524 216.04C166.645 216.017 169.246 215.485 169.194 213.121C169.163 211.769 168.971 210.752 168.784 209.769C168.454 208.029 168.144 206.384 168.943 203.45C169.185 202.56 170.83 202.619 172.576 202.684C173.136 202.705 173.662 202.724 173.999 202.699C174.345 202.674 174.644 202.465 174.758 202.169L176.719 197.042C176.795 196.843 176.894 196.651 177.015 196.47L178.196 194.715C178.253 194.633 178.21 194.542 178.156 194.489C175.656 192.026 174.798 188.012 174.58 186.725L160.538 186.413C158.731 186.373 157.045 186.957 155.752 188.058C154.503 189.121 153.786 190.541 153.722 192.068V192.07Z" fill="black"/>
<path d="M176.382 184.471C176.97 185.27 176.616 186.35 175.635 186.751L175.042 186.994L163.661 191.98C163.372 192.107 163.025 192.09 162.764 191.923C162.292 191.619 161.446 191.246 160.597 191.727C159.414 192.398 159.174 195.984 162.214 196.935C162.615 197.059 162.836 197.437 162.674 197.785C162.499 198.16 162.238 198.66 161.882 199.204C159.2 203.307 152.569 203.55 149.373 199.746C147.018 196.943 144.86 192.334 147.516 186.032C151.68 176.148 168.688 174.022 176.379 184.473L176.382 184.471Z" fill="black"/>
<path d="M148.666 182.181C148.666 182.181 143.7 176.939 136.434 178.973C129.167 181.006 128.797 191.943 127.956 198.76C124.989 222.774 118.396 231.515 116.269 233.683C113.907 236.09 132.478 234.457 138.736 232.561C156.772 227.094 147.276 211.65 146.427 208.87C145.578 206.09 138.857 190.525 147.214 188.707L151.455 185.499L148.668 182.183L148.666 182.181Z" fill="black"/>
<path d="M146.379 189.675L146.47 189.704C147.262 189.962 148.139 189.603 148.428 188.903L150.643 183.579C150.935 182.881 150.53 182.105 149.737 181.847L149.647 181.818C148.855 181.56 147.978 181.919 147.688 182.619L145.473 187.943C145.182 188.641 145.587 189.417 146.379 189.675Z" fill="white"/>
<path d="M146.993 190.254C146.758 190.254 146.521 190.218 146.289 190.142L146.199 190.113C145.682 189.944 145.271 189.609 145.041 189.168C144.811 188.729 144.79 188.236 144.98 187.782L147.195 182.458C147.584 181.52 148.765 181.037 149.825 181.38L149.915 181.41C150.429 181.577 150.842 181.912 151.072 182.355C151.302 182.794 151.323 183.287 151.134 183.741L148.919 189.064C148.615 189.796 147.828 190.252 146.991 190.252L146.993 190.254ZM146.559 189.237L146.649 189.267C147.169 189.436 147.747 189.202 147.937 188.742L150.152 183.418C150.242 183.199 150.233 182.96 150.121 182.747C150.01 182.532 149.808 182.367 149.557 182.287L149.467 182.258C148.947 182.089 148.371 182.325 148.179 182.783L145.964 188.107C145.874 188.326 145.883 188.565 145.995 188.778C146.106 188.993 146.308 189.157 146.559 189.24V189.237Z" fill="black"/>
<path d="M189.451 375.034H168.383V308.199H157.683V375.034H135.448C129.884 375.034 125.371 379.046 125.371 383.997V385.034H200.695C200.695 379.512 195.662 375.034 189.451 375.034Z" fill="white"/>
<path d="M200.695 385.502H125.372C125.082 385.502 124.848 385.293 124.848 385.036V383.998C124.848 378.798 129.602 374.569 135.448 374.569H157.159V308.201C157.159 307.943 157.394 307.734 157.683 307.734H168.384C168.673 307.734 168.908 307.943 168.908 308.201V374.569H189.452C195.94 374.569 201.219 379.265 201.219 385.036C201.219 385.293 200.984 385.502 200.695 385.502ZM125.896 384.569H200.157C199.882 379.528 195.186 375.502 189.452 375.502H168.384C168.094 375.502 167.859 375.293 167.859 375.035V308.667H158.207V375.035C158.207 375.293 157.973 375.502 157.683 375.502H135.448C130.181 375.502 125.896 379.313 125.896 383.998V384.569Z" fill="black"/>
<path d="M131.09 237.664H136.474C150.826 237.664 163.243 246.637 166.309 259.225L172.572 284.935C174.038 290.951 179.971 295.239 186.832 295.239H198.147C204.061 295.239 208.856 299.544 208.856 304.855C208.856 310.167 204.061 314.472 198.147 314.472H179.768L179.779 314.516H147.446C136.13 314.516 126.34 307.441 123.924 297.517L113.989 256.743C111.601 246.941 119.916 237.666 131.093 237.666L131.09 237.664Z" fill="white"/>
<path d="M179.779 314.979H147.446C135.971 314.979 125.861 307.675 123.411 297.614L113.477 256.839C112.296 251.996 113.619 247.012 117.108 243.164C120.546 239.372 125.643 237.197 131.092 237.197H136.476C150.966 237.197 163.729 246.419 166.824 259.125L173.089 284.836C174.493 290.594 180.275 294.772 186.837 294.772H198.151C204.346 294.772 209.385 299.295 209.385 304.855C209.385 310.415 204.346 314.937 198.151 314.937H179.983C179.921 314.965 179.855 314.982 179.784 314.982L179.779 314.979ZM131.09 238.13C125.96 238.13 121.161 240.178 117.921 243.751C114.634 247.377 113.387 252.074 114.499 256.641L124.433 297.415C126.781 307.053 136.459 314.047 147.444 314.047H179.568C179.63 314.02 179.696 314.003 179.767 314.003H198.146C203.762 314.003 208.332 309.898 208.332 304.855C208.332 299.812 203.762 295.707 198.146 295.707H186.832C179.779 295.707 173.566 291.218 172.06 285.034L165.794 259.324C162.804 247.043 150.47 238.132 136.471 238.132H131.088L131.09 238.13Z" fill="black"/>
<path d="M52.0448 92.5809C80.7884 92.5809 104.09 71.856 104.09 46.2905C104.09 20.725 80.7884 0 52.0448 0C23.3013 0 0 20.725 0 46.2905C0 71.856 23.3013 92.5809 52.0448 92.5809Z" fill="#13187E"/>
<path d="M23.0805 38.0195V60.9517C23.0805 67.8554 36.0265 73.4535 51.9961 73.4535C67.9658 73.4535 80.9118 67.8575 80.9118 60.9517V38.0195H23.0781H23.0805Z" fill="white"/>
<path d="M51.9944 73.9191C35.7615 73.9191 22.5547 68.1017 22.5547 60.9512V38.0169C22.5547 37.7596 22.7895 37.5508 23.0788 37.5508H80.9124C81.2018 37.5508 81.4365 37.7596 81.4365 38.0169V60.9512C81.4365 68.1017 68.2297 73.9191 51.9968 73.9191H51.9944ZM23.6029 38.4852V60.9512C23.6029 67.5871 36.3402 72.9847 51.9944 72.9847C67.6487 72.9847 80.386 67.5871 80.386 60.9512V38.4852H23.6029Z" fill="black"/>
<path d="M82.5228 32.9007L52.8578 21.7384C52.2981 21.5612 51.6886 21.5612 51.1289 21.7384L21.4639 32.9007H9.65625V35.4487C9.65625 35.7651 9.85783 36.0815 10.2586 36.2102L51.1266 49.1612C51.6862 49.3384 52.2957 49.3384 52.8554 49.1612L93.7234 36.2102C94.1265 36.0836 94.3257 35.7651 94.3257 35.4487V32.9007H82.5181H82.5228Z" fill="black"/>
<path d="M51.9928 49.7582C51.6395 49.7582 51.2885 49.7054 50.9518 49.6L10.0838 36.6489C9.50514 36.4654 9.13281 35.9951 9.13281 35.4487V32.9007C9.13281 32.6434 9.3676 32.4346 9.65692 32.4346H21.3579L50.9257 21.3081C51.6253 21.0866 52.3628 21.0866 53.0339 21.2975L82.6278 32.4346H94.3288C94.6181 32.4346 94.8529 32.6434 94.8529 32.9007V35.4487C94.8529 35.9951 94.4782 36.4654 93.9019 36.6489L53.0339 49.6C52.6995 49.7054 52.3462 49.7603 51.9928 49.7603V49.7582ZM10.181 33.3648V35.4466C10.181 35.5036 10.2 35.6934 10.4371 35.7673L51.3051 48.7183C51.7486 48.8575 52.2371 48.8596 52.6806 48.7183L93.5485 35.7673C93.7857 35.6913 93.8047 35.5015 93.8047 35.4466V33.3648H82.5211C82.4499 33.3648 82.3812 33.3521 82.3171 33.3289L52.6521 22.1666C52.2371 22.0358 51.7486 22.0358 51.3027 22.1771L21.6662 33.331C21.6021 33.3563 21.531 33.3669 21.4622 33.3669H10.1786L10.181 33.3648Z" fill="black"/>
<path d="M93.724 32.1367L52.856 19.1856C52.2963 19.0084 51.6868 19.0084 51.1272 19.1856L10.2592 32.1367C9.45527 32.3919 9.45527 33.4043 10.2592 33.6596L51.1272 46.6106C51.6868 46.7878 52.2963 46.7878 52.856 46.6106L93.724 33.6596C94.5279 33.4043 94.5279 32.3919 93.724 32.1367Z" fill="white"/>
<path d="M51.9928 47.2103C51.6395 47.2103 51.2885 47.1575 50.9518 47.0521L10.0838 34.101C9.50514 33.9175 9.13281 33.4472 9.13281 32.9008C9.13281 32.3545 9.50751 31.8842 10.0862 31.7007L50.9541 18.7496C51.6253 18.5366 52.3628 18.5366 53.0339 18.7496L93.9019 31.7007C94.4805 31.8842 94.8529 32.3545 94.8529 32.9008C94.8529 33.4472 94.4805 33.9175 93.9019 34.101L53.0339 47.0521C52.6995 47.1575 52.3462 47.2124 51.9928 47.2124V47.2103ZM51.9928 19.5216C51.7604 19.5216 51.5257 19.5575 51.3051 19.6271L10.4371 32.5781C10.2 32.6541 10.181 32.8439 10.181 32.8987C10.181 32.9536 10.2 33.1455 10.4371 33.2215L51.3051 46.1725C51.7486 46.3117 52.2371 46.3138 52.6806 46.1725L93.5485 33.2215C93.7857 33.1455 93.8047 32.9557 93.8047 32.8987C93.8047 32.8418 93.7857 32.6519 93.5485 32.5781L52.6806 19.6271C52.46 19.5575 52.2253 19.5216 51.9928 19.5216Z" fill="black"/>
<path d="M75.1926 51.5156C74.3839 51.5156 73.7128 52.0725 73.6559 52.7918L72.0859 73.0241H78.2969L76.727 52.7918C76.6724 52.0746 76.0013 51.5156 75.1902 51.5156H75.1926Z" fill="white"/>
<path d="M78.2948 73.4894H72.0838C71.9392 73.4894 71.7993 73.4367 71.6997 73.3418C71.6001 73.2468 71.5503 73.1203 71.5597 72.9916L73.1297 52.7593C73.2056 51.8017 74.1091 51.0508 75.1881 51.0508C76.2672 51.0508 77.1731 51.8017 77.2466 52.7593L78.8165 72.9916C78.826 73.1203 78.7762 73.2468 78.6766 73.3418C78.577 73.4367 78.4394 73.4894 78.2924 73.4894H78.2948ZM72.6459 72.5571H77.7327L76.2008 52.8226C76.1652 52.3501 75.7193 51.981 75.1881 51.981C74.6569 51.981 74.2111 52.3501 74.1755 52.8226L72.6435 72.5571H72.6459Z" fill="black"/>
<path d="M75.191 51.7298C74.9016 51.7298 74.6669 51.521 74.6669 51.2636V40.8922L51.8104 33.3368C51.5401 33.2461 51.4001 32.9782 51.5021 32.7377C51.6041 32.4952 51.9053 32.3728 52.1756 32.4635L75.3736 40.1308C75.5799 40.1983 75.7151 40.3734 75.7151 40.5674V51.2636C75.7151 51.521 75.4803 51.7298 75.191 51.7298Z" fill="black"/>
<path d="M30.4753 352.453L27.7979 369.165L20.9514 369.188L20.6289 352.753L30.4753 352.453Z" fill="white"/>
<path d="M20.9522 369.654C20.6676 369.654 20.4328 369.45 20.4281 369.197L20.1055 352.761C20.1008 352.506 20.3261 352.295 20.613 352.286L30.4595 351.987C30.616 351.98 30.763 352.037 30.8674 352.141C30.9717 352.244 31.0168 352.381 30.9954 352.518L28.318 369.23C28.2801 369.46 28.0619 369.629 27.801 369.631L20.9545 369.654H20.9522ZM21.1632 353.204L21.4668 368.72L27.3433 368.701L29.8666 352.94L21.1609 353.204H21.1632Z" fill="black"/>
<path d="M28.0318 385.14C25.3449 385.395 21.3442 385.496 15.9964 385.078C14.085 384.929 12.7356 383.353 13.0439 381.668C13.8739 377.133 16.1909 369.132 19.843 365.462L21.6477 367.749L22.7173 365.386C22.8904 365.131 27.427 364.962 27.5219 365.441L27.797 367.749L30.3724 365.182L30.2301 373.612C30.2135 374.543 30.3131 375.473 30.5242 376.386L31.2001 379.301C31.608 381.056 31.1029 382.914 29.725 384.22C29.1867 384.73 28.5891 385.087 28.0247 385.14H28.0318Z" fill="white"/>
<path d="M22.83 385.827C20.9091 385.827 18.6206 385.751 15.9503 385.542C14.8902 385.46 13.944 385 13.2871 384.249C12.6326 383.501 12.3551 382.53 12.5259 381.592C12.744 380.402 14.7859 369.839 19.4482 365.152C19.555 365.044 19.7044 364.989 19.8704 364.996C20.0293 365.004 20.1787 365.076 20.2688 365.194L21.5186 366.778L22.2276 365.211C22.2371 365.188 22.249 365.167 22.2656 365.146C22.6972 364.504 26.577 364.684 27.1129 364.77C27.3406 364.808 27.9477 364.907 28.0378 365.359L28.1919 366.652L29.98 364.869C30.1271 364.724 30.3595 364.675 30.5611 364.745C30.765 364.814 30.8978 364.992 30.8954 365.186L30.7532 373.616C30.7389 374.513 30.8338 375.411 31.0377 376.287L31.7136 379.202C32.1689 381.157 31.5666 383.15 30.1081 384.534C29.4393 385.169 28.7374 385.536 28.0805 385.599C26.8212 385.72 25.0758 385.825 22.8252 385.825L22.83 385.827ZM19.8063 366.228C16.427 370.058 14.3021 377.694 13.5598 381.741C13.4341 382.427 13.6357 383.131 14.1124 383.678C14.5867 384.22 15.272 384.553 16.0404 384.612C21.7533 385.057 25.6829 384.893 27.9738 384.673C28.3722 384.635 28.8607 384.359 29.3492 383.897C30.5753 382.735 31.078 381.05 30.6915 379.392L30.0156 376.477C29.7974 375.534 29.6931 374.566 29.7097 373.604L29.8306 366.424L28.1919 368.058C28.0544 368.196 27.8362 368.248 27.6394 368.191C27.4425 368.134 27.3003 367.98 27.2789 367.797L27.0275 365.702C26.3161 365.544 23.8497 365.591 23.1241 365.738L22.1351 367.924C22.064 368.082 21.9004 368.193 21.7083 368.212C21.5186 368.231 21.3288 368.158 21.2197 368.016L19.8087 366.228H19.8063Z" fill="black"/>
<path d="M23.1406 382.847C21.2624 382.847 18.9336 382.719 16.2941 382.307C16.0095 382.263 15.8174 382.021 15.8672 381.767C15.917 381.514 16.1898 381.346 16.4743 381.39C23.1003 382.426 27.8148 381.601 27.8623 381.592C28.1516 381.54 28.4219 381.704 28.4812 381.957C28.5381 382.21 28.3555 382.455 28.071 382.508C27.9476 382.529 26.1121 382.852 23.1382 382.852L23.1406 382.847Z" fill="black"/>
<path d="M25.3249 376.44H19.1139C18.8246 376.44 18.5898 376.231 18.5898 375.974C18.5898 375.717 18.8246 375.508 19.1139 375.508H25.3249C25.6142 375.508 25.849 375.717 25.849 375.974C25.849 376.231 25.6142 376.44 25.3249 376.44Z" fill="black"/>
<path d="M79.6289 353.946L82.0383 373.423L91.2492 375.14L90.6895 352.301L79.6289 353.946Z" fill="white"/>
<path d="M91.2484 375.606C91.2128 375.606 91.1772 375.602 91.1417 375.595L81.9308 373.88C81.7102 373.838 81.5419 373.676 81.5181 373.476L79.1087 353.998C79.0779 353.752 79.27 353.528 79.5427 353.488L90.601 351.843C90.7504 351.819 90.9045 351.857 91.0207 351.944C91.1369 352.03 91.2081 352.157 91.2104 352.292L91.7701 375.129C91.7749 375.27 91.7037 375.408 91.5804 375.498C91.4855 375.568 91.367 375.606 91.246 375.606H91.2484ZM82.5166 373.037L90.7077 374.562L90.1741 352.851L80.202 354.334L82.5166 373.037Z" fill="black"/>
<path d="M78.1446 382.71C77.943 379.297 77.9359 373.012 80.2742 369.983L87.6424 372.316V370.915C87.6424 370.464 88.0052 370.092 88.4653 370.069L92.5751 369.86C94.1095 369.782 95.6367 370.065 97.0383 370.677C101.169 372.484 113.738 377.116 115.481 382.326C115.996 383.864 114.644 385.4 112.842 385.446C108.706 385.551 98.76 385.667 80.9121 385.123C79.4252 385.079 78.2228 384.031 78.1446 382.708V382.71Z" fill="white"/>
<path d="M104.591 386.002C99.1081 386.002 91.3581 385.909 80.8903 385.591C79.1188 385.538 77.7101 384.308 77.6176 382.735C77.4089 379.219 77.4208 372.853 79.8397 369.718C79.9749 369.543 80.2263 369.472 80.4468 369.543L87.1155 371.655V370.916C87.1155 370.218 87.6941 369.642 88.434 369.604L92.5438 369.396C94.1564 369.315 95.788 369.613 97.2678 370.258C97.7611 370.473 98.3729 370.729 99.0749 371.022C104.425 373.253 114.381 377.407 115.981 382.195C116.264 383.041 116.086 383.943 115.495 384.671C114.883 385.422 113.897 385.888 112.856 385.913C111.084 385.958 108.378 386.002 104.596 386.002H104.591ZM78.6635 382.686C78.7275 383.775 79.6998 384.623 80.9235 384.658C98.5864 385.194 108.49 385.091 112.82 384.981C113.536 384.962 114.217 384.642 114.639 384.123C115.04 383.631 115.161 383.026 114.971 382.461C113.503 378.075 103.453 373.882 98.6243 371.868C97.9176 371.572 97.2987 371.315 96.8006 371.096C95.4845 370.52 94.0284 370.254 92.6007 370.326L88.4909 370.535C88.3083 370.543 88.1613 370.714 88.1613 370.914V372.315C88.1613 372.467 88.0783 372.608 87.9384 372.697C87.7985 372.783 87.6206 372.806 87.4617 372.756L80.4848 370.547C78.4595 373.559 78.4666 379.402 78.6635 382.686Z" fill="black"/>
<path d="M101.74 382.767C96.5153 382.767 89.453 382.563 81.7409 381.767C81.454 381.738 81.2476 381.506 81.2809 381.251C81.3141 380.995 81.5725 380.81 81.8619 380.841C97.5612 382.461 110.536 381.618 110.666 381.609C110.953 381.588 111.207 381.782 111.228 382.039C111.249 382.297 111.034 382.52 110.744 382.539C110.678 382.544 107.218 382.769 101.74 382.769V382.767Z" fill="black"/>
<path d="M99.4532 377.192C99.3465 377.192 99.2398 377.163 99.1473 377.104L92.0542 372.567C91.8194 372.417 91.7648 372.124 91.9356 371.915C92.104 371.706 92.4312 371.657 92.6684 371.809L99.7615 376.346C99.9963 376.496 100.051 376.789 99.8801 376.998C99.7781 377.125 99.6169 377.192 99.4532 377.192Z" fill="black"/>
<path d="M82.4951 227.57C82.4951 227.57 95.6995 308.13 92.8846 361.9L88.7653 362.267C86.5503 362.464 84.3211 362.514 82.099 362.413L78.1932 362.238C78.1932 362.238 62.4464 280.56 54.5849 266.995C54.5849 266.995 33.2035 339.63 32.3806 359.31C32.3806 359.31 22.8757 360.16 19.0884 358.947C17.0537 339.955 16.4655 320.299 16.3635 307.957C16.0719 272.637 19.8662 256.594 21.9484 248.982C23.8598 241.994 25.9088 236.313 27.4052 232.472L32.4043 219.789L82.4951 227.57Z" fill="#13187E"/>
<path d="M84.3253 362.931C83.5712 362.931 82.8194 362.914 82.07 362.88L78.1642 362.705C77.9199 362.695 77.7159 362.534 77.6733 362.319C77.5191 361.524 62.6427 284.645 54.7243 268.365C51.8975 278.076 33.6536 341.342 32.9018 359.33C32.8923 359.562 32.6907 359.754 32.4299 359.778C32.0362 359.813 22.7637 360.623 18.9076 359.389C18.7155 359.328 18.5827 359.174 18.5638 358.995C16.3891 338.699 15.9219 318.311 15.8365 307.965C15.5591 274.375 18.8981 258.154 21.4356 248.877C22.9605 243.296 24.8008 237.728 26.9067 232.326L31.9058 219.641C31.9912 219.425 32.2402 219.297 32.4915 219.335L82.5823 227.116C82.8052 227.15 82.9783 227.308 83.0115 227.508C83.1443 228.314 96.1899 308.729 93.4057 361.927C93.3939 362.159 93.1923 362.347 92.9338 362.37L88.8145 362.737C87.3276 362.87 85.8241 362.935 84.3229 362.935L84.3253 362.931ZM78.6361 361.794L82.1222 361.95C84.3134 362.047 86.5284 361.999 88.7102 361.805L92.3789 361.478C94.9828 310.116 82.9427 233.684 82.0273 227.972L32.75 220.318L27.898 232.627C25.8039 238 23.9731 243.541 22.4554 249.093C19.9321 258.323 16.6096 274.467 16.8871 307.954C16.9725 318.233 17.4349 338.44 19.5764 358.601C22.9036 359.495 30.0133 359.027 31.8749 358.883C32.9635 338.799 53.8635 267.6 54.0769 266.878C54.1314 266.69 54.3117 266.553 54.5275 266.532C54.7409 266.513 54.952 266.61 55.0516 266.783C62.6736 279.933 77.3413 355.091 78.6385 361.794H78.6361Z" fill="black"/>
<path d="M53.8386 269.822C53.7935 269.822 53.7461 269.816 53.6986 269.805C53.4188 269.738 53.2552 269.48 53.3311 269.232L55.5271 262.121C56.1721 260.029 58.0598 258.455 60.4479 258.016L62.5016 257.639C62.7838 257.586 63.0613 257.749 63.1206 258.002C63.1799 258.255 62.9973 258.502 62.7127 258.552L60.659 258.93C58.6574 259.297 57.078 260.615 56.5349 262.368L54.3389 269.478C54.2749 269.685 54.0638 269.822 53.8338 269.822H53.8386Z" fill="black"/>
<path d="M24.8289 256.576C24.5775 256.576 24.3546 256.414 24.3119 256.186C24.2644 255.933 24.4565 255.692 24.7435 255.65C36.2073 253.95 38.4768 246.19 38.5693 245.861C38.6381 245.61 38.9227 245.458 39.2025 245.519C39.4823 245.581 39.6555 245.832 39.5867 246.083C39.563 246.169 37.0848 254.767 24.9142 256.572C24.8858 256.576 24.8573 256.578 24.8289 256.578V256.576Z" fill="black"/>
<path d="M83.0844 251.283C83.0156 251.283 82.9444 251.27 82.8757 251.245C75.7588 248.496 75.9319 242.495 75.9343 242.434C75.9462 242.177 76.1857 241.972 76.4774 241.985C76.7667 241.995 76.992 242.211 76.9801 242.468C76.9706 242.7 76.8544 247.902 83.2907 250.386C83.5563 250.49 83.6772 250.764 83.5634 251C83.478 251.175 83.2859 251.281 83.082 251.281L83.0844 251.283Z" fill="black"/>
<path d="M81.4329 160.518C72.6987 159.643 54.0587 158.071 41.236 159.115C37.3658 159.43 31.7785 161.533 28.8355 163.792C20.1653 170.446 3.80675 185.104 1.07241 202.691C0.674003 205.258 2.56646 207.667 5.40988 208.226L20.5234 211.204C20.5234 211.204 14.4974 232.324 14.9836 235.974C15.4698 239.621 27.9557 245.828 43.5696 240.736C55.7472 236.767 72.9785 233.609 83.9206 237.035C84.0249 237.066 85.0708 244.546 85.1798 244.558C88.692 245.012 92.2327 243.797 92.1497 239.405L90.4849 216.598L110.515 214.246L112.305 213.716C117.719 212.113 120.515 206.802 118.428 202.079C113.723 191.425 106.623 174.18 93.473 164.654C90.6604 162.617 85.0399 160.881 81.4352 160.518H81.4329Z" fill="black"/>
<path d="M72.3274 230.71H103.629C104.988 230.71 106.173 229.886 106.501 228.713L117.331 189.875C117.794 188.215 116.383 186.609 114.459 186.609H83.158C81.7992 186.609 80.6134 187.434 80.2862 188.607L69.4555 227.445C68.9931 229.105 70.4042 230.71 72.3274 230.71Z" fill="white"/>
<path d="M103.626 231.178H72.3248C71.2458 231.178 70.2474 230.745 69.581 229.988C68.917 229.233 68.6845 228.265 68.943 227.335L79.7713 188.496C80.1578 187.113 81.5475 186.145 83.1507 186.145H114.45C115.529 186.145 116.527 186.577 117.193 187.334C117.857 188.089 118.09 189.057 117.831 189.988L107.003 228.826C106.617 230.21 105.227 231.178 103.624 231.178H103.626ZM83.1554 187.079C82.0337 187.079 81.0637 187.754 80.7934 188.722L69.9652 227.56C69.7825 228.21 69.9462 228.887 70.411 229.414C70.8758 229.942 71.5754 230.246 72.3272 230.246H103.629C104.75 230.246 105.72 229.571 105.991 228.602L116.819 189.764C117.001 189.114 116.838 188.437 116.373 187.91C115.908 187.383 115.209 187.079 114.457 187.079H83.1578H83.1554Z" fill="black"/>
<path d="M112.24 206.461L111.188 210.38L107.403 209.26C105.318 208.642 103.317 207.82 101.436 206.805L99.266 205.635C97.6439 204.759 95.5404 205.443 94.9096 207.033C93.5697 210.412 93.8353 216.073 107.464 219.628C114.987 221.589 117.142 213.019 116.168 208.256C115.919 207.039 115.245 206.261 114.557 205.77C113.732 205.181 112.499 205.548 112.238 206.459L112.24 206.461Z" fill="white"/>
<path d="M109.553 220.379C108.841 220.379 108.094 220.277 107.321 220.077C100.726 218.356 96.5001 215.951 94.7594 212.926C93.6994 211.085 93.5808 208.995 94.4203 206.879C94.776 205.983 95.5539 205.287 96.557 204.966C97.5507 204.65 98.6392 204.747 99.5427 205.236L101.713 206.407C103.555 207.4 105.526 208.212 107.573 208.818L110.814 209.777L111.735 206.354C111.735 206.354 111.735 206.35 111.735 206.348C111.901 205.765 112.384 205.304 113.025 205.114C113.665 204.924 114.362 205.033 114.889 205.409C115.847 206.092 116.451 207.023 116.689 208.176C117.41 211.701 116.437 216.719 113.563 219.02C112.434 219.923 111.073 220.381 109.555 220.381L109.553 220.379ZM97.7309 205.717C97.4534 205.717 97.176 205.759 96.908 205.843C96.2037 206.067 95.6582 206.556 95.4092 207.187C94.6575 209.081 94.7547 210.868 95.6938 212.498C97.2993 215.287 101.309 217.533 107.618 219.181C109.707 219.727 111.471 219.438 112.861 218.324C115.463 216.242 116.326 211.612 115.657 208.341C115.467 207.415 114.988 206.672 114.234 206.135C113.983 205.955 113.663 205.905 113.359 205.995C113.056 206.086 112.833 206.297 112.752 206.573L111.701 210.488C111.668 210.615 111.576 210.724 111.445 210.788C111.317 210.851 111.165 210.864 111.026 210.824L107.241 209.703C105.12 209.075 103.079 208.235 101.17 207.206L98.9997 206.035C98.6107 205.827 98.1744 205.719 97.7333 205.719L97.7309 205.717Z" fill="black"/>
<path d="M39.8478 183.976C38.2826 185.402 36.5016 186.626 34.5523 187.611C27.9809 190.939 12.2839 198.997 8.37808 201.964C3.40268 205.744 1.0217 207.155 5.02004 216.881C11.5369 232.735 41.9276 192.038 41.9276 192.038C41.9276 192.038 50.8539 193.475 52.8578 186.516C52.8578 186.516 57.5083 187.292 59.4482 186.546C60.9352 185.972 60.8711 183.728 58.8862 183.481L46.0469 181.353C44.2778 181.072 42.4683 181.587 41.2138 182.73L39.8431 183.976H39.8478Z" fill="white"/>
<path d="M9.86461 221.015C9.64881 221.015 9.43537 221.004 9.22668 220.981C7.09471 220.757 5.51766 219.431 4.53586 217.043C0.532781 207.302 2.89716 205.512 7.60695 201.945L8.04568 201.611C11.98 198.62 27.7172 190.542 34.3005 187.207C36.2048 186.243 37.9479 185.045 39.4798 183.651L40.8506 182.404C42.2284 181.149 44.211 180.584 46.1509 180.894L58.9949 183.024C60.0739 183.157 60.8494 183.832 60.994 184.777C61.1363 185.716 60.5933 186.619 59.6684 186.975C57.968 187.631 54.5151 187.228 53.2464 187.049C51.1784 193.103 43.8766 192.717 42.1928 192.541C39.9423 195.524 20.3917 221.015 9.86699 221.015H9.86461ZM40.2292 184.305C38.6285 185.762 36.8095 187.011 34.8199 188.019C28.2627 191.341 12.5942 199.382 8.7263 202.32L8.28757 202.653C3.67738 206.146 1.76833 207.591 5.52241 216.722C6.36903 218.783 7.62118 219.872 9.35237 220.055C9.53497 220.074 9.71995 220.082 9.90967 220.082C20.2423 220.087 41.2869 192.067 41.5004 191.78C41.6166 191.626 41.8229 191.546 42.0292 191.58C42.3731 191.634 50.5002 192.849 52.3594 186.401C52.4282 186.163 52.6914 186.013 52.9642 186.06C54.2139 186.268 57.7807 186.686 59.251 186.119C59.8273 185.897 60.0194 185.332 59.953 184.904C59.915 184.653 59.7277 184.058 58.8241 183.944L45.9611 181.812C44.3675 181.558 42.7335 182.022 41.6 183.056L40.2292 184.303V184.305Z" fill="black"/>
<path d="M69.605 145.585L70.5655 157.475C70.7765 159.022 72.031 160.296 73.7243 160.69L78.4198 161.778L75.3725 163.841C68.6184 168.416 59.2629 168.423 52.497 163.86L47.6758 160.608L53.5097 159.45C55.1863 159.117 56.474 157.923 56.78 156.419L59.3554 140.686L69.6026 145.588L69.605 145.585Z" fill="white"/>
<path d="M63.9221 167.731C59.7815 167.731 55.6409 166.564 52.1809 164.231L47.3596 160.979C47.196 160.869 47.1201 160.686 47.1652 160.509C47.2078 160.331 47.3644 160.192 47.5636 160.152L53.3975 158.994C54.8725 158.701 55.9966 157.659 56.2646 156.336L58.8377 140.618C58.8614 140.468 58.9681 140.337 59.1199 140.268C59.2716 140.2 59.4542 140.202 59.6036 140.274L69.8509 145.176C70.0098 145.252 70.1117 145.393 70.126 145.554L71.0864 157.444C71.2714 158.785 72.3599 159.893 73.8563 160.241L78.5519 161.329C78.7464 161.373 78.8934 161.515 78.9337 161.688C78.974 161.863 78.8958 162.042 78.7369 162.15L75.6895 164.212C72.2271 166.558 68.0723 167.731 63.9198 167.731H63.9221ZM48.894 160.842L52.8141 163.487C59.3665 167.908 68.511 167.9 75.0539 163.47L77.2428 161.987L73.5884 161.141C71.6722 160.696 70.2801 159.281 70.0406 157.532L69.0968 145.874L59.7649 141.409L57.2962 156.482C56.95 158.19 55.5105 159.526 53.6227 159.901L48.8916 160.84L48.894 160.842Z" fill="black"/>
<path d="M84.792 129.036C81.5786 127.524 84.1659 132.234 73.5938 124.096C69.3844 120.856 69.2326 126.906 68.1393 126.066C64.0959 122.972 64.2382 123.073 61.6865 122.679C59.998 122.417 57.738 124.491 57.0668 126.452C56.1799 129.04 58.115 130.591 57.4557 136.554C56.9909 140.741 55.5111 142.799 56.8676 143.989C58.2383 145.193 60.4723 143.721 62.0825 144.934C64.1671 146.505 61.7885 149.996 63.3276 152.472C64.2975 154.033 67.4824 155.87 74.1866 155.727C75.2728 155.704 76.1929 154.993 76.3708 154.035C76.5985 152.81 76.8759 151.26 77.0016 149.76C77.6016 142.611 75.8704 140.234 77.5755 139.013C80.1865 137.14 84.6236 140.629 86.5066 138.983C88.463 137.275 89.1935 131.105 84.7943 129.034L84.792 129.036Z" fill="black"/>
<path d="M68.8051 133.047L68.9379 135C69.0019 135.92 68.9925 136.842 68.9118 137.761C68.7624 139.487 68.5276 142.452 68.5395 144.123C68.5561 146.576 77.0816 147.055 77.0816 147.055L78.163 145.983L79.1638 146.021C79.3583 146.027 79.5551 146 79.7258 145.92C80.1575 145.72 80.3709 145.31 80.2974 144.914C79.8942 142.748 79.1875 137.962 79.9701 134.243C79.9701 134.243 75.2295 130.819 68.8027 133.045L68.8051 133.047Z" fill="white"/>
<path d="M77.0823 147.519C77.0823 147.519 77.0609 147.519 77.0491 147.519C75.5432 147.435 68.035 146.874 68.016 144.123C68.0042 142.412 68.2461 139.377 68.3907 137.721C68.469 136.825 68.4761 135.918 68.4168 135.024L68.284 133.07C68.2698 132.868 68.405 132.682 68.616 132.608C75.2491 130.309 80.1012 133.733 80.3028 133.878C80.4522 133.986 80.5233 134.159 80.4877 134.325C79.7099 138.027 80.4593 142.908 80.8174 144.834C80.9312 145.441 80.5921 146.042 79.9731 146.329C79.7336 146.441 79.4538 146.496 79.1455 146.483L78.3913 146.456L77.4759 147.363C77.3763 147.462 77.234 147.517 77.0846 147.517L77.0823 147.519ZM69.3512 133.359L69.4603 134.969C69.5243 135.905 69.5148 136.857 69.4342 137.795C69.2919 139.436 69.0524 142.442 69.0642 144.119C69.0737 145.477 73.5464 146.357 76.8641 146.574L77.7747 145.671C77.8791 145.568 78.019 145.513 78.1874 145.517L79.1882 145.555C79.3044 145.559 79.4087 145.543 79.487 145.507C79.7028 145.405 79.8213 145.199 79.7834 144.99C79.3399 142.6 78.7115 138.105 79.3992 134.446C78.4032 133.823 74.5021 131.731 69.3512 133.361V133.359Z" fill="black"/>
<path d="M67.3065 139.064C67.3065 139.064 66.9935 134.369 64.6244 134.962C62.2576 135.555 62.7485 140.716 67.3065 139.064Z" fill="white"/>
<path d="M434.466 271.575L394.597 303.474L286.644 303.174C286.485 303.174 286.404 303.02 286.518 302.93L325.788 271.512L434.466 271.577V271.575Z" fill="white"/>
<path d="M394.595 303.939L286.643 303.64C286.346 303.64 286.088 303.484 285.986 303.241C285.886 303.009 285.957 302.748 286.168 302.581L325.438 271.163C325.535 271.087 325.659 271.043 325.789 271.043L434.467 271.108C434.686 271.108 434.88 271.226 434.956 271.408C435.034 271.587 434.98 271.792 434.816 271.923L394.946 303.821C394.849 303.897 394.726 303.942 394.595 303.942V303.939ZM287.575 302.71L394.396 303.005L433.099 272.039L325.988 271.975L287.575 302.71Z" fill="black"/>
<path d="M434.464 271.604V353.248L395.199 384.68C395.048 384.801 394.789 384.716 394.789 384.545V303.475C394.789 303.475 433.897 271.629 434.464 271.606V271.604Z" fill="white"/>
<path d="M395.029 385.203C394.92 385.203 394.811 385.184 394.709 385.142C394.434 385.033 394.266 384.805 394.266 384.543V303.473C394.266 303.342 394.327 303.217 394.436 303.129C433.685 271.167 434.197 271.148 434.441 271.137C434.583 271.131 434.723 271.177 434.828 271.266C434.932 271.355 434.989 271.475 434.989 271.603V353.248C434.989 353.381 434.925 353.505 434.816 353.594L395.551 385.026C395.406 385.142 395.219 385.203 395.032 385.203H395.029ZM395.314 303.679V383.963L433.941 353.041V272.561C429.25 276.109 405.175 295.651 395.314 303.679Z" fill="black"/>
<path d="M394.789 384.739L286.379 384.444C286.614 384.631 286.462 303.242 286.462 303.242L394.789 303.474C394.789 303.474 394.789 384.848 394.789 384.741V384.739Z" fill="white"/>
<path d="M394.788 385.204L286.394 384.909C286.247 384.918 286.131 384.871 286.029 384.789C285.884 384.673 285.825 384.498 285.87 384.333C286.039 382.431 285.989 330.561 285.939 303.242C285.939 303.117 285.994 302.999 286.093 302.911C286.19 302.824 286.326 302.773 286.463 302.773L394.791 303.005C395.08 303.005 395.315 303.214 395.315 303.472V384.738C395.315 384.863 395.26 384.981 395.161 385.069C395.063 385.156 394.928 385.204 394.791 385.204H394.788ZM286.923 383.977L394.264 384.27V303.938L286.987 303.708C286.992 306.851 287.025 325.324 287.032 343.805C287.037 355.586 287.032 364.976 287.016 371.716C287.006 375.525 286.992 378.702 286.975 380.929C286.963 382.505 286.954 383.426 286.926 383.977H286.923Z" fill="black"/>
<path d="M382.265 324.05L360.852 329.17C359.745 329.435 359.339 330.646 360.105 331.408L362.346 333.635C362.913 334.198 362.861 335.063 362.228 335.569L350.015 345.327C349.381 345.833 348.407 345.787 347.84 345.224L334.785 332.296C334.216 331.733 333.241 331.686 332.608 332.192L299.91 358.234C299.276 358.74 299.224 359.605 299.793 360.168L304.565 364.893C305.134 365.456 306.106 365.502 306.74 364.996L331.837 345.034C332.47 344.527 333.445 344.574 334.012 345.137L347.062 358.061C347.631 358.624 348.604 358.67 349.237 358.164L369.039 342.344C369.672 341.838 370.649 341.885 371.216 342.45L373.632 344.852C374.403 345.618 375.814 345.384 376.222 344.422L384.102 325.858C384.546 324.814 383.474 323.762 382.262 324.05H382.265Z" fill="#EBFF00"/>
<path d="M207.902 155.66C207.437 155.059 207.437 154.285 207.902 153.684C208.542 152.855 208.893 151.961 208.893 151.028C208.893 146.696 201.344 143.182 192.036 143.182C182.728 143.182 175.18 146.694 175.18 151.028C175.18 151.961 175.528 152.855 176.171 153.684C176.636 154.285 176.636 155.059 176.171 155.66C175.531 156.489 175.18 157.383 175.18 158.316C175.18 160.372 176.88 162.243 179.659 163.642C179.598 163.876 179.562 164.112 179.562 164.353C179.562 167.559 185.147 170.159 192.036 170.159C198.925 170.159 204.51 167.561 204.51 164.353C204.51 164.112 204.475 163.874 204.413 163.642C207.192 162.243 208.893 160.372 208.893 158.316C208.893 157.383 208.544 156.489 207.902 155.66Z" fill="black"/>
<path d="M237.792 90.8729C237.792 68.6515 216.999 49.6953 192.015 49.6953C167.079 49.6953 146.511 68.1389 146.345 90.316C146.259 101.609 152.385 112.116 160.737 119.466C166.761 124.769 171.153 131.359 173.285 138.655L173.387 139.007C175.457 146.088 182.645 151.032 190.869 151.032H194.242C202.468 151.032 209.654 146.088 211.724 139.007L211.786 138.794C213.904 131.551 218.118 124.896 224.142 119.669C232.56 112.362 237.789 102.162 237.789 90.8708L237.792 90.8729Z" fill="white"/>
<path d="M194.242 151.499H190.87C182.409 151.499 175.01 146.412 172.88 139.126L172.778 138.774C170.705 131.683 166.413 125.121 160.368 119.799C151.043 111.592 145.743 100.845 145.821 90.3152C145.902 79.4503 150.768 69.1675 159.521 61.361C168.296 53.5376 179.836 49.2305 192.018 49.2305C217.115 49.2305 238.319 68.3006 238.319 90.8742C238.319 101.933 233.415 112.279 224.512 120.006C218.65 125.091 214.426 131.63 212.299 138.913L212.237 139.126C210.108 146.412 202.709 151.499 194.247 151.499H194.242ZM192.016 50.1628C167.288 50.1628 147.033 68.1782 146.869 90.3215C146.793 100.602 151.982 111.104 161.105 119.137C167.283 124.576 171.67 131.286 173.793 138.54L173.895 138.892C175.904 145.766 182.885 150.567 190.87 150.567H194.242C202.227 150.567 209.209 145.766 211.218 138.892L211.279 138.679C213.456 131.231 217.777 124.543 223.775 119.339C232.473 111.79 237.266 101.682 237.266 90.8763C237.266 68.8089 216.544 50.1649 192.013 50.1649L192.016 50.1628Z" fill="black"/>
<path d="M185.518 98.5422C184.219 98.5422 182.948 98.0844 181.994 97.2344C180.159 95.5976 179.734 92.8302 180.825 89.641C181.807 86.7702 183.116 84.7537 184.492 83.3405C178.862 81.7332 174.897 84.1231 173.837 86.4475C173.308 87.6097 173.089 88.8479 173.194 90.124C173.215 90.3813 172.997 90.6049 172.708 90.6218C172.423 90.6387 172.167 90.4467 172.148 90.1894C172.034 88.7888 172.283 87.3735 172.864 86.0952C174.109 83.3637 178.767 80.5225 185.286 82.5938C186.536 81.5223 187.802 80.898 188.898 80.5352C192.455 79.3582 196.053 80.2462 198.234 81.4696C198.569 81.6573 198.898 81.8661 199.221 82.096C202.275 80.2335 206.07 80.2441 208.446 80.9233C212.437 82.0623 213.794 85.0237 214.23 87.3081C214.278 87.5612 214.086 87.8038 213.801 87.846C213.512 87.8902 213.244 87.7173 213.196 87.4642C212.81 85.435 211.617 82.8069 208.126 81.8113C206.044 81.2165 202.747 81.189 200.039 82.733C203.359 85.5447 205.667 90.4151 204.313 94.6231C203.824 96.1418 202.449 97.2112 200.632 97.4812C198.491 97.8018 196.285 96.9665 195.016 95.355C193.909 93.946 192.588 90.7315 196.212 85.0448C196.823 84.0851 197.556 83.3068 198.363 82.6824C198.135 82.5305 197.905 82.3871 197.672 82.2563C195.702 81.1511 192.46 80.3474 189.261 81.4063C188.201 81.7564 187.221 82.2922 186.325 83.0009C189.925 84.8423 191.746 90.6619 191.016 93.8828C190.496 96.1671 189.012 97.7955 186.939 98.3502C186.469 98.4747 185.993 98.5358 185.516 98.5358L185.518 98.5422ZM185.545 83.6928C183.982 85.1988 182.725 87.2954 181.828 89.9131C180.854 92.7627 181.186 95.1905 182.737 96.5763C183.78 97.5065 185.239 97.8377 186.638 97.4622C188.329 97.0087 189.55 95.6398 189.989 93.7035C190.643 90.8137 188.836 85.1123 185.542 83.6928H185.545ZM199.183 83.2962C198.408 83.87 197.706 84.5998 197.125 85.5089C193.786 90.7505 194.91 93.5938 195.875 94.8235C196.911 96.1418 198.713 96.8231 200.457 96.5658C201.884 96.3527 202.921 95.5533 203.302 94.37C204.566 90.4383 202.335 85.8674 199.181 83.2941L199.183 83.2962Z" fill="#EBFF00"/>
<path d="M212.993 116.591C212.82 116.591 212.649 116.513 212.549 116.373C212.395 116.156 212.469 115.867 212.715 115.73C220.88 111.163 226.759 103.745 228.841 95.3776C228.903 95.1266 229.185 94.9663 229.468 95.0232C229.75 95.0781 229.93 95.327 229.866 95.5801C227.722 104.19 221.675 111.822 213.273 116.521C213.187 116.57 213.09 116.593 212.995 116.593L212.993 116.591Z" fill="black"/>
<path d="M163.758 111.929C163.613 111.929 163.468 111.876 163.366 111.773C157.293 105.698 153.949 97.8707 153.949 89.7352C153.949 77.0415 161.891 65.6492 174.674 60.0026C174.932 59.8866 175.248 59.9815 175.376 60.2136C175.504 60.4435 175.399 60.724 175.139 60.8379C162.714 66.3263 154.995 77.398 154.995 89.7352C154.995 97.6429 158.244 105.249 164.147 111.153C164.339 111.345 164.32 111.64 164.104 111.811C164.004 111.889 163.879 111.929 163.755 111.929H163.758Z" fill="black"/>
<path d="M194.919 155.69C194.668 155.69 194.447 155.53 194.402 155.302C194.353 155.049 194.545 154.807 194.832 154.765C196.375 154.53 197.877 154.229 199.297 153.872C199.572 153.805 199.864 153.946 199.945 154.195C200.023 154.442 199.862 154.701 199.582 154.771C198.126 155.136 196.589 155.444 195.01 155.684C194.979 155.688 194.95 155.69 194.919 155.69Z" fill="white"/>
<path d="M187.813 163.4C187.526 163.4 187.291 163.194 187.289 162.939C187.287 162.681 187.519 162.47 187.808 162.468C191.311 162.441 196.45 162.006 201.051 160.093C201.314 159.983 201.625 160.085 201.748 160.319C201.871 160.553 201.758 160.829 201.494 160.939C196.721 162.924 191.42 163.373 187.816 163.4H187.811H187.813Z" fill="white"/>
<path d="M192.261 40.4805H192.249C191.96 40.4741 191.73 40.2611 191.734 40.0038L192.149 22.233C192.157 21.9757 192.394 21.7732 192.685 21.7774C192.975 21.7837 193.205 21.9968 193.2 22.2541L192.785 40.0249C192.778 40.278 192.545 40.4805 192.261 40.4805Z" fill="black"/>
<path d="M134.349 76.6829L121.591 76.6745C121.301 76.6745 121.066 76.4657 121.066 76.2083C121.066 75.951 121.301 75.7422 121.591 75.7422L134.349 75.7506C134.638 75.7506 134.873 75.9594 134.873 76.2168C134.873 76.4741 134.638 76.6829 134.349 76.6829Z" fill="black"/>
<path d="M146.118 52.9588C146.033 52.9588 145.947 52.9398 145.869 52.9018L131.481 45.9665C131.227 45.8441 131.133 45.5615 131.27 45.3337C131.408 45.108 131.728 45.0236 131.982 45.146L146.369 52.0813C146.623 52.2037 146.718 52.4863 146.581 52.7141C146.486 52.8702 146.305 52.9588 146.118 52.9588Z" fill="black"/>
<path d="M249.715 76.6829C249.426 76.6829 249.191 76.4741 249.191 76.2168C249.191 75.9594 249.426 75.7506 249.715 75.7506L262.474 75.7422C262.763 75.7422 262.998 75.951 262.998 76.2083C262.998 76.4657 262.763 76.6745 262.474 76.6745L249.715 76.6829Z" fill="black"/>
<path d="M237.94 52.9588C237.752 52.9588 237.572 52.8702 237.477 52.7141C237.34 52.4884 237.434 52.2037 237.688 52.0813L252.076 45.146C252.33 45.0236 252.65 45.108 252.788 45.3337C252.925 45.5594 252.83 45.8441 252.576 45.9665L238.189 52.9018C238.11 52.9398 238.023 52.9588 237.94 52.9588Z" fill="black"/>
<path d="M320.969 33.4433C316.095 33.2176 310.97 37.394 312.142 43.7514C313.098 48.9465 319.377 50.056 322.486 52.6294C332.537 60.9568 335.859 88.2131 350.553 95.3298C362.278 101.008 383.021 98.865 393.605 85.9646C403.667 73.6969 404.566 56.3712 392.31 48.9845C381.292 42.3445 374.87 51.5705 363.212 45.4409C351.72 39.3978 354.046 32.5089 347.005 30.1549C337.379 26.9382 334.782 34.0803 320.969 33.4412V33.4433Z" fill="black"/>
<path d="M303.268 101.243C298.11 129.343 297.51 129.757 296.813 132.699C296.813 132.699 294.766 140.974 294.2 148.945C293.706 155.861 295.17 197.404 319.311 206.55C328.029 209.853 330.555 203.78 349.119 204.44C368.14 205.115 371.999 211.135 380.297 209.026C398.258 204.462 404.126 170.181 403.137 149C402.33 131.748 392.678 115.458 373.372 82.8758C370.431 77.9126 365.724 70.334 358.142 69.37C354.666 68.9271 353.276 69.4017 339.322 72.8103C324.142 76.5163 320.288 72.574 313.772 76.2252C307.039 79.9987 305.851 87.1787 303.271 101.241L303.268 101.243Z" fill="white"/>
<path d="M376.839 209.941C374.24 209.941 371.842 209.215 368.871 208.315C364.365 206.95 358.759 205.25 349.095 204.908C339.965 204.585 334.854 205.876 330.749 206.916C326.637 207.956 323.663 208.709 319.105 206.982C308.863 203.101 301.222 192.74 297.007 177.021C293.825 165.146 293.389 152.958 293.675 148.917C294.24 141.001 296.279 132.684 296.301 132.6C296.417 132.108 296.531 131.684 296.666 131.188C297.335 128.71 298.456 124.561 302.751 101.169L302.912 100.294C305.433 86.5433 306.7 79.6396 313.492 75.8323C316.838 73.9571 319.489 74.0035 323.158 74.071C326.905 74.1385 331.562 74.2229 339.182 72.3625L342.789 71.4787C353.572 68.8358 354.957 68.4941 358.216 68.9096C366.298 69.939 371.2 78.2137 373.834 82.6601C393.153 115.259 402.85 131.623 403.661 148.98C404.223 161.01 402.603 174.612 399.33 185.368C396.423 194.914 390.788 206.847 380.441 209.477C379.158 209.804 377.98 209.943 376.839 209.943V209.941ZM346.37 203.925C347.252 203.925 348.175 203.942 349.138 203.976C358.953 204.324 364.88 206.121 369.21 207.433C373.455 208.72 376.26 209.57 380.152 208.58C397.357 204.208 403.644 171.119 402.612 149.02C401.811 131.872 392.152 115.571 372.907 83.0946C370.36 78.7959 365.62 70.7932 358.066 69.8335C355.021 69.4454 353.66 69.7808 343.067 72.3773L339.46 73.2611C331.693 75.1573 326.95 75.073 323.137 75.0034C319.515 74.938 317.13 74.8958 314.049 76.6212C307.658 80.2028 306.418 86.9672 303.946 100.443L303.785 101.319C299.483 124.745 298.357 128.915 297.686 131.406C297.555 131.893 297.441 132.309 297.325 132.796C297.304 132.882 295.281 141.132 294.721 148.976C294.437 152.971 294.871 165.032 298.027 176.804C300.909 187.557 306.977 201.371 319.515 206.121C323.734 207.72 326.409 207.043 330.462 206.018C334.007 205.121 338.729 203.925 346.368 203.925H346.37Z" fill="black"/>
<path d="M330.973 263.945V277.533L338.324 277.137L339.771 263.945H330.973Z" fill="white"/>
<path d="M330.976 278.001C330.843 278.001 330.715 277.957 330.615 277.874C330.511 277.786 330.449 277.663 330.449 277.535V263.947C330.449 263.689 330.684 263.48 330.973 263.48H339.772C339.919 263.48 340.061 263.535 340.16 263.634C340.26 263.731 340.308 263.862 340.293 263.993L338.847 277.185C338.821 277.412 338.614 277.592 338.356 277.604L331.004 278.003C331.004 278.003 330.983 278.003 330.973 278.003L330.976 278.001ZM331.5 264.413V277.039L337.848 276.695L339.195 264.413H331.5Z" fill="black"/>
<path d="M339.431 294.478C336.439 294.762 331.539 294.948 325.831 294.073C323.96 293.786 322.774 292.128 323.289 290.502C324.721 285.973 327.548 277.534 329.801 273.49L331.157 275.695L332.243 273.368C332.428 273.092 332.751 272.912 333.111 272.883L337.012 272.904C338.17 272.9 338.257 273.463 338.409 273.889L339.182 275.697L340.252 273.246L342.258 291.375C342.429 292.923 341.172 294.313 339.431 294.478Z" fill="white"/>
<path d="M334.318 295.181C331.816 295.181 328.901 295.017 325.74 294.534C324.699 294.374 323.779 293.827 323.217 293.034C322.657 292.245 322.498 291.275 322.783 290.376C323.959 286.662 326.947 277.558 329.328 273.285C329.416 273.129 329.592 273.03 329.788 273.025C329.999 273.03 330.165 273.116 330.258 273.268L331.088 274.618L331.754 273.19C331.764 273.169 331.776 273.148 331.79 273.129C332.06 272.728 332.537 272.462 333.059 272.418L337.012 272.437H337.024C338.463 272.437 338.729 273.226 338.871 273.65L338.904 273.747L339.184 274.399L339.76 273.078C339.848 272.876 340.081 272.755 340.32 272.785C340.56 272.815 340.747 272.987 340.771 273.201L342.777 291.33C342.976 293.129 341.499 294.751 339.485 294.943C338.093 295.076 336.341 295.184 334.318 295.184V295.181ZM329.833 274.519C327.571 278.984 324.889 287.164 323.793 290.63C323.587 291.283 323.696 291.961 324.104 292.536C324.509 293.106 325.171 293.5 325.918 293.614C331.515 294.471 336.324 294.304 339.374 294.015C340.818 293.878 341.878 292.714 341.734 291.421L339.943 275.236L339.668 275.867C339.59 276.046 339.395 276.164 339.179 276.164C338.964 276.164 338.769 276.044 338.691 275.862L337.868 273.916C337.742 273.54 337.669 273.371 337.012 273.369L333.106 273.348C332.973 273.361 332.81 273.449 332.708 273.584L331.64 275.875C331.562 276.04 331.387 276.154 331.185 276.162C330.986 276.173 330.794 276.078 330.697 275.919L329.836 274.519H329.833Z" fill="black"/>
<path d="M333.464 292.102C331.487 292.102 329.189 291.912 326.744 291.34C326.464 291.275 326.295 291.02 326.369 290.771C326.442 290.522 326.732 290.374 327.009 290.437C333.905 292.049 339.744 290.461 339.803 290.444C340.081 290.366 340.375 290.503 340.46 290.748C340.548 290.992 340.394 291.256 340.119 291.332C339.955 291.378 337.313 292.1 333.464 292.1V292.102Z" fill="black"/>
<path d="M336.506 285.044H329.798C329.508 285.044 329.273 284.835 329.273 284.577C329.273 284.32 329.508 284.111 329.798 284.111H336.506C336.796 284.111 337.031 284.32 337.031 284.577C337.031 284.835 336.796 285.044 336.506 285.044Z" fill="black"/>
<path d="M385.051 256.754L387.223 273.137L394.112 272.924V256.754H385.051Z" fill="white"/>
<path d="M387.222 273.604C386.959 273.604 386.734 273.427 386.703 273.193L384.531 256.81C384.514 256.677 384.559 256.544 384.659 256.445C384.758 256.346 384.901 256.289 385.05 256.289H394.114C394.403 256.289 394.638 256.498 394.638 256.755V272.925C394.638 273.176 394.415 273.383 394.133 273.391L387.244 273.604C387.244 273.604 387.232 273.604 387.225 273.604H387.222ZM385.641 257.221L387.687 272.657L393.587 272.476V257.221H385.638H385.641Z" fill="black"/>
<path d="M385.583 269.229C385.583 269.229 384.696 276.506 384.971 279.431C385.168 281.526 388.398 287.852 390.219 291.279C390.968 292.69 392.396 293.593 393.983 293.654C395.915 293.728 398.605 293.815 400.772 293.817C403.755 293.819 405.807 290.805 404.742 287.993C403.76 285.399 402.2 282.146 399.743 278.683C397.893 276.075 395.194 268.988 395.194 268.988H389.581L388.478 273.135L385.583 269.227V269.229Z" fill="white"/>
<path d="M400.773 294.286H400.768C398.582 294.286 395.857 294.195 393.957 294.124C392.188 294.056 390.573 293.044 389.743 291.481C387.433 287.131 384.637 281.518 384.445 279.472C384.17 276.534 385.024 269.479 385.059 269.181C385.083 268.985 385.242 268.825 385.458 268.778C385.674 268.734 385.896 268.81 386.02 268.975L388.247 271.98L389.07 268.886C389.126 268.675 389.338 268.527 389.579 268.527H395.193C395.418 268.527 395.617 268.654 395.688 268.844C395.714 268.913 398.39 275.908 400.185 278.439C402.305 281.428 404.003 284.594 405.236 287.848C405.841 289.445 405.561 291.194 404.487 292.523C403.581 293.645 402.227 294.288 400.775 294.288L400.773 294.286ZM385.956 270.584C385.719 272.805 385.294 277.287 385.491 279.394C385.629 280.86 387.523 285.121 390.692 291.082C391.356 292.331 392.624 293.139 394.005 293.191C395.895 293.265 398.603 293.352 400.773 293.354H400.778C401.887 293.354 402.931 292.852 403.638 291.976C404.515 290.89 404.743 289.458 404.247 288.144C403.04 284.959 401.378 281.86 399.303 278.932C397.645 276.595 395.378 270.881 394.823 269.458H389.997L388.989 273.246C388.939 273.427 388.775 273.564 388.569 273.598C388.365 273.63 388.154 273.552 388.04 273.396L385.958 270.584H385.956Z" fill="black"/>
<path d="M396.489 291.169C393.999 291.169 391.869 288.07 391.779 287.938L388.582 282.439C388.449 282.211 388.549 281.928 388.808 281.81C389.064 281.692 389.381 281.781 389.514 282.01L392.694 287.484C393.204 288.231 394.914 290.237 396.489 290.237L401.336 290.23C401.625 290.23 401.86 290.439 401.86 290.697C401.86 290.954 401.625 291.163 401.336 291.163L396.489 291.169Z" fill="black"/>
<path d="M399.933 285.247H393.786C393.496 285.247 393.262 285.038 393.262 284.781C393.262 284.523 393.496 284.314 393.786 284.314H399.933C400.222 284.314 400.457 284.523 400.457 284.781C400.457 285.038 400.222 285.247 399.933 285.247Z" fill="black"/>
<path d="M319.166 128.095C319.166 128.095 319.899 178.095 322.261 210.646C324.623 243.197 329.283 268.086 329.283 268.086C329.283 268.086 337.301 270.649 342.564 269.307C342.564 269.307 346.922 240.754 347.911 231.102C348.9 221.45 346.273 216.662 346.052 208.762C345.832 200.863 349.88 165.988 349.88 165.988C349.88 165.988 380.104 244.833 383.56 262.248C383.56 262.248 390.88 263.351 396.038 260.843C396.038 260.843 396.2 229.836 395.467 225.046C394.11 216.17 386.318 207.431 384.916 198.005C383.517 188.579 382.704 164.917 378.847 150.725C374.991 136.534 367.429 120.59 367.429 120.59L319.164 128.097L319.166 128.095Z" fill="black"/>
<path d="M369.109 146.633C369.042 146.633 368.976 146.623 368.909 146.597C364.873 145.127 361.484 142.716 358.84 139.434C358.672 139.225 358.726 138.934 358.961 138.782C359.196 138.633 359.523 138.681 359.691 138.89C362.219 142.029 365.454 144.33 369.305 145.735C369.573 145.832 369.701 146.104 369.592 146.342C369.509 146.523 369.313 146.631 369.106 146.631L369.109 146.633Z" fill="white"/>
<path d="M323.517 146.437C323.377 146.437 323.24 146.389 323.136 146.29C322.936 146.102 322.946 145.807 323.157 145.63C326.43 142.888 326.904 141.228 327.62 138.715L327.824 138.009C327.898 137.76 328.187 137.61 328.464 137.675C328.744 137.741 328.913 137.996 328.839 138.245L328.637 138.947C327.902 141.521 327.371 143.381 323.875 146.311C323.774 146.395 323.645 146.437 323.515 146.437H323.517Z" fill="white"/>
<path d="M236.675 92.2377C238.783 92.6089 242.765 94.4588 243.279 94.9334C247.335 98.6879 249.732 92.8388 249.732 92.8388C249.732 92.8388 242.433 88.9113 238.304 88.3439C230.338 87.2513 232.264 91.4615 236.677 92.2377H236.675Z" fill="white"/>
<path d="M245.923 96.6576C244.92 96.6576 243.905 96.1872 242.9 95.257C242.513 94.8984 238.624 93.0549 236.572 92.6942C234.006 92.2428 232.071 90.6841 232.346 89.2919C232.477 88.6381 233.321 87.189 238.382 87.8829C242.565 88.4567 249.701 92.2766 250.002 92.439C250.216 92.555 250.31 92.7891 250.223 92.998C250.171 93.1266 248.904 96.1556 246.521 96.6027C246.322 96.6407 246.122 96.6576 245.923 96.6576ZM235.958 88.6317C234.303 88.6317 233.468 88.9924 233.378 89.4544C233.248 90.1188 234.535 91.3865 236.776 91.7809C238.925 92.1585 243.047 94.0463 243.656 94.6116C244.595 95.4806 245.484 95.8434 246.305 95.6915C247.614 95.4468 248.629 93.9218 249.073 93.0359C247.522 92.2302 241.669 89.2793 238.221 88.8047C237.346 88.6845 236.591 88.6317 235.961 88.6317H235.958Z" fill="black"/>
<path d="M250.33 95.2245C250.226 95.2245 250.121 95.1971 250.029 95.1402L193.25 59.7231C193.013 59.5755 192.956 59.2844 193.122 59.0734C193.288 58.8625 193.616 58.8119 193.853 58.9595L250.631 94.3766C250.868 94.5243 250.925 94.8153 250.759 95.0263C250.657 95.1549 250.496 95.2245 250.33 95.2245Z" fill="black"/>
<path d="M243.364 86.807C244.54 87.8912 246.769 88.8762 248.427 89.1821C249.145 89.315 249.914 89.3993 250.668 89.374C256.599 89.1757 255.193 96.6342 267.852 98.3997C268.295 98.4608 268.936 105.249 268.914 107.016C263.737 105.059 256.891 100.741 253.661 101.538C247.704 103.011 245.735 100.275 244.488 99.0135C241.21 95.7019 245.638 92.4683 245.638 92.4683C245.638 92.4683 244.884 92.3502 242.529 91.2154C238.931 89.4816 238.125 81.981 243.364 86.8091V86.807Z" fill="white"/>
<path d="M268.911 107.48C268.842 107.48 268.771 107.467 268.705 107.442C267.052 106.816 265.211 105.945 263.433 105.103C259.683 103.327 255.804 101.488 253.797 101.985C247.98 103.422 245.644 100.956 244.39 99.6315C244.285 99.5197 244.186 99.4142 244.089 99.3193C243.104 98.3258 242.661 97.2353 242.765 96.0815C242.903 94.5755 243.951 93.3352 244.655 92.6582C244.143 92.4704 243.377 92.154 242.274 91.6246C240.126 90.589 238.985 87.8194 239.116 86.2923C239.203 85.263 239.784 84.9276 240.126 84.8179C241.027 84.5268 242.208 85.0732 243.738 86.4843C244.769 87.4356 246.875 88.4206 248.53 88.7264C249.296 88.8678 250.005 88.9289 250.643 88.9078C253.437 88.815 254.77 90.2768 256.316 91.9705C258.344 94.1916 260.867 96.9548 267.927 97.9398C268.366 98.001 268.634 98.039 269.072 102.023C269.288 103.972 269.442 106.122 269.433 107.02C269.433 107.176 269.343 107.32 269.196 107.406C269.11 107.457 269.008 107.482 268.909 107.482L268.911 107.48ZM254.533 100.973C256.947 100.973 260.35 102.587 263.926 104.28C265.42 104.989 266.957 105.717 268.373 106.293C268.29 104.078 267.827 99.7665 267.514 98.8236C260.246 97.7521 257.506 94.7527 255.503 92.5569C254.023 90.9349 252.948 89.7558 250.684 89.8401C249.963 89.8633 249.166 89.7958 248.317 89.6398C246.453 89.2959 244.16 88.216 242.983 87.1318C241.653 85.9063 240.804 85.592 240.481 85.6954C240.313 85.7502 240.192 85.9991 240.161 86.3619C240.057 87.6085 241.022 89.9583 242.775 90.8041C244.964 91.8587 245.725 92.0064 245.732 92.0085C245.929 92.0444 246.09 92.1793 246.138 92.3544C246.187 92.5274 246.121 92.713 245.967 92.8269C245.948 92.8417 243.977 94.3097 243.811 96.1617C243.733 97.0539 244.091 97.9082 244.878 98.7034C244.978 98.8046 245.082 98.9143 245.194 99.0303C246.451 100.357 248.35 102.363 253.518 101.087C253.833 101.009 254.172 100.973 254.535 100.973H254.533Z" fill="black"/>
<path d="M250.205 98.4228C249.975 98.4228 249.764 98.2878 249.7 98.0811C249.624 97.8322 249.788 97.577 250.065 97.5074C250.739 97.3428 251.17 97.0053 251.346 96.5075C251.652 95.6491 251.201 94.335 250.253 93.3099C249.508 92.5062 248.721 92.0991 247.864 92.116C246.226 92.1413 244.888 93.6684 244.874 93.6832C244.698 93.8878 244.371 93.9258 244.139 93.7697C243.909 93.6136 243.866 93.3204 244.042 93.1158C244.108 93.0378 245.706 91.2153 247.845 91.1837C249.026 91.1753 250.103 91.6815 251.061 92.7172C252.043 93.7781 252.821 95.4487 252.342 96.7881C252.143 97.3513 251.63 98.0874 250.34 98.4059C250.293 98.4186 250.245 98.4228 250.2 98.4228H250.205Z" fill="black"/>
<path d="M313.667 72.8387C313.667 72.8387 331.704 70.5438 349.46 70.084C349.46 70.084 372.807 125.541 372.805 129.028C372.805 132.515 361.623 140.427 350.536 134.13C332.043 123.63 320.492 127.212 311.376 129.106C297.718 131.943 313.667 72.8387 313.667 72.8387Z" fill="#13187E"/>
<path d="M359.246 136.957C356.55 136.957 353.462 136.347 350.253 134.525C333.231 124.858 322.253 127.235 313.431 129.146C312.774 129.287 312.127 129.429 311.496 129.559C310.08 129.853 308.88 129.57 307.924 128.714C300.063 121.677 312.62 74.7242 313.158 72.7288C313.208 72.5432 313.381 72.404 313.595 72.3765C313.775 72.3533 331.865 70.0711 349.445 69.6176C349.667 69.6092 349.871 69.7336 349.952 69.9192C350.905 72.1867 373.333 125.497 373.33 129.028C373.33 130.863 370.857 133.398 367.449 135.058C365.926 135.801 362.957 136.955 359.248 136.955L359.246 136.957ZM326.349 126.473C332.989 126.473 340.898 128.104 350.82 133.738C357.97 137.798 364.48 135.442 366.946 134.242C370.285 132.616 372.282 130.315 372.282 129.03C372.282 126.353 357.199 89.8035 349.103 70.5605C333.055 70.9992 316.689 72.9397 314.097 73.2561C313.002 77.4093 301.531 121.669 308.669 128.058C309.359 128.676 310.206 128.87 311.259 128.652C311.89 128.522 312.53 128.382 313.184 128.241C317.059 127.402 321.345 126.473 326.349 126.473Z" fill="black"/>
<path d="M256.793 103.81C259.039 106.236 263.153 111.184 272.691 113.939C291.77 119.447 303.549 108.263 303.549 108.263L301.908 141.735C301.908 141.735 311.126 146.593 311.126 146.165C311.126 145.737 315.158 71.4961 315.158 71.4961C315.158 71.4961 307.716 71.6037 304.398 75.8033C301.081 80.005 288.524 97.3623 274.086 97.5711C267.519 97.666 264.341 95.2509 262.264 94.5886L256.793 103.81Z" fill="#13187E"/>
<path d="M302.808 123.994C302.808 123.994 302.794 123.994 302.784 123.994C302.495 123.983 302.269 123.766 302.284 123.509L302.976 109.381C299.753 111.866 288.636 119.033 272.536 114.384C263.382 111.741 259.092 107.054 256.787 104.536L256.393 104.108C256.258 103.962 256.236 103.76 256.334 103.593L261.805 94.3712C261.928 94.1666 262.198 94.0717 262.445 94.1497C262.964 94.3163 263.529 94.5737 264.181 94.8753C266.291 95.8456 269.211 97.1702 274.079 97.1048C287.379 96.9108 299.343 81.4961 303.273 76.4296C303.538 76.0879 303.771 75.7862 303.972 75.5352C307.404 71.1901 314.838 71.034 315.151 71.0298C315.277 71.0235 315.436 71.0783 315.536 71.1711C315.635 71.2639 315.69 71.3884 315.683 71.5191C315.683 71.5191 314.084 100.982 312.898 122.895C312.884 123.152 312.642 123.349 312.351 123.338C312.061 123.325 311.838 123.106 311.853 122.851C312.944 102.644 314.39 76.0162 314.608 71.9937C312.853 72.1203 307.439 72.7699 304.831 76.0731C304.631 76.3241 304.401 76.6236 304.138 76.9632C300.13 82.1268 287.938 97.8389 274.098 98.0414C268.919 98.1173 265.786 96.6661 263.699 95.7085C263.261 95.506 262.865 95.3246 262.511 95.1854L257.422 103.76L257.598 103.952C259.834 106.394 263.998 110.944 272.858 113.5C291.406 118.856 303.057 108.06 303.173 107.951C303.322 107.807 303.557 107.763 303.759 107.839C303.96 107.915 304.088 108.094 304.079 108.288L303.329 123.553C303.318 123.804 303.085 123.998 302.805 123.998L302.808 123.994Z" fill="black"/>
<path d="M291.131 83.7344H326.011C327.112 83.7344 328.153 84.5549 328.338 85.5673L336.254 129.031C336.439 130.044 335.696 130.864 334.596 130.864H299.716C298.616 130.864 297.575 130.044 297.39 129.031L289.474 85.5673C289.289 84.5549 290.031 83.7344 291.131 83.7344Z" fill="white"/>
<path d="M334.596 131.334H299.716C298.35 131.334 297.1 130.357 296.872 129.109L288.956 85.6446C288.84 85.0097 289.02 84.3896 289.45 83.9403C289.862 83.5079 290.46 83.2695 291.131 83.2695H326.011C327.379 83.2695 328.627 84.2461 328.854 85.4948L336.77 128.959C336.887 129.594 336.706 130.214 336.277 130.663C335.862 131.096 335.267 131.334 334.596 131.334ZM291.131 84.2018C290.773 84.2018 290.46 84.3242 290.249 84.5435C290.016 84.7882 289.924 85.1236 289.993 85.4927L297.909 128.957C298.051 129.739 298.879 130.399 299.718 130.399H334.598C334.956 130.399 335.269 130.277 335.48 130.058C335.713 129.813 335.805 129.476 335.739 129.106L327.823 85.6425C327.681 84.8599 326.853 84.1997 326.013 84.1997H291.133L291.131 84.2018Z" fill="black"/>
<path d="M331.186 101.324L331.765 104.609C331.807 106.102 330.294 107.254 328.641 106.986L319.549 105.516C318.15 105.29 316.853 106.277 316.933 107.54C316.981 108.262 317.344 109.097 318.349 109.966C318.819 110.371 326.886 115.838 333.083 114.845C333.354 114.801 339.159 117.705 339.382 117.564C340.357 116.944 341.035 114.963 341.251 113.295C341.27 113.151 336.441 110.732 335.953 109.403C335.45 108.03 335.858 107.03 335.246 104.687C334.527 101.936 331.181 101.322 331.181 101.322L331.186 101.324Z" fill="#FFFEFE"/>
<path d="M339.395 118.053C339.051 118.053 338.297 117.724 335.587 116.462C334.612 116.009 333.417 115.452 333.061 115.325C326.362 116.315 318.059 110.366 317.985 110.303C317.004 109.453 316.475 108.533 316.411 107.57C316.363 106.833 316.695 106.129 317.321 105.635C317.959 105.133 318.806 104.922 319.643 105.057L328.735 106.528C329.371 106.631 330.009 106.475 330.497 106.104C330.976 105.739 331.247 105.209 331.242 104.65L330.668 101.398C330.642 101.246 330.699 101.094 330.825 100.989C330.95 100.883 331.126 100.839 331.292 100.868C331.441 100.896 334.977 101.577 335.762 104.583C336.087 105.831 336.134 106.732 336.172 107.456C336.208 108.126 336.234 108.656 336.457 109.261C336.753 110.065 339.474 111.655 340.636 112.334C341.71 112.961 341.821 113.026 341.779 113.353C341.565 114.996 340.892 117.186 339.694 117.947C339.599 118.006 339.528 118.053 339.4 118.053H339.395ZM333.104 114.378C333.324 114.378 333.72 114.543 336.07 115.635C337.133 116.129 338.677 116.848 339.248 117.057C339.865 116.496 340.455 115.053 340.695 113.495C340.531 113.393 340.282 113.248 340.052 113.115C337.932 111.877 335.831 110.582 335.454 109.552C335.188 108.827 335.155 108.213 335.119 107.5C335.082 106.779 335.039 105.962 334.735 104.796C334.299 103.121 332.772 102.332 331.833 101.997L332.281 104.538C332.286 104.56 332.285 104.579 332.288 104.6C332.312 105.452 331.906 106.26 331.178 106.814C330.45 107.369 329.492 107.599 328.546 107.447L319.453 105.977C318.934 105.893 318.41 106.023 318.014 106.336C317.63 106.637 317.426 107.068 317.457 107.517C317.504 108.24 317.926 108.953 318.716 109.637C319.415 110.242 327.201 115.319 332.992 114.391C333.03 114.385 333.066 114.378 333.106 114.378H333.104Z" fill="black"/>
<path d="M339.293 110.987C343.299 111.565 343.854 113.32 348.824 111.377C360.025 107 357.907 91.706 356 84.0936C355.609 82.5285 355.118 81.0035 354.589 79.5691C353.612 76.9283 365.64 74.4858 367.77 76.5191C370.345 78.9785 373.061 82.0961 375.404 85.9139C382.383 97.283 384.653 122.727 361.315 127.326C349.021 129.747 339.246 120.795 335.729 116.939C334.925 116.058 338.15 110.82 339.293 110.987Z" fill="#13187E"/>
<path d="M357.095 128.207C346.587 128.207 338.543 120.761 335.325 117.232C334.49 116.317 336.074 113.716 336.579 112.942C337.694 111.231 338.635 110.417 339.382 110.525C340.665 110.71 341.602 111.01 342.43 111.276C344.203 111.843 345.375 112.219 348.619 110.951C357.315 107.553 357.716 97.3123 356.521 89.3202C356.483 89.0649 356.685 88.8308 356.972 88.797C357.261 88.7633 357.522 88.9426 357.56 89.1978C358.802 97.5063 358.333 108.175 349.039 111.805C345.413 113.223 343.938 112.752 342.071 112.155C341.289 111.904 340.4 111.62 339.211 111.449C338.915 111.518 337.872 112.632 336.958 114.29C336.162 115.735 336.069 116.511 336.15 116.661C339.664 120.512 349.162 129.245 361.207 126.872C369.495 125.239 375.099 120.881 377.862 113.921C377.959 113.678 378.256 113.55 378.531 113.636C378.804 113.723 378.948 113.988 378.851 114.231C376 121.413 369.977 126.098 361.432 127.781C359.948 128.074 358.499 128.207 357.095 128.207Z" fill="black"/>
<path d="M330.19 50.994C329.844 51.1775 329.403 51.0467 329.248 50.7134C328.523 49.1315 327.363 46.0667 324.989 45.5794C321.947 44.9551 317.019 44.1472 316.594 46.2882C316.222 48.1633 316.661 51.4011 314.441 53.7466C314.227 53.9723 314.412 54.3309 314.676 54.508L316.072 55.5564C316.367 55.7546 316.62 56.4233 316.656 56.7523C316.767 57.7711 317.944 61.3126 318.337 61.591C319.108 62.1352 322.957 61.9243 322.957 61.9243L325.013 69.9902C325.129 70.3488 324.892 70.7222 324.489 70.8129L320.815 71.9245C320.815 71.9245 323.766 75.6009 332.979 75.0462C338.87 74.6918 343.179 71.0006 343.179 71.0006C343.179 71.0006 331.727 69.5536 330.18 57.5138C330.147 57.248 330.275 56.9865 330.512 56.8283C331.425 56.2166 333.885 54.4195 333.455 52.5949C332.998 50.6586 331.371 50.3654 330.188 50.9919L330.19 50.994Z" fill="white"/>
<path d="M331.118 75.5709C323.192 75.5709 320.505 72.3437 320.387 72.1961C320.289 72.0759 320.263 71.9219 320.315 71.7827C320.368 71.6434 320.489 71.5317 320.645 71.4831L324.319 70.3715C324.432 70.3441 324.473 70.2977 324.489 70.2724C324.506 70.245 324.532 70.1901 324.508 70.1205L322.542 62.4111C321.29 62.4617 318.765 62.4891 318.01 61.9576C317.365 61.502 316.222 57.6103 316.132 56.7983C316.099 56.5009 315.876 56.0178 315.753 55.9271L314.335 54.864C314.069 54.6848 313.865 54.381 313.827 54.0836C313.796 53.8474 313.872 53.6196 314.036 53.4445C315.589 51.8035 315.755 49.6309 315.888 47.8865C315.935 47.2769 315.978 46.699 316.075 46.2054C316.177 45.6844 316.488 45.2689 316.995 44.9715C318.7 43.9675 322.438 44.577 325.104 45.1233C327.541 45.6232 328.741 48.3168 329.536 50.0992L329.733 50.5358C329.752 50.578 329.785 50.5948 329.811 50.6033C329.837 50.6096 329.875 50.6159 329.92 50.5906C330.691 50.1814 331.561 50.1139 332.31 50.4071C332.896 50.6349 333.66 51.1833 333.971 52.4995C334.433 54.4548 332.201 56.2836 330.831 57.2011C330.741 57.2623 330.691 57.3614 330.703 57.4606C332.182 68.9836 342.802 70.4791 343.253 70.5382C343.452 70.5635 343.615 70.6879 343.677 70.8567C343.739 71.0254 343.687 71.2132 343.542 71.3355C343.362 71.4916 339.024 75.1491 333.012 75.5119C332.351 75.552 331.718 75.5709 331.118 75.5709ZM321.76 72.1307C322.929 73.0588 326.204 74.9846 332.941 74.5817C337.163 74.3286 340.578 72.2741 342.043 71.2469C339.095 70.5213 330.952 67.6231 329.659 57.566C329.605 57.14 329.811 56.7139 330.197 56.4545C331.141 55.8238 333.297 54.1954 332.941 52.6894C332.768 51.9553 332.403 51.4618 331.886 51.2593C331.454 51.0905 330.93 51.139 330.454 51.39C330.157 51.5482 329.799 51.582 329.474 51.485C329.149 51.3879 328.888 51.1707 328.758 50.8859L328.559 50.4409C327.845 48.8399 326.766 46.4206 324.866 46.0303C321.041 45.2457 318.587 45.1487 317.572 45.7456C317.306 45.9017 317.159 46.0978 317.107 46.3636C317.019 46.8087 316.976 47.3613 316.931 47.9477C316.789 49.8144 316.614 52.1346 314.875 54.0035C314.889 54.0393 314.93 54.0963 314.987 54.1342L316.407 55.1973C316.86 55.5011 317.133 56.3321 317.173 56.7055C317.282 57.701 318.357 60.8101 318.686 61.2404C319.118 61.4872 321.198 61.5526 322.922 61.4577C323.166 61.4408 323.408 61.5969 323.465 61.8205L325.521 69.8864C325.611 70.1564 325.568 70.4665 325.395 70.7343C325.224 71.0001 324.947 71.1878 324.613 71.2638L321.757 72.1286L321.76 72.1307Z" fill="black"/>
</svg>
